<?xml version="1.0" encoding="utf-8"?>
<!-- Generator: Adobe Illustrator 25.2.1, SVG Export Plug-In . SVG Version: 6.00 Build 0)  -->
<svg version="1.1" id="Layer_1" xmlns="http://www.w3.org/2000/svg" xmlns:xlink="http://www.w3.org/1999/xlink" x="0px" y="0px"
	 viewBox="0 0 841.9 649" style="enable-background:new 0 0 841.9 649;" xml:space="preserve">
<style type="text/css">
	.st0{fill:#373737;}
	.st1{fill:#030202;}
	.st2{fill:#363636;}
	.st3{fill:#777777;}
	.st4{fill:#CECECE;}
	.st5{fill:#FDFDFD;}
	.st6{fill:#FAFAFA;}
	.st7{fill:#FBFBFB;}
	.st8{fill:#CFCFCF;}
	.st9{fill:#F8F8F8;}
	.st10{fill:#F6F6F6;}
	.st11{fill:#4D4D4D;}
	.st12{fill:#696969;}
	.st13{fill:#3B3B3B;}
	.st14{fill:#371A1A;}
	.st15{fill:#FCFCFC;}
	.st16{fill:#F4F4F4;}
	.st17{fill:#330909;}
	.st18{fill:#3E3E3E;}
	.st19{fill:#3F3F3F;}
	.st20{fill:#3D3D3D;}
	.st21{fill:#FFFFFF;}
</style>
<path class="st0" d="M615.2,181.5c0.1,0.9,0.2,1.7-0.2,2.1c-8.9,8.9-17.3,18.4-27,26.5c-2.6,2.2-4.7,5.5-6,8.7
	c-0.8,2.1,1.8,4.1,3.1,6c13.8,19.7,23.1,41.4,28.7,64.7c4.6,19,6.9,38.3,5.5,57.8c-1.7,23.6-7.1,46.5-16.7,68.3
	c-7.8,17.8-18.1,33.9-30.8,48.6c-0.5,0.6-0.8,1.4-1.3,2.4c-0.5,1.8-1.6,2.9-2.5,4.5c-2.8,2.4-5.2,4.7-7.7,7.3
	c-3.1,3.1-6.7,5-9.3,8.6c-1.7,1.2-3.3,2.1-5.3,2.9c-12.1,9-24.4,17.2-37.7,23.6c-9.7,4.6-20,8.1-30.2,11.3
	c-10.1,3.2-20.5,5.2-31,6.5c-12.8,1.6-25.7,2.1-38.7,1c-10.8-0.9-21.4-2.5-31.8-5c-25.8-6.4-49.8-17-71.5-33.2
	c-2.2-0.3-3.6-1.5-5.5-2.6c-3-3.4-6.4-5.8-9.9-8.6c-2.9-2.3-5.1-5-8-7.3c-1.1-1.5-1.8-2.8-2.8-4.3c-10.9-13.4-21.5-26.5-29.4-41.6
	c-6.8-13-12.1-26.4-16.1-40.5c-5.5-19.8-8.5-39.8-7.6-60.4c0.4-9.9,1.9-19.7,3.7-29.5c2.9-15.4,7.7-30.1,13.9-44.5
	c5.7-13.3,13.2-25.6,22.1-37.1c1.2-1.6,2.1-3.3,3.2-5.4c6.7-9,14.4-16.7,22.7-24.2c3.9-0.7,5.8-3.8,8.3-5.9
	c27.3-22.4,58.8-35.4,93.3-41c37.8-6.1,74.4-0.4,109.5,14.6c19.4,8.3,36.6,20.1,52.4,34c3.3,2.9,5.9,2.2,7.1-0.9
	c2.4-6.5,7.8-10.3,12.3-14.8c5.1-5.2,9.8-10.9,16.2-15.1c1.9,3.4-0.1,6.4-1.2,9.9c-5.6,5.1-10.3,10.8-16.1,15.2
	c-2.6,2-3.1,4.1-0.4,6.5c1.5,1.3,2.8,2.8,4.5,4.4c9.3,9.6,8,9.2,16.8,0.4c4.1-4.1,8.3-8.1,12.4-12.6
	C609.1,181.3,611.9,180.5,615.2,181.5z"/>
<path class="st1" d="M587.5,169.2c1.2-3.3,2.1-6.4,3-9.8c0.1-0.4,0-0.4,0-0.4c0.2-0.1,0.3-0.3,0.7-0.7c4.6-11.5,11.8-21,19.6-30.1
	c15.4-18.1,34.2-32.4,53.8-45.5c13.5-9,27.5-17.5,42.2-24.5c2.2-1.1,4.1-2.8,6.6-3.5c2-0.6,3.7-0.6,4.9,1.1c1.3,1.7,1.5,3.5,0.3,5.5
	c-11.8,18.9-22.8,38.3-35.3,56.6c-14.6,21.3-30.9,41.2-52.5,56.1c-4.5,3.1-9.6,5.4-15,7.5c-3,0.6-5.8,1.1-9,1.7
	c-3.3,3.5-7,2.3-10.5,1.9c-2.5-0.3-5-0.6-7.6-2C583.8,178.8,584.9,174.2,587.5,169.2z"/>
<path class="st1" d="M238.7,182.1c-17.4-7.1-30.7-19-42.8-32.3c-11-12-20.6-25.1-29.5-38.7c-10.2-15.7-19.7-31.9-29.4-47.9
	c-0.7-1.1-1.4-2.3-1.7-3.5c-1-3.6,1.1-5.7,4.8-4.9c3.2,0.7,5.7,2.6,8.5,4.1c24.8,13.3,48.7,27.7,70.4,45.8
	c12.6,10.5,24.1,21.9,33.6,35.1c4.1,5.8,8.1,11.8,10.6,19c3.4,2.6,3.4,6.4,4.4,10.1c0.7,4.8,2.7,9.4-1.5,13.7
	c-5.7,2.8-11.5,3.2-17.8,2.8C244.8,184.6,241.5,184.6,238.7,182.1z"/>
<path class="st2" d="M567.3,471.2c0.4-1.9,0.8-3.5,2.9-4.2c2.4,0.1,3.5,1.8,4.7,3c19.8,19.8,39.6,39.6,59.4,59.4c5,5,5,8.1,0.1,13.1
	c-4,4-8,8-12,12c-4.2,4.2-7.7,4.2-12,0c-10.5-10.4-20.7-21.2-31.6-31.4c-11.3-10.6-22.2-21.5-33.2-32.8c0.8-2.1,2.1-3.3,4.7-3.3
	c3.2-0.3,4.4,2,6,3.6c18,17.9,36,35.9,53.9,53.9c5.8,5.8,5.8,5.8,11.6-0.1c1.2-1.2,2.4-2.3,3.7-3.8c5-5,5-5.1,0.4-9.7
	c-17.4-17.4-34.8-34.7-52.1-52.2C571.6,476.3,568.1,475.1,567.3,471.2z"/>
<path class="st2" d="M299,490.9c2.2,0.3,3.9,1,5.3,2.8c-11.2,11.8-22.4,23.4-33.9,34.7c-9,8.9-18.1,17.6-27.3,26.4
	c-3.9,3.7-7.5,3.7-11.3,0c-4.3-4.2-8.6-8.4-12.7-12.7c-3.8-4-3.9-8.3-0.4-11.9c19.7-19.7,39.4-39.3,59.4-59.1c2.4,0,3.3,1.2,3.3,3.5
	c0.5,3.2-1.9,4.4-3.4,6c-16.5,16.6-33,33.1-49.6,49.6c-5.2,5.2-5.2,5.2,0.4,10.8c10.5,10.6,8,10.1,17.8,0.4
	c15.6-15.4,31-31,46.5-46.5C294.8,493.4,296.2,491.4,299,490.9z"/>
<path class="st2" d="M266.5,169.2c-1.2-3.3-2.1-6.4-3.1-9.8c10.5,7.8,20.3,16.9,28,28.3c-2.6,6.5-8.9,9.3-12.9,14.4
	c-2.7,3.5-5.5,7.3-9.8,9.9c-10.3-7.2-18.2-16.8-27-25.2c-1.3-1.2-2.9-2.3-3.3-4.6c2.7,0.2,5.3,0.7,8.2,1.5c4.7,1.8,7.1,5.8,10.4,8.7
	c1.2,1.1,2.3,2.3,3.5,3.5c8.9,8.6,6.5,9.1,15.9-0.4c0.9-1,1.7-1.6,2.4-2.3c6.1-6,6.1-5.9-0.5-11.8
	C274.3,177.7,269.5,174.6,266.5,169.2z"/>
<path class="st0" d="M591.2,158.2c0.1,0.2-0.1,0.4-0.5,0.7C590.5,158.7,590.7,158.5,591.2,158.2z"/>
<path class="st3" d="M565.7,286.9c5.6,15.5,8.1,31.3,8.4,47.3c0.3,15.6-1.5,31.2-6.2,46.3c-8,25.8-21.6,48.1-41.1,66.8
	c-22.2,21.1-48.4,34.4-78.5,39.7c-32.8,5.8-64.4,1.4-94.1-13.7c-31.7-16.1-55.2-40.4-70.4-72.8c-11.5-24.7-15.5-50.5-13.2-77.3
	c2.8-32.4,15.4-61,36.7-85.6c20.8-24,46.8-39.7,77.3-47.8c16.1-4.2,32.6-5.3,49.4-4c30.7,2.4,57.7,13.4,81.9,32.1
	c21.6,16.7,37,38,47.2,63.2C564,282.8,564.8,284.7,565.7,286.9z"/>
<path class="st4" d="M410.4,515.7c2.3,2.6,4,5.2,7,6.8c-9.9,0.4-19.5-0.7-29-2.5c-39.3-7.4-73-25.4-100.7-54.3
	c-30.1-31.5-47.6-68.9-51.4-112.5c-4.6-52,10.2-97.9,43.2-138.1c0.9-1.1,2.1-2.1,3.5-3.1c1.7,3,0.4,6.1,1.1,9.5
	c-5.4,8.4-11.3,16-16.1,24.4c-13.3,23.3-21.7,48.1-23.6,75.4c-0.7,1.6-1.6,2.5-2.5,3.5c-5.5,6.2-5.7,11.5-0.4,18
	c0.6,0.8,1.3,1.5,1.9,2.7c1.8,7.7,1.7,15.2,3.1,22.6c5.4,29.2,17.7,55.2,36,79c1.1,2.7,0.1,5.2,1.1,7.6c2.6,6.1,7.3,8.7,14,8.9
	c28.7,28,62.7,44.3,102,49.7C403.1,513.9,406.9,512.9,410.4,515.7z"/>
<path class="st5" d="M411,157.7c-2.6,7.5-1.4,13.7,5.5,18.3c1.1,0.5,2,1,3.6,1.9c-15,0.5-28.9,2.7-42.6,6.6
	c-25.5,7.2-47.4,20.4-66.4,38.6c-1,0.9-2,1.7-3.3,2.3c-1.1-1.1-1.2-2.1-0.9-3c2.7-7.2-0.3-12.4-5.9-17.1c-1-3.3,0.8-5,2.7-6.7
	c19.1-16.5,40.9-28.3,64.8-36.1c12.7-4.2,25.8-6.3,39-7.4c1.2-0.1,2.3-0.2,3.7,0.7C411.8,156.6,411.7,157.1,411,157.7z"/>
<path class="st5" d="M533.6,223.3c-30.1-28.4-65.5-43.2-107.1-45.3c9.6-5.1,11.9-10.8,8.7-20.3c0.4-3.6,2.8-2.3,4.5-2.2
	c16.3,0.8,31.8,4.9,46.9,10.7c19.8,7.6,37.6,18.2,53.8,31.9c1.7,1.4,3.4,2.7,3.5,5.5c-0.4,1.2-0.9,1.9-1.6,2.3
	c-4.9,3.1-7.3,7.4-6.7,13.2c0.1,1.1-0.1,2.3-0.9,3.7C534.5,223.2,534.2,223.3,533.6,223.3z"/>
<path class="st5" d="M536.3,448.3c18-19.5,31.4-41.2,38.5-66.6c4-14.3,6.3-28.9,6.8-44.2c0.3-0.6,0.5-0.7,1.1-0.6
	c3.1,4.8,6.3,9,12.4,9.2c2.5,0.1,4.8-1.5,7.6-0.2c1.5,7.6,0,14.8-1.3,21.9c-5.8,32.7-20,61.5-41.4,86.8c-1.2,1.4-2.4,2.8-4.8,3.1
	c-1.2-0.1-2.1-0.4-2.5-1.1c-3.6-5.8-9-7.7-15.9-7.2C536.3,449.1,536.2,448.9,536.3,448.3z"/>
<path class="st5" d="M410.7,515.6c-24.9-1.3-48.5-7.8-70.7-19.3c-14.3-7.5-27.6-16.4-39.4-27.6c-1.2-1.1-2.7-2-3.1-4.2
	c0.2-1,0.5-1.6,1.1-1.9c6.3-3.4,7.3-9.3,7.5-15.9c30.3,31.2,67.4,47.2,111.5,49.7C410.7,501.5,407.8,507.4,410.7,515.6z"/>
<path class="st5" d="M581.8,331.1c-2.1-17.8-5-35.1-11.5-51.7c-6.3-16.3-15.2-31-26.3-44.5c-1.1-1.3-2.9-2.4-2.2-4.8
	c1.1-1.1,2.1-1.5,3-1.4c6.8,0.9,11.1-2.9,15.2-8c2.9-0.2,4.2,1.7,5.5,3.3c20.1,26.3,32.8,55.7,37.1,88.7c0.4,2.8,0.5,5.6-0.6,8.7
	c-0.9,1.1-1.9,1.3-2.9,1.1c-7.3-1.5-12.4,1.5-16.1,8.1C582.7,331.1,582.4,331.2,581.8,331.1z"/>
<path class="st5" d="M243.7,322.2c-0.3-20,5.3-38.5,12.9-56.6c6.6-15.7,15.3-30.2,26.5-43.5c1.2,0,1.9,0.4,2.4,1.1
	c3.9,5.3,9,6.7,15.2,5.1c1.1-0.3,2.3-0.3,3.6,0.5c-6.9,9.8-14.5,19-20.5,29.4c-12.3,21.6-18.8,44.9-20.6,70.1c-1,1.9-2.2,1-2.7,0.2
	C256.5,322.3,250.4,322.1,243.7,322.2z"/>
<path class="st5" d="M282.6,447.8c-5-2.4-7-7.2-9.6-11.2c-12-17.9-20.7-37.3-25.9-58.2c-2.6-10.5-3.6-21.1-4.6-32.3
	c0.7-0.9,1.6-1,2.4-0.8c5.9,2,10.5,0,14.6-4.2c0.8-0.8,1.7-1.6,3.3-1.5c0.6,24.5,6.5,47.4,17.2,69.2c5.2,10.6,11.9,20.4,19.5,29.8
	c0.3,1.7-0.8,2.1-1.7,1.9C291.1,439.5,286.8,443,282.6,447.8z"/>
<path class="st5" d="M436,504.2c-0.7-3.6-3.6-5.2-6.6-8c38.2-2.5,71.3-16.1,99.9-40.6c0.7,0.6,1.1,1.1,1,1.5
	c-1.3,7.1,2.3,12.1,7.4,16.7c0,3-2.1,4.3-4,5.7c-26,19.7-55,32.2-87.4,36.5c-3,0.4-6.3,1.2-9.1-1.7
	C436.9,510.9,434.9,507.9,436,504.2z"/>
<path class="st4" d="M543.9,204.5c-3-6.4-8.9-9.3-13.8-13c-22.9-17-48.5-28.2-76.6-33.2c-5.8-1-11.7-1.8-18-1.3
	c-1.9-0.6-2.2-3.3-4.9-2.3c1.5-1.9-0.7-2.4-2.1-3c-5.3-2.4-11.1-0.8-16.1,4.6c-0.2,0.6-0.4,0.8-0.8,0.7c-8.6-0.9-16.6,0.7-24.7,2.3
	c-31.1,6.1-58.4,20.2-82.6,40.5c-1.3,1.1-3.1,2.2-2.9,4.7c-3.5,1.5-7,1.3-10.7-0.2c9.8-11.8,22-20.7,35-28.5
	c24.6-14.9,51.1-23.7,79.8-26c57.7-4.6,107,13.4,148.6,53.4c0.7,0.7,1.2,1.6,1.5,2.6C551.5,207.1,548,205.1,543.9,204.5z"/>
<path class="st4" d="M601.5,322.3c0-20-5.6-38.3-13-56.2c-6.8-16.4-15.7-31.5-27.8-45c-2.6-3.3-1.9-6.9-1.6-10.8
	c2.2-0.8,2.8,0.9,3.6,1.9c26.5,30.5,42.2,65.7,45.8,106.1c4.9,56.6-12.4,105.4-50.9,146.9c-1.1,1.2-2.5,2.2-4,3
	c-2.1-3.7-0.5-7,0.2-10.7c6.6-3.3,9.7-9.5,13.5-14.7c16.7-22.6,27.7-47.9,32.7-75.6c1.2-6.8,1.6-13.8,2.3-21.2
	c-0.2-1.8,0.7-2.6,1.4-3.5c4.8-6.5,4.7-11.4-0.6-17.6C602.5,324.4,601.9,323.6,601.5,322.3z"/>
<path class="st6" d="M626.6,540.8c-2.1,2.7-4.6,4.9-6.6,7.5c-2.5,3.1-4.2,3.3-7.3,0.2c-20.3-20.6-40.9-40.9-61.7-61.4
	c1-4.4,5.3-6,8.1-9.2c4,1.6,6.9,4.3,9.7,7.1c8.8,8.8,17.7,17.5,26.4,26.4c8.6,8.9,18.4,16.7,26.9,25.8
	C623.3,538.5,624.9,539.4,626.6,540.8z"/>
<path class="st7" d="M299.3,490.6c-19.2,19.3-38.5,38.1-57.4,57.3c-3.5,3.6-5.5,3.6-8.4-0.2c-1.4-1.8-3.3-3.3-5.1-5.2
	c-0.6-2.4,1.2-3.2,2.4-4.2c15-13,28.3-27.7,42.5-41.5c5.1-5,11-9.2,15.8-15C293,484.2,296.6,486.7,299.3,490.6z"/>
<path class="st8" d="M627.1,540.9c-2.8,0.5-4.3-1-5.9-2.6c-18-17.7-35.9-35.3-53.9-52.9c-2.5-2.4-5.1-4.7-7.8-7.4
	c2.1-2.9,4-5.8,7.6-7.2c18.2,17.9,36.1,35.7,54,53.6c2.1,2.1,4.2,4.2,6.3,6.4C632.5,535.9,632.5,535.9,627.1,540.9z"/>
<path class="st4" d="M289.4,481.3c-0.7,4.6-4.5,6.8-7.3,9.3c-13.3,11.9-25.3,25.1-38.2,37.3c-4.9,4.7-10.1,9.1-15.4,14
	c-7.3-5.7-7.3-5.7-1.1-11.9c17.9-18.1,35.9-36.2,53.9-54.6C285.3,475.4,286.6,479.2,289.4,481.3z"/>
<path class="st4" d="M436.9,513.6c5.5,3.5,10.9,0.8,16,0c25.1-4,48.1-13.6,69.3-27.6c5.2-3.4,10.7-6.8,15.1-11.8
	c3.3-2.6,6.9-1.7,10.8-1.6c0.8,2.6-1.4,3.2-2.6,4.2c-30.5,26.2-65.5,41.7-105.6,45.2c-3.2,0.3-6.4,1.3-10.1,0.5
	c2.9-2.5,6-4.3,6.6-8.4C436.4,513.8,436.7,513.6,436.9,513.6z"/>
<path class="st9" d="M430.4,155.1c-1.1,1.3,0.4,1.6,0.9,2.3c3.4,4.6,3.3,10.1-0.3,14.1c-3.7,4.1-9.3,4.7-14,1.5
	c-4.2-2.9-5.7-8.5-3.5-13.2c2.2-4.7,7.7-6.9,13.1-5.4c1.1,0.3,2.1,0.9,3.5,1.1C430.4,155.1,430.4,155,430.4,155.1z"/>
<path class="st10" d="M588.1,181.9c6,1.3,11.6,2.8,17.9,1.6c-2.2,5.2-7.2,8.3-11.1,12.5c-2.8,3-5.7,7.7-9,8.1
	c-3.5,0.4-6-4.9-9.4-7.8c-1.3-1.9-0.4-3.2,0.6-4.2C580.6,188.6,583.7,184.8,588.1,181.9z"/>
<path class="st7" d="M435,511.5c-1.1,1.4-1.8,2.9-2.6,4.6c-5.6,2.5-11,1.9-16.9,0.4c-4.3-6.1-3.7-11.4,1.3-15.4
	c4.9-3.9,10.9-3,16.3,2.8C436.2,506,437.5,508.4,435,511.5z"/>
<path class="st11" d="M290.5,204c3.4,0.5,6.9-1,10.6,0.8c8.4,5.4,9.9,10.5,6.3,19.9c0.1,0.4,0.1,0.3,0.1,0.3
	c-0.3,0.3-0.6,0.6-0.9,1.3c-0.3,0.7-0.4,1-0.8,1.3c-0.4,0.3-0.6,0.7-1.1,1.3c-0.2,0.2-0.2,0.2-0.2,0.2c-0.6-1.6-1.5-0.5-2.3-0.2
	c-8.3,3.2-13.9,1.3-18.7-6.5c-1-3.3-1.8-6.4-0.2-9.8c0.5-3.5,2.3-5.7,5.2-7.4c0.7-0.2,1.1-0.4,1.7-0.9
	C290.5,203.9,290.5,204,290.5,204z"/>
<path class="st11" d="M263.2,339.4c-1.5-0.1-1.9,1.1-2.5,1.8c-5.2,6.4-9.6,7.5-17.9,4.6c-9-7.8-8.8-16.7,0.4-23.6
	c8.6-3.3,14.6,0.1,19.8,6.6C263.3,332.2,263.4,335.6,263.2,339.4z"/>
<path class="st11" d="M548.4,473c-3.3,0.9-6.6,1.8-10.5,1c-7.6-3.4-10.2-9-8.4-17.6c-0.1-0.4-0.1-0.3-0.1-0.3
	c0.3-0.3,0.5-0.7,0.8-1.5c0.3-1.9,0.9-3.2,3.1-3.6c0.5-0.2,0.6-0.4,1-0.8c0.2-0.2,0.2-0.2,0.2-0.2c0.4-0.4,0.9-0.5,1.7-0.5
	c8.7-2.3,13.7-0.2,17.8,7.5c0.9,3.7,0.8,7-0.5,10.7c0,0.4,0,0.3,0,0.3c-0.5,0.4-0.5,1-0.9,1.9c-0.2,0.2-0.2,0.2-0.1,0.2
	c-0.2,0.2-0.5,0.5-0.9,0.9c-0.2,0.2-0.2,0.1-0.1,0.1c-0.2,0.2-0.5,0.5-0.9,0.9c-0.2,0.2-0.2,0.1-0.1,0.1c-0.4,0.4-1,0.5-1.8,0.9
	C548.4,473,548.4,473,548.4,473z"/>
<path class="st11" d="M282.3,448.3c3.3-8,9.4-9.9,17.2-9c3,1.4,4.8,4.1,6.9,6.8c1.1,11-0.4,14-8.5,18
	C287,465.4,280.3,458.6,282.3,448.3z"/>
<path class="st4" d="M588.3,181.5c-3.2,5.4-8.8,8.5-11.8,14.2c-9.6-7.4-9.6-7.4-1-15.7c3.8-3.7,7.7-7.3,12-11
	C587.3,173.1,584.9,177.2,588.3,181.5z"/>
<path class="st11" d="M559.4,210c0.7,3.3,1.8,6.6,1,10.6c-4.2,8.6-7.9,10.5-17.6,9.4c-0.5,0.1-0.4,0.1-0.4,0.1
	c-0.4-0.5-1-0.5-1.8-0.8c-0.2-0.1-0.2-0.2-0.2-0.2c-0.5-0.6-1.3-0.5-2.2-0.9c-0.3-0.1-0.7-0.3-0.8-0.4c-0.3-1.3-1-2.2-1.8-3.4
	c-0.2-0.3-0.2-0.3-0.2-0.3c-0.3-0.2-0.5-0.5-0.3-0.9c-2.3-9.4-0.2-14.5,8.2-18.7c4.2-0.8,8-0.7,11.8,1.6c0.4,0.1,0.3,0.1,0.3,0
	c0.4,0.5,1,0.5,1.9,0.9c0.2,0.2,0.2,0.2,0.2,0.1c0.2,0.2,0.5,0.5,0.9,0.9c0.2,0.2,0.1,0.2,0.1,0.1c0.4,0.4,0.5,1,0.9,1.8
	C559.5,210,559.4,210,559.4,210z"/>
<path class="st12" d="M576.3,213.2c-4.4-4.6-8.4-8.9-12.4-13.3c-1.2-1.3-2.3-2.8-0.7-4.3c1.3-1.3,2.8-0.4,3.9,0.7
	c4.1,4.3,8.8,8.1,12.4,13.2c0,1-0.4,1.5-0.8,2.3c-0.2,0.3-0.2,0.2-0.2,0.2c-0.2,0.2-0.5,0.4-0.8,0.8c-0.1,0.2-0.2,0.1-0.2,0.2
	C577.2,213.1,577,213.2,576.3,213.2z"/>
<path class="st4" d="M415.2,516.6c5.3-0.4,10.8-0.5,16.6-0.4C426.8,522.2,421.7,522.4,415.2,516.6z"/>
<path class="st13" d="M434.9,511.5c-0.5-2.5-0.4-4.8-1.5-7.2c0.6-0.4,1.2-0.4,2.2-0.5c2,2.8,2,5.8,1.5,9.3c0,0.4-0.4,0.5-0.6,0.5
	C436,513.2,435.6,512.5,434.9,511.5z"/>
<path class="st4" d="M581.4,331.4c0.1-0.4,0.5-0.5,0.7-0.5c2,1.6,1.8,3.5,0.5,5.8c-0.4,0.3-0.7,0.4-0.9,0.3
	C581.5,335.3,581.4,333.6,581.4,331.4z"/>
<path class="st13" d="M427.5,495.4c0.7,0.4,0.7,0.8,0.2,1.1c-0.1,0.1-0.4,0.1-0.5,0C426.8,496.2,426.8,495.8,427.5,495.4z"/>
<path class="st8" d="M535.1,224.3c2-0.2,2.3,1.3,2.6,2.9C536.6,226.6,535.7,225.6,535.1,224.3z"/>
<path class="st4" d="M578.8,212.1c-0.9-0.8-0.4-1.4,0.4-2.1C580.7,210.8,579.8,211.4,578.8,212.1z"/>
<path class="st4" d="M536.5,449.2c-0.6,0.6-1.1,0.9-1.8,1c0.2-0.7,0.7-1.4,1.5-2C536.5,448.3,536.5,448.5,536.5,449.2z"/>
<path class="st4" d="M557.4,206.7c-0.5,0.2-1.1,0-1.8-0.4C556.2,204.9,556.7,205.9,557.4,206.7z"/>
<path class="st4" d="M552.8,469.9c-0.2-0.5-0.1-1.1,0.4-1.8C554.6,468.8,553.5,469.2,552.8,469.9z"/>
<path class="st4" d="M548.7,473.3c0.2-0.6,0.7-1,1.5-1.3C550,472.5,549.5,473,548.7,473.3z"/>
<path class="st8" d="M540.2,229.6c0.9-0.9,1.5-0.6,2.1,0.2C541.6,231.4,540.8,231,540.2,229.6z"/>
<path class="st8" d="M538.1,228.4c0.6-1.6,1.3-0.7,2.2,0.2C539.5,230.3,539,229.1,538.1,228.4z"/>
<path class="st5" d="M530,454.4c0.2,0.5,0.1,1.1-0.4,1.6C528.4,455.3,529.4,454.9,530,454.4z"/>
<path class="st8" d="M534.8,223c0.8,0.2,1,0.4,0.7,0.9c-1,1.2-1.4,0.2-2.1-0.5C533.6,223.1,534,223.1,534.8,223z"/>
<path class="st13" d="M411.2,156.9c0.2-0.2,0.7-0.1,0.9-0.2c-0.1,0.4-0.5,0.8-1.1,1.3C410.8,157.7,410.9,157.4,411.2,156.9z"/>
<path class="st4" d="M559.7,209.7c-1.1,0.2-1.3-0.5-1.4-1.5C558.9,208.4,559.4,208.9,559.7,209.7z"/>
<path class="st4" d="M290.2,204c0,0.2-0.3,0.5-0.9,0.9C289.2,204.7,289.5,204.4,290.2,204z"/>
<path class="st4" d="M558.4,207.8c-0.3,0.1-0.6,0-1-0.5C557.7,207.1,558,207.3,558.4,207.8z"/>
<path class="st4" d="M577.8,213.1c-0.2-0.4-0.1-0.8,0.4-1.2C578.4,212.4,578.2,212.8,577.8,213.1z"/>
<path class="st4" d="M576.1,213.2c0.1-0.3,0.3-0.4,1-0.3C577.3,213.9,576.9,213.9,576.1,213.2z"/>
<path class="st5" d="M306.9,226.6c-0.4-0.5-0.3-1,0.2-1.5C308.1,225.6,308,226.1,306.9,226.6z"/>
<path class="st5" d="M304.9,229c-1-0.5-1-1,0.2-1.5C305.4,228,305.3,228.5,304.9,229z"/>
<path class="st4" d="M550.7,472c-0.1-0.3,0.1-0.6,0.5-1C551.3,471.3,551.1,471.6,550.7,472z"/>
<path class="st4" d="M551.7,471c-0.1-0.3,0-0.6,0.5-1C552.3,470.3,552.1,470.6,551.7,471z"/>
<path class="st4" d="M534.3,450.1c0.2,0.2,0.1,0.5-0.5,0.8C533.7,450.6,533.8,450.4,534.3,450.1z"/>
<path class="st9" d="M416.8,175.9c0.1,0.1,0.1,0.1,0.1,0.2c0.1-0.1,0.1-0.2,0.2-0.3C417,175.8,416.8,175.8,416.8,175.9z"/>
<path class="st14" d="M657.7,144.2c-11.7,12.1-22.9,24.3-38.3,31.3c-8,3.7-16.2,5.6-25.1,3.8c-4.2-0.8-4.1-2.8-3.5-5.9
	c2.4-13.3,8.9-24.7,17-35.1c16.9-21.8,38.3-38.5,61.3-53.4c13.9-9.1,28.5-17.1,43-25.1c0.6-0.3,1.2-0.7,2.2,0.3
	c-4.8,7.9-9.5,16-14.5,24c-11,17.8-21.8,35.7-35.3,51.9C662.3,138.5,660.1,141.2,657.7,144.2z"/>
<path class="st14" d="M197.7,145.7c-23.4-26.1-40-56.5-57.4-86.6c4.4,2.3,8.9,4.6,13.3,7c21.9,12,43,25.3,62.2,41.2
	c18.8,15.6,35.6,33,44.9,56.3c1.5,3.8,1.7,7.8,2.6,11.6c0.5,2.3-0.5,3.4-3.1,3.9c-11.9,2.7-22.3-1.4-32.2-7.2
	C216.4,165.2,207.2,155.6,197.7,145.7z"/>
<path class="st10" d="M277.7,195.8c-9.2,9.9-9.2,9.9-18.5,0.6c-3.9-4-7.9-7.9-12.1-12.1c5.8-0.1,11.7-0.3,17.9-2.3
	C270.6,185.5,275.7,189.1,277.7,195.8z"/>
<path class="st4" d="M277.8,196c-2.8-5.6-8.4-8.7-12.2-13.8c3.2-4.1,1.5-8.3,0.8-12.8c7.1,4.6,12.6,11.5,19.1,17.2
	c1.4,1.2,0.4,2-0.5,2.8C282.7,191.5,280.4,193.7,277.8,196z"/>
<path class="st15" d="M475.6,226c-0.2,25.8-0.5,51.2-0.7,76.5c0,1.3-0.3,3,1.5,3.2c2.5,0.3,1.9-1.9,1.9-3.2
	c0.4-15.3,0.7-30.7,1.1-46c0.4-16.5,0.9-33,1.2-49.5c0.1-3.6,0.7-4.3,4.1-2.6c7,3.4,6.8,3.2,6.3,11.2c-1,16.4-2.3,32.8,1.3,49.3
	c2.6,12.1,2.5,24.5,1.5,36.8c-0.1,1.3-1.5,3.7,1.2,4c2.3,0.2,2.1-2,2.5-3.6c2.8-14.4,0.8-28.6-2.1-42.6c-1.4-6.8-1.9-13.5-1.5-20.3
	c0.5-8.5,1.2-16.9,1.7-25.4c0.2-2.8,1.1-3,3.3-1.8c5.5,3.1,9.1,6.4,9.2,14.1c0.5,24.5,0.5,49,0.5,73.5c0,1.3,0.1,2.7,0,4
	c-0.2,2.2,1.1,3.3,2.9,3.3c2.1,0.1,1.3-2,1.3-3c0.2-21.8,0-43.7-0.8-65.5c-0.2-5.5,0-10.9,0-16.8c5.9,4,10.8,8.9,15.6,13.8
	c0.9,0.9,0.9,2.1,1.1,3.3c2.2,20.1,3.2,40.2,1.1,60.3c-0.1,1.2-0.2,2.3-0.2,3.5c-0.1,1.1,0.3,2,1.6,2.1c1.2,0.1,2.5,0,2.7-1.5
	c0.3-2.1,0.6-4.3,0.7-6.5c0.7-17.3,0.9-34.6-0.1-52.7c4.5,3.3,6.6,7.7,9.5,11.4c0.9,1.2,1.6,2.5,2.5,3.7c3.4,4.9,5.1,9.1,2.5,15.8
	c-3.7,9.7-2.2,20.7-3.9,31.1c-0.3,1.8,1,2.6,2.3,2.8c2.3,0.4,2.1-1.7,2.2-3c0.8-7.8,1.3-15.6,2.1-23.4c0.3-2.9,1-5.8,2.2-8.8
	c4.8,10.6,10.9,20.5,10.2,32.9c-0.6,9.6-2.4,19.2-1.1,28.9c0.7,5.1-0.5,10.2-2.9,14.5c-5.1,9.5-6.3,20.3-11.8,29.8
	c8.4-0.9,13,4,10.3,11.4c-5.2,14.5-13.3,27.4-23.5,39.9c0-10.5-0.3-20.2,0.1-29.9c0.4-10.3-0.3-20.7,1.3-30.9c0.2-1.1,0.1-2-1.4-1.9
	c-1.4,0-2.8,0.4-2.9,2.1c-0.3,3-0.5,6-0.4,9c0.3,18.5-1,37-2.7,55.4c-0.2,2,0,4.1-2.9,5.3c-2.7-7.2-2.9-14.8-3.2-22.3
	c-0.7-15.3,0.6-30.6,2-45.9c0.2-1.9,1.2-4.2-2-4.7c-3.5-0.5-2.7,2.4-2.9,4c-1.3,20.1-2.5,40.3-0.3,60.4c0.2,1.8,0.2,3.8,1,5.4
	c3,5.8,0.5,9.2-4.1,12.8c-9.1,7.1-18.5,13.7-28.8,18.9c-2.9,1.4-4,1.9-4.5-2.1c-3.6-28-5.4-56-5.8-84.2c-0.1-4-0.1-8-0.2-12
	c0-1.3,0.3-2.8-1.7-2.9c-2.5-0.2-1.9,1.8-2,3.1c-0.1,16.8,0.6,33.7,1.6,50.5c1,16.3,2.3,32.6,5,48.7c0.3,1.8-0.2,2.9-1.9,3.4
	c-2.4,0.7-2.2-1.5-2.6-2.7c-7.2-19.7-10.1-39.8-6.8-60.8c2.3-14.2-2.6-27.3-7.6-40.3c-0.8-2-2.3-2.5-4-1.8c-2.2,0.8-0.8,2.5-0.4,3.7
	c1.2,4,2.4,8,4.1,11.8c3.6,8.5,5.6,17.3,3.5,26.3c-4.4,19.5,0.8,37.9,5.3,56.5c2.4,9.6,2.4,9.6-7.2,12.6c-8.5,2.6-8.2,2.6-9.3-6.2
	c-2.8-22.9-0.5-46.1-4.1-68.8c-1.8-11.2-1.2-22.1-0.4-33.2c0.1-1.6,0.4-3.1-1.6-3.6c-2.7-0.6-2.2,1.7-2.2,2.8
	c-0.5,11.1-3.2,22.1,0.1,33.2c1.3,4.4,1.3,9.2,1.3,13.9c-0.2,20.7,0.7,41.3,3.7,61.8c0.3,2.2-0.4,3-2.4,3.4
	c-13.2,2.4-26.5,2.8-39.8,1.6c-3.3-0.3-2.4-2.7-2.4-4.5c0.1-16.3,0.4-32.7,0.4-49c0-19,1.1-38-0.5-57c-0.1-1-0.1-2-0.1-3
	c0-1.4-0.3-2.7-2.2-2.6c-2.1,0.1-1.8,1.5-1.8,2.8c0.3,5.2,0.8,10.3,0.8,15.5c0.5,31-0.4,62-0.6,93c0,3.7-1.6,4.3-4.5,3.4
	c-3.8-1.2-8.9-0.2-11.3-3.1c-2.3-2.8,0.2-7.3,0.4-11.1c1.3-21.1-1.6-41.9-4.3-62.7c-1.3-10.1-1.7-20.2-1.9-30.4c0-1.3,0-2.7-0.1-4
	c-0.1-1.6,0.2-3.4-2.4-3.5c-2.8,0-2.2,2-2.1,3.5c0.7,15.3,0.9,30.6,3.3,45.8c3,18.6,4.9,37.3,2.7,56.2c-0.5,4.3-1.6,5.4-5.9,3.9
	c-15.4-5.4-29.6-12.8-42.6-22.7c-6-4.6-4.9-19.1,2-25.1c10.4-9.2,18.6-19.9,23.9-32.8c4.3-10.6,6.1-21.8,7.2-33
	c0.3-3.1-1.9-4.7-3.9-7.2c-1.3,9.1-2.7,17.7-3.7,26.3c-1.8,15.5-9.7,27.7-20.6,38.3c-0.7,0.7-1.4,1.4-2.2,2.1
	c-7.5,6.2-12.6,13.4-10.5,24.2c-6.1-6.2-14.2-9.7-14.3-20.8c-0.2-18.5-2.7-36.9-1.5-55.4c0.1-1.7-0.3-3-2.2-3.2
	c-2.6-0.3-2,1.8-2.1,3c-1.6,13.2-0.2,26.3,0.8,39.4c0.4,5.8,1,11.6,1.6,17.9c-3-1.6-3.8-3.7-3.5-6.5c0.9-10.8,0.3-21.1-5.8-30.8
	c-3.6-5.7-2.1-12.6-1.3-19.1c0.3-2,0.8-3.9,1.1-5.9c0.2-1.7-1.2-2.4-2.4-2.7c-1.4-0.4-1.4,1.1-1.6,2c-1.8,7.3-2.9,14.7-2.3,22.3
	c0.2,2.9,1.9,4.9,3.3,7.2c4.4,7.2,6.5,14.9,5.6,23.4c-8.2-5.2-21.5-40.3-24.1-61.9c-5.1-42.1,9.3-82.1,27.7-104.4
	c1.7,3.5,2.1,7.1,2.3,10.6c0.6,13.3,0.6,26.6-0.5,40c-0.1,1.4-1.7,4,1.6,4.1c2.6,0.1,3.6-1.5,3.7-4.1c0.8-15,0.1-30-1.3-44.9
	c-0.3-3.3-0.8-6.6-1.2-9.9c-0.6-4.7,4.2-5.9,6.6-9.1c0.3,7.2,0.8,14.3,0.9,21.5c0.2,14.5,3,28.9,1.9,43.4c-0.2,2.4,0.9,3,2.8,3.1
	c2.6,0.1,1.6-2.1,1.7-3.3c0.9-14.2-0.5-28.2-2.5-42.3c-1.2-8.2-0.4-16.6-0.3-25c0-3.6,2.2-5.2,5-7.2c4.2,10.7,6.4,21.6,7.6,32.6
	c1.8,15.4,2.2,30.9,0.9,46.4c-0.2,2.3-0.7,4.8,2.7,5.9c1-3.5,1.3-7,1.4-10.6c1-25.8-0.6-51.3-8.2-76.1c-1.2-3.9,2.6-4.5,4.4-5.2
	c1.9-0.8,1.4,2,1.6,3.2c2.4,26.2,4.9,52.4,6.3,78.7c0.1,1.4-0.8,3.8,2.1,3.5c2.6-0.3,1.9-2.4,1.8-3.9c-1.1-17.5-2.3-34.9-3.4-52.4
	c-0.7-10.3-1-20.6-1.9-30.9c-0.4-4.7,3.1-5.8,5.9-6.8c2.6-0.9,1.8,2.2,1.9,3.5c1.3,14.6,2.3,29.2,3.6,43.8
	c1.2,14.1,2.7,28.2,4.1,42.3c0.2,1.9,0.1,4.4,3.2,4c3.1-0.3,1.8-2.8,1.7-4.3c-2.4-21.3-4.9-42.7-6.5-64.1c-0.6-8-0.9-16-1.6-23.9
	c-0.4-4.2,1.3-6.5,5-8c2.8-1.1,5.5-2.4,8.2-3.7c2.9-1.4,3.8-0.3,3.9,2.6c0.2,5.7,0.6,11.3,0.8,17c0.9,26.6,1.7,53.3,2.5,79.9
	c0,1,0.1,2,0.2,3c0.1,2.3,1.9,2.7,3.5,2.7c2.3-0.1,1.2-2,1.2-3.1c-1-33.3-1.3-66.6-4.3-99.9c-0.4-4.2,0.7-6.1,4.7-6.9
	c2.9-0.5,5.9-1.3,8.7-2.3c4.5-1.7,5,0.4,4.6,4.1c-1.1,10.1-1.9,20.2-3.1,30.3c-2.1,18.3-1.1,36.6,1.9,54.7c0.9,5.6,1.9,11.2,3,16.7
	c0.4,2-0.5,5.6,3.1,5c3.8-0.7,1.2-4,0.9-5.7c-2.9-15.9-5.9-31.7-5.5-48c0.2-10.5,0.6-20.9,2.7-31.2c1.5-7.9,1.1-15.9,1.1-23.9
	c0-2.8,0.7-4.3,3.7-4.6c19-2.2,37.9-2.1,56.6,2.2c3.6,0.8,4.5,2.4,4.3,5.8c-0.6,13.6-1.1,27.2-3.2,40.8c-2.6,16.6-3.2,33.4-4.6,50.2
	c-0.3,3.7-0.8,7.3-1,10.9c-0.1,1.3-1,3.4,1.3,3.6c2.5,0.2,2.3-1.9,2.5-3.5c1-10.9,2.2-21.9,2.9-32.8c1.5-23.1,5.1-46,6.8-69.1
	c0.2-2.5,0.7-3,3.3-2.3c7.5,2,7.7,2.1,7.6,9.6C475.8,213.5,475.7,219.5,475.6,226z"/>
<path class="st9" d="M567.3,328.2c0.1-1,0.2-1.7,0.3-2.3c2,18.5,0.3,36.6-5.4,54.6c-2.2-2-3.8-4.2-6.3-5.2c-2.7-1.1-0.9-2.7-0.3-4
	c4.1-9.3,7.4-18.9,9.6-28.8C566.1,337.9,566.6,333.2,567.3,328.2z"/>
<path class="st11" d="M582.4,337.4c-0.1-2.1,0-3.8,0-6c3.5-9.2,9.1-12,18.7-9.5c9.6,7.2,10.1,16.2,1.5,23.5
	C592.6,349.3,586.4,346.8,582.4,337.4z"/>
<path class="st16" d="M287.4,212.1c4.3-5,9.4-6.3,13.8-3.7c4.1,2.4,6,7.7,4.3,12.1c-1.9,4.9-6.3,7.4-11.6,6.6
	C287.4,225.9,284.4,219.6,287.4,212.1z"/>
<path class="st10" d="M240.4,337.8c-1.4-6.5,0.7-11.3,5.5-13.1c4.7-1.8,10.1,0.1,12.5,4.4c2.4,4.2,1.3,9.9-2.6,13
	C250.8,346.1,244.3,344.5,240.4,337.8z"/>
<path class="st10" d="M548,468.7c-7.7,4.1-14.2,1.9-15.7-5c-1-4.5,1-8.9,5-11c4-2.1,9.3-1,12.2,2.5
	C552.4,458.9,552.1,463.4,548,468.7z"/>
<path class="st10" d="M296.1,461.1c-5.1,0.4-8.5-1.7-10.3-5.9c-1.5-3.4-1.1-6.8,1.7-9.7c2.8-2.9,6.1-4,10-2.6
	c3.9,1.4,6.2,4.3,6.3,8.6C303.8,456.6,301.3,459.7,296.1,461.1z"/>
<path class="st10" d="M537.5,218.7c0.2-6.7,2.9-10.5,7.8-11.5c4.4-0.9,9.3,1.7,11.2,5.7c2.6,5.6,0.4,11.5-5.1,13.7
	C545.3,228.8,539.9,225.9,537.5,218.7z"/>
<path class="st17" d="M661.7,130.2c-2,1.6-3,3.9-5.7,4.5c0.9-2.4,13.4-19.7,15.4-21.2C669.9,120.3,665.6,125,661.7,130.2z"/>
<path class="st17" d="M652.9,136.5C652.9,136.5,652.9,136.6,652.9,136.5z"/>
<path class="st17" d="M672,111.5C671.9,111.6,672,111.5,672,111.5z"/>
<path class="st17" d="M183.5,115.4c5.4,3,6.6,9.4,10.4,13.9C188.3,126.4,185.8,121.1,183.5,115.4z"/>
<path class="st17" d="M183.4,115c-0.2-0.3-0.5-0.7-0.7-1c0.1-0.1,0.2-0.2,0.4-0.3c0.1,0.3,0.2,0.5,0.4,1
	C183.5,115,183.4,115,183.4,115z"/>
<path class="st17" d="M182,111.5C182,111.5,182,111.4,182,111.5z"/>
<path class="st18" d="M506.9,342.1c-3.5-18.3,11.1-33.6,29-30.4c11.2,2,19.7,12.1,20.1,24c0.4,11.3-7.2,21.6-18.1,24.7
	c-11.2,3.2-23.2-1.9-28.5-12C508.5,346.6,507.8,344.5,506.9,342.1z"/>
<path class="st18" d="M316.1,321.1c-6.1-0.3-11,1.1-14.3,6.2c-0.7,1.1-1.8,2.3-1.2,3.6c0.7,1.6,2.4,0.8,3.6,0.8
	c10.3,0.1,20.7,0.2,31,0c3.3-0.1,4.2,1,4.2,4.2c-0.1,13.5-8.2,23.3-21,25.1c-12.8,1.7-24.2-5-27.5-16.4
	c-3.9-13.2,1.4-25.9,13.3-30.9c8.3-3.5,16.6-2.9,24.3,2.3c1.2,0.8,4.2,1.9,2.2,3.8c-1.9,1.8-2.9,6.6-7.2,3.8
	C321.3,322.2,319,321.4,316.1,321.1z"/>
<path class="st19" d="M449.6,316.3c-0.4-6,3.9-3.5,6.3-3.9c3.3-0.6,3.3,1.6,3.3,4c-0.1,12.8,0,25.7-0.1,38.5c0,1.8,1.3,4.8-1.4,5.1
	c-3,0.3-6.7,1.8-9.3-1.4c-2.4-3-4.6-6.1-6.8-9.3c-1.4-2.1-2.5-2.2-4.2-0.3c-2.6,3-5.5,5.8-8.3,8.7c-1.1,1.1-2.1,2.4-4.1,2.6
	c-7.3,0.9-7.9,0.5-7.9-6.8c0-11.8-0.1-23.7,0.1-35.5c0-1.8-1.6-5,1.6-5.4c3-0.3,6.6-1.7,9.1,1.9c5.9,8.3,11.9,16.4,17.9,24.6
	c0.9,1.2,1.8,2.3,3.6,4.6C449.6,333.9,449.6,325.3,449.6,316.3z"/>
<path class="st19" d="M384.3,323.5c2.4,8.7,0.3,14.9-6.9,19.8c-2.2,1.5-2.2,2.3-0.7,4.1c3.1,3.9,5.9,7.9,9.2,12.2
	c-7,1.3-12.5,1.2-16.4-5.7c-2.2-4-4.5-9.2-11.2-7.9c-2.2,0.4-3.4,0.6-3.2,3.1c0.1,1.8-0.2,3.7,0.1,5.5c0.7,4.6-1.1,6.1-5.7,5.7
	c-2.8-0.2-4.2-0.6-4-3.8c0.3-5.3,0.3-10.7,0-16c-0.2-3.5,1.2-4.3,4.3-4c1.8,0.2,3.6,0,6.6,0c-3.3-4.4-5.8-8.3-8.8-11.7
	c-3-3.4-1.8-7.2-1.9-10.9c0-1.9,1.8-1.5,3.1-1.5c6.5,0,13-0.2,19.5,0C375.6,312.6,381.1,316.2,384.3,323.5z"/>
<path class="st20" d="M476.7,324.1c3.9,5.9,3.9,5.9,8.2,0.9c2.1-2.4,4.5-4.6,6-7.3c3.8-6.5,9.4-5.9,16.3-4.9
	c-6.1,7-11.6,13.6-17.4,19.8c-2.5,2.7-2.8,4.4-0.1,7.3c5.9,6.2,11.3,12.8,17.2,19.6c-7.9,1.8-14,0.8-18-6.2c-1.9-3.4-3.7-3.1-6,0
	c-3.2,4.3-6.6,8.3-13,7c-1.9-0.4-2.5-0.8-2.5-2.7c0.1-14.1,0.1-28.3,0-42.4c0-3.8,2.5-2.8,4.4-2.8c2,0.1,5.1-1.3,4.9,2.8
	C476.6,318,476.7,320.9,476.7,324.1z"/>
<path class="st13" d="M391.4,332.9c0.3-2.9-1.4-6.5,3.6-6.1c1.3,0.1,1.1-1.4,1.1-2.3c0.1-1.5-0.3-2.4-2.1-2.7
	c-5.2-0.7-1.8-4.7-2.4-7.1c-0.7-2.9,1.9-2.4,3.6-2.4c4.2,0,8.3,0.1,12.5,0c2.1-0.1,3.4,0.7,2.8,2.8c-0.6,2.2,2.2,5.7-1.9,6.6
	c-1.9,0.4-3,0.6-3,2.9c0,2.2,1.1,2.5,2.8,2.4c3.3-0.2,2.3,2.4,2.1,3.8c-0.3,1.9,2,5.1-2.1,5.3c-2.3,0.1-2.8,1.1-2.7,3.1
	c0.1,3,0,6,0,9c0,1.2-0.1,2.5,1.6,2.6c6.2,0.2,3,4.8,3.1,7.3c0.2,3.6-3.1,1.7-4.9,1.9c-2.6,0.3-5.3,0.1-8,0.1c-6.1,0-7.4-1.6-6-7.6
	c0.1-0.6,0-1.3,0.8-1.6c1.4-0.4,3.7,0.6,3.8-2c0.1-3.8,0-7.6-0.1-11.5c-0.1-1.2-1.3-1.3-2.3-1.3
	C391.3,336.4,391.4,334.9,391.4,332.9z"/>
<path class="st3" d="M328.5,385c-4.7-4.6-5.2-10.2-5-15.9c0.1-1.8,0.9-3,2.7-2.9c2.1,0.1,1.2,1.9,1.4,3.1c0.4,3,0.4,6,1,8.9
	c0.9,4.5,2.8,5,6.6,2.2c3.9-2.9,4.1-7.4,5.3-11.5c0.3-1.1-0.2-3.1,2-2.6c2.1,0.4,1.7,1.9,1.3,3.5c-1.2,4.7-2.1,9.5-5.2,13.3
	C336,386.2,333,388.6,328.5,385z"/>
<path class="st3" d="M496,370.4c1.1,3.1,2.3,5.5,5.1,7.3c2-2.3,2-5.2,2.7-7.8c0.4-1.3,0.4-3.3,2.6-2.8c2.2,0.5,1.1,2.2,0.9,3.2
	c-0.7,4.1-1.9,8.1-3.3,12c-1,2.9-2.1,2.7-4.2,0.9c-4.2-3.6-6.8-8.2-8.6-13.2c-0.4-1.2-1.5-2.9-0.2-3.6c1.4-0.7,3.2,0,4.2,1.7
	C495.5,368.7,495.6,369.4,496,370.4z"/>
<path class="st10" d="M596.2,324c6,1.6,9.1,5,9,10c-0.1,4.5-2,8.2-6.5,9.6c-4.5,1.4-8.6,0.4-11.6-3.5c-2.4-3.2-2.6-6.9-1-10.4
	C588,325.7,591.4,323.9,596.2,324z"/>
<path class="st10" d="M535.3,351.4c-11,3.3-22-7.1-19.2-18.6c0.7-3,1.7-3.1,3.7-1c5.3,5.5,10.7,10.9,16,16.4
	C536.8,349.1,538.7,350.4,535.3,351.4z"/>
<path class="st9" d="M527.9,321.1c14.2-0.5,22.2,9.9,17,21.1c-6.3-6-12.8-12-19.1-18.3C523.8,321.9,526.4,321.7,527.9,321.1z"/>
<path class="st21" d="M431.8,335.8c2.1,2.2,2.2,3.8,0,5.6c-1.5,1.2-2.5,3.1-3.7,4.6c-0.4-0.2-0.8-0.4-1.1-0.7c0-5.1,0-10.1,0-16.1
	C428.7,331.7,430.2,333.6,431.8,335.8z"/>
<path class="st10" d="M373.1,334.7c-2.9,2.3-4.9,2-6.9-0.9c-2.5-3.7-5.3-7.2-8.8-11.8c5.2-0.1,9.6-1,13.8,0.6
	C376.2,324.4,377,329.4,373.1,334.7z"/>
<path class="st8" d="M479.1,345.3c-1,1-1.9,2.5-2.5,0.4c-0.4-1.6-0.1-3.5-0.1-5.9C478.5,341.6,481,342.1,479.1,345.3z"/>
<path class="st16" d="M299.5,341.3c0,6.6,5.8,12,12.9,12v-12H299.5z"/>
<path class="st16" d="M299.5,341.3c0,6.6,5.8,12,12.9,12v-12H299.5z"/>
<path class="st16" d="M330.4,341.3c0,6.6-5.8,12-12.9,12v-12H330.4z"/>
</svg>
