<?xml version="1.0" encoding="utf-8"?>
<!-- Generator: Adobe Illustrator 25.2.1, SVG Export Plug-In . SVG Version: 6.00 Build 0)  -->
<svg version="1.1" id="Layer_1" xmlns="http://www.w3.org/2000/svg" xmlns:xlink="http://www.w3.org/1999/xlink" x="0px" y="0px"
	 viewBox="0 0 1216 405.3" style="enable-background:new 0 0 1216 405.3;" xml:space="preserve">
<style type="text/css">
	.st0{fill:#FFFFFF;stroke:#231F20;stroke-width:6;stroke-miterlimit:10;}
	.st1{fill:none;stroke:#231F20;stroke-width:46;stroke-miterlimit:10;}
	.st2{fill:#231F20;stroke:#231F20;stroke-width:46;stroke-miterlimit:10;}
	.st3{opacity:0.32;enable-background:new    ;}
</style>
<rect x="3" y="3" class="st0" width="210.9" height="397.8"/>
<rect x="213.9" y="3" class="st0" width="210.9" height="397.8"/>
<rect x="425.3" y="3" class="st0" width="210.9" height="397.8"/>
<polyline class="st1" points="214.4,234.3 214.4,23.4 425.3,23.4 425.3,234.3 "/>
<circle class="st2" cx="187.5" cy="234.9" r="26.4"/>
<circle class="st2" cx="398.9" cy="234.9" r="26.4"/>
<g class="st3">
</g>
<g>
	<path d="M756.3,147.9h-51.7V23.3h51.2v16.5h-32.6v36.4h28v16.2h-28v39.1h33V147.9z"/>
	<path d="M831,23.3l-23.9,124.7h-18.5L764.8,23.3h18.7l13.9,85.4c0.1,2.4,0.3,6,0.5,10.7c-0.1-2.4,0.1-6,0.5-10.7l14-85.4H831z"/>
	<path d="M903.1,136.5c0,7.6-3.8,11.4-11.4,11.4h-39.2c-7.4,0-11.1-3.8-11.1-11.4V34.8c0-7.6,3.8-11.5,11.3-11.5h38.9
		c7.6,0,11.4,3.8,11.4,11.5v26.6h-18.7v-22h-24.3v92.6h24.3V97h-13.8V81.2h32.6V136.5z"/>
	<path d="M969.7,147.9H918V23.3h51.2v16.5h-32.6v36.4h28v16.2h-28v39.1h33V147.9z"/>
	<path d="M1045.5,147.9h-16.3l-29.8-78.4c0.8,3.8,1.2,6.8,1.2,9v69.4h-18.1V23.3h16.3l29.8,76.8c-0.8-3.8-1.2-6.8-1.2-9V23.3h18.1
		V147.9z"/>
	<path d="M1123.1,24.1l-16.5,52.1c-2,5.1-4.7,13.8-8.2,26v45.8h-18.7v-45.8c-0.8-4.1-2.1-8.5-3.7-13.1c-2.8-7.9-4.3-12.2-4.5-12.9
		l-16.4-52.1c-0.1-0.1-0.1-0.3,0-0.7h19.2l14.9,54.1l14.8-54.1h19.1C1123.1,23.7,1123.1,24,1123.1,24.1z"/>
</g>
<g>
	<path d="M774.3,297.9c0,7.6-3.8,11.4-11.4,11.4h-39.2c-7.4,0-11.1-3.8-11.1-11.4V196.2c0-7.6,3.8-11.5,11.3-11.5h38.9
		c7.6,0,11.4,3.8,11.4,11.5v26.6h-18.7v-22h-24.3v92.6h24.3v-34.9h-13.8v-15.8h32.6V297.9z"/>
	<path d="M852.9,309.3h-19.4L813,251.4v-11.2h18.3v-39.5h-23.5v108.6h-18.6V184.7h49.4c7.5,0,11.2,3.8,11.2,11.5v45.3
		c0,5.3-1.8,8.6-5.3,10.2c-1.9,0.8-5.9,1.2-12.1,1.2L852.9,309.3z"/>
	<path d="M883.2,309.3h-18.6V184.7h18.6V309.3z"/>
	<path d="M961.6,309.3h-16.3l-29.8-78.4c0.8,3.8,1.2,6.8,1.2,9v69.4h-18.1V184.7h16.3l29.8,76.8c-0.8-3.8-1.2-6.8-1.2-9v-67.8h18.1
		V309.3z"/>
	<path d="M1039.4,309.3h-20.5l-23.6-55.6v55.6h-18.6V184.7h18.6v52.7l20.7-52.7h20.4v0.9l-25.3,59.1L1039.4,309.3z"/>
	<path d="M1109.7,297.9c0,7.6-3.8,11.4-11.3,11.4h-40.4c-7.4,0-11.1-3.8-11.1-11.4V196.2c0-7.6,3.7-11.5,11.1-11.5h40.4
		c7.5,0,11.3,3.8,11.3,11.5V297.9z M1091,293.3v-92.6h-25.5v92.6H1091z"/>
</g>
</svg>
