<?xml version="1.0" encoding="utf-8"?>
<!-- Generator: Adobe Illustrator 25.2.1, SVG Export Plug-In . SVG Version: 6.00 Build 0)  -->
<svg version="1.1" xmlns="http://www.w3.org/2000/svg" xmlns:xlink="http://www.w3.org/1999/xlink" x="0px" y="0px"
	 viewBox="0 0 2186.4 494.4" style="enable-background:new 0 0 2186.4 494.4;" xml:space="preserve">
<style type="text/css">
	.st0{fill:#231F20;}
</style>
<g id="BACKGROUND">
</g>
<g id="OBJECTS">
	<g>
		<path d="M682,241.7c-4.8-2.1-8.7-4.2-12-6.1c-2.5-1.4-4.9-3-6.9-4.8c-0.2-0.1-0.4-0.3-0.6-0.5l0,0c-1.1-1.1-2.1-2.3-2.8-3.7
			c-1.9-3.4-3.1-6.9-3.9-10.5l-2.5,0l-0.2,167c-12.2-7.4-34.4-7.2-54.9,1.2c-25.1,10.3-38.2,29.1-29.3,42c8.9,12.9,36.4,15,61.4,4.7
			c19.4-8,31.6-21,32-32.5l0.1,0l0.1-114.9c12.7,8,33.1,13.7,40.8,23.9c9.6,12.6,3.5,31.4,3.5,31.4c10.7-20,9.9-33.1,3.4-42.5
			C724.9,262.9,703.7,251.2,682,241.7z M625.2,423.5c-19.4,8-44.4,12.3-51.3,2.4c-6.9-10,11.4-24.2,30.9-32.2
			c19.5-8,41.5-10.6,48.3-0.6C660,403,644.7,415.5,625.2,423.5z M682,277.3c-9.2-4-15.3-7.9-19.5-11.4l0-17.8
			c12.7,8.1,33.1,13.7,40.8,23.9c5.3,7,5.8,15.8,5.2,22.3C702.3,286.7,692.2,281.7,682,277.3z"/>
	</g>
	<g>
		<path d="M1633.7,91.3c-0.7-21.3-15.9-24.6-30.7-26.4c-3.3-0.4-6-1-8.4-1.6c-1.8-0.4-3.6-0.9-5.2-1.6c-0.1-0.1-0.3-0.1-0.5-0.2l0,0
			c-0.9-0.4-1.8-1-2.6-1.6c-2-1.6-3.6-3.4-5-5.3l-1.4,0.4l44.7,94.4c-8.9-2.2-21.4,1.4-30.7,9.5c-11.4,9.8-13.8,22.6-5.3,28.4
			c8.5,5.9,24.6,2.6,36-7.2c8.8-7.6,12.2-16.9,9.4-23.5l0,0l-21.8-46.1c8.7,2.9,22,2.5,29.1,7c8.2,5.2,9.7,16,9.7,16
			c0.6-11.3-2.6-17.9-7.7-21.9C1642.9,101.2,1639.1,95.1,1633.7,91.3z M1619.7,176.7c-8.8,7.6-21.8,14.1-28.4,9.6
			c-6.6-4.5,0-15.5,8.8-23.1c8.8-7.6,20.6-12.6,27.1-8.1C1633.8,159.6,1628.5,169.1,1619.7,176.7z M1593.7,71.6
			c9.3,2.5,22.4,2.5,29.5,7c4.9,3.1,7.5,8,9,11.8c-5.6-3.3-12.6-4.5-19.6-5.3c-6.3-0.8-10.8-2-14.1-3.3L1593.7,71.6z M1641.7,110.5
			c-0.2-0.1-0.4-0.3-0.6-0.4c0-0.1,0-0.1,0-0.2c-0.3-0.2-0.6-0.4-0.9-0.6c0,0.1,0.1,0.2,0.1,0.3c-5.1-2.9-11.5-4-17.9-4.8
			c-7.1-0.9-11.8-2.4-14.9-3.9l-4.4-9.3c9.3,2.5,22.4,2.5,29.5,7C1637.6,101.7,1640.3,106.7,1641.7,110.5z"/>
	</g>
	<g>
		<path d="M1853.2,140.2c-4.3-6.1-17.4-7-29.3-1.9c-9.2,3.9-14.9,10.2-15,15.6l0,0l1.4,86.9l4.4,0l-1.3-79.6
			c5.9,3.4,16.4,3.3,26.2-0.8C1851.5,155.4,1857.6,146.3,1853.2,140.2z"/>
	</g>
	<g>
		<path d="M204.7,243.9c-11.2-7.9-25.3-10.9-40.7-9.1c4.4-26.9,8.6-52.2,11.8-71.3c30-15.4,51.1-26.4,72.7-58.3
			c29.1-43.1-8.5-75.7-8.5-75.7l-1.7,0.6c-2.5,0.9-60.2,23.1-68.7,115.2c-0.1,0.8-0.2,1.6-0.2,2.4c-12.5,7.6-26.5,15.3-41.8,22.8
			c-72.1,35.4-111.3,81-105,122c4.8,31.3,37,52.2,79.8,52c0.7,0.1,16.4,1.3,36.4-1.2c-6.6,35.4-11.7,60.1-11.8,60.8
			c0,0.3-4.7,35.2-47.2,43.6c-23.5,4.6-43.6-0.2-55.6-11.6c-13-12.2-1.5-37.6-2.3-32.6c-2.4,14.8,10,26.4,27.8,25.9
			c17.8-0.5,34.1-12.9,36.6-27.7c2.2-13.2-7.5-23.8-22.2-25.6c-16.5-2.7-37.6,3.8-47.4,22.1c-8.1,15.2-6.9,30.1,3.4,40.9
			c9.6,10,25.2,15.1,43.5,14.6c5.4-0.2,10.9-0.8,16.7-1.9c10.4-2.1,18.7-5.6,25.3-9.8c-0.1,0-0.1,0.1-0.1,0.1
			c29.1-16.4,31.4-40,31.4-40s4.1-25,9.7-59.9c0.1,0,0.2,0,0.3-0.1c31.9-5.3,55.2-18,67.6-36.9C228.7,283.3,224.7,258.1,204.7,243.9
			z M181.3,131.3c4.7-25.4,15.1-41.4,18.1-45.6c18.3-22.4,39.3-34.1,45-37c1.7,6.7,2,15.4-1.5,25.8c-7.2,21.5-28.9,44.2-63.4,66.8
			C180.3,136.9,180.9,133.5,181.3,131.3z M139.8,337.6c-6.3,1.3-12.6,2.3-18.7,2.9c-10.4,0.4-17.4-0.2-17.7-0.2
			c-20.1-1.3-39.2-3.1-51.3-16.4c-9.1-9.9-13.4-25-12.7-38.7c0.1,0.3,0.2,0.4,0.2,0.4c1.4-44.1,50.5-74.2,101-103.3
			c9.6-5.5,18.4-10.2,26.6-14.4c-2.5,20.9-5.9,44.2-9.6,67.8c-10.3,2-21,6.2-31.7,12.3c-0.4,0.2-41.1,23.5-21.5,54.4
			c0,0,7.6,9.3,25.3,8c0,0-23.5-9-12.2-35.8c5-12,20.7-19.2,37-20.1C149.6,284.1,144.3,313.1,139.8,337.6z M147.5,335.7
			c4-24.5,8.6-53.1,13.2-81.1c18.2,0.9,35.7,10.2,38.6,30.3C203.1,310.6,177.3,327.7,147.5,335.7z"/>
	</g>
	<g>
		<g>
			<path d="M1886.9,189.8c-5.8-2.5-9-5-10.9-6.9c-1.6-1.6-2.8-3.3-3.4-5.3l-2.2,0l-0.1,79.6c-5.8-3.5-16.4-3.5-26.2,0.6
				c-11.9,4.9-18.2,13.9-14,20c4.2,6.1,17.3,7.1,29.3,2.2c9.2-3.8,15-10,15.3-15.5l0,0l0.1-73.9c5.2,5.1,17.9,7.9,22.3,13.6
				c4.6,6,1.7,15,1.7,15C1908.7,200.6,1897.9,194.6,1886.9,189.8z"/>
		</g>
		<g>
			<rect x="1812.6" y="267.9" width="77.4" height="3.8"/>
		</g>
	</g>
	<g>
		<path d="M1558.9,50.4L1558.9,50.4L1558.9,50.4L1348.1,7l-3,8.7l0,0l-3.4,9.9l0,0l-1.8,5.1l0,0l-16.8,48.9
			c-4.2-4.3-13.9-6.2-24.1-4.4c-12.4,2.3-21,9.3-19,15.7c1.9,6.4,13.6,9.8,26,7.5c9.6-1.7,16.9-6.3,18.8-11.3l0,0l19.2-55.6
			l64.9,13.4L1392,93.9c-4.2-4.3-13.9-6.2-24.1-4.4c-12.5,2.2-21,9.3-19,15.7c1.9,6.4,13.6,9.8,26.1,7.5c9.6-1.7,16.9-6.3,18.8-11.3
			l0,0l19.2-55.6l64.9,13.4l-16.8,48.9c-4.2-4.3-13.9-6.2-24.1-4.4c-12.4,2.3-21,9.3-19,15.7c1.9,6.4,13.6,9.8,26,7.5
			c9.6-1.7,16.9-6.3,18.8-11.3l0,0l19.1-55.6l64.9,13.4l-16.8,48.9c-4.2-4.3-13.9-6.2-24.1-4.4c-12.4,2.3-21,9.3-19,15.7
			c1.9,6.4,13.6,9.8,26,7.5c9.6-1.7,16.9-6.3,18.8-11.3l0,0L1558.9,50.4z M1345.7,26.5l3.4-9.9l64.9,13.4l-3.4,9.9L1345.7,26.5z
			 M1414.6,40.7l3.4-9.9l64.9,13.4l-3.4,9.9L1414.6,40.7z M1483.6,54.9l3.4-9.9l64.9,13.4l-3.4,9.9L1483.6,54.9z"/>
	</g>
	<g>
		<path d="M982.4,107.7L982.4,107.7L982.4,107.7L781,162.8l5.9,12.8l0,0l6.7,14.5l0,0l3.1,6.7l0,0l33.2,72.5
			c-9.7-2.6-23.3,1.2-33.6,10.1c-12.5,10.8-15,25-5.8,31.7c9.3,6.7,26.8,3.4,39.3-7.5c9.6-8.4,13.3-18.7,10.3-26.1l0,0l-37.7-82.3
			l92.1-25.2l33.2,72.5c-9.7-2.6-23.4,1.2-33.6,10.1c-12.4,10.8-15,25-5.8,31.7c9.3,6.7,26.8,3.4,39.3-7.5
			c9.6-8.4,13.3-18.7,10.3-26.1l0,0l-37.7-82.3l92.1-25.2l33.2,72.5c-9.7-2.6-23.4,1.2-33.6,10.1c-12.4,10.8-15,25-5.8,31.7
			c9.2,6.7,26.8,3.4,39.3-7.5c9.6-8.4,13.3-18.7,10.3-26.1l0,0L982.4,107.7z M799.3,188.6l-6.7-14.5l92.1-25.2l6.7,14.5L799.3,188.6
			z M897.1,161.8l-6.7-14.5l92.1-25.2l6.7,14.5L897.1,161.8z"/>
	</g>
	<g>
		<path d="M1773.2,123L1773.2,123L1773.2,123l-79.3-0.1l0,9.5l0,0l0,10.5l0,0l0,5l0,0l-0.1,54c-5.8-3.5-16.3-3.4-26,0.6
			c-11.8,4.9-18.1,13.8-13.9,19.8c4.2,6.1,17.2,7.1,29,2.2c9.2-3.8,14.9-9.9,15.1-15.3l0,0l0.1-61.2l70.5,0.1l-0.1,54
			c-5.8-3.5-16.3-3.4-26,0.6c-11.8,4.9-18.1,13.8-13.9,19.8c4.2,6.1,17.2,7.1,29,2.2c9.2-3.8,14.9-9.9,15.1-15.3l0,0L1773.2,123z
			 M1698.3,142.9l0-10.5l70.5,0.1l0,10.5L1698.3,142.9z"/>
	</g>
	<g>
		<path d="M1279.7,120.2L1279.7,120.2L1279.7,120.2l-122.2,15.9l-3.9,19.5l0,0l-3.4,17.3l0,0l-1.9,9.6l0,0l-13.5,68
			c-7.5-6.1-22.9-7.8-38.3-3.6c-18.8,5.1-30.5,17.1-26.1,26.7c4.4,9.7,23.2,13.3,42,8.2c14.5-3.9,24.8-12,26.7-19.9l0,0l15.9-80.3
			l108.7-14.2l-13.4,67.9c-7.5-6.1-22.9-7.8-38.3-3.6c-18.8,5.1-30.5,17.1-26.1,26.7c4.4,9.7,23.2,13.4,42,8.2
			c14.5-3.9,24.8-12,26.7-19.9l0,0L1279.7,120.2z M1157,172l3.4-17.3l108.7-14.2l-3.4,17.3L1157,172z"/>
	</g>
	<g>
		<path d="M2108.3,168.6L2108.3,168.6L2108.3,168.6l-79.3,20.2l0,13.3l0,0l0,11.8l0,0l0,6.6l0,0l-0.1,46.3c-5.8-3.5-16.3-3.4-26,0.6
			c-11.8,4.9-18.1,13.8-13.9,19.8c4.2,6.1,17.2,7.1,29,2.2c9.2-3.8,14.9-9.9,15.1-15.3l0,0l0.1-54.7l70.5-18l-0.1,46.3
			c-5.8-3.5-16.3-3.4-26,0.6c-11.9,4.9-18.1,13.8-13.9,19.8c4.2,6.1,17.2,7.1,29,2.2c9.2-3.8,14.9-9.9,15.1-15.3l0,0L2108.3,168.6z
			 M2033.3,212.7l0-11.8l70.5-18l0,11.8L2033.3,212.7z"/>
	</g>
	<g>
		<path d="M502.1,175.7c-7.9-11.5-32.6-13.4-55-4.2c-17.4,7.1-28.3,18.8-28.7,29.1l-0.1,0l-0.1,108l-133.7,34.1l0.1-91.9
			c10.9,6.6,30.8,6.5,49.3-1.1c22.5-9.2,34.2-26.1,26.3-37.6c-7.9-11.5-32.6-13.4-55.1-4.2c-17.4,7.1-28.3,18.8-28.7,29.1l0,0
			l-0.2,163.4l0.1-0.1l0,0.2l150.2-38.4l0-25.2l0,0l0-18.1h0l0-12.4l0,0l0.1-92.1c10.9,6.6,30.8,6.5,49.3-1.1
			C498.3,204,510.1,187.2,502.1,175.7z M418.1,339l-133.7,34.1l0-18.1L418.2,321L418.1,339z"/>
	</g>
	<g>
		<path d="M2046.9,76c-4.2-6.1-17.2-7.1-29-2.2c-9.2,3.8-14.9,9.9-15.1,15.3l0,0l-0.1,57l-70.5,18l0.1-48.5c5.8,3.5,16.3,3.4,26-0.6
			c11.8-4.9,18-13.8,13.9-19.8c-4.2-6.1-17.2-7.1-29-2.2c-9.2,3.8-14.9,9.9-15.1,15.3l0,0l-0.1,86.2l0,0l0,0.1l79.2-20.2l0-13.3l0,0
			l0-9.5l0,0l0-6.6l0,0l0.1-48.6c5.8,3.5,16.3,3.4,26-0.6C2044.8,90.9,2051.1,82.1,2046.9,76z M2002.6,162.1l-70.5,18l0-9.5l70.5-18
			L2002.6,162.1z"/>
	</g>
	<path class="st0" d="M2162.6,91.9c-1.6-0.8-3.2-1.5-5.1-2.1c-1.8-0.6-3.8-1.1-5.8-1.5c-2.1-0.4-4.3-0.7-6.6-1
		c-2.3-0.2-4.8-0.4-7.3-0.4c-5.8-0.1-12.1,0.3-19,1.1c-6.9,0.8-14.4,2.2-22.3,4c-8,1.8-16.4,4.1-25.4,6.9c-8.9,2.8-18.3,6-28,9.8
		c-5.1,2-10.3,4-15.5,6.1c-5.2,2.1-10.4,4.3-15.6,6.5c-5.2,2.2-10.4,4.4-15.5,6.7c-5.2,2.2-10.3,4.5-15.4,6.7
		c-7.8,3.4-15.7,6.9-23.7,10.3c-8,3.4-16,6.8-24,10.1c-8,3.3-16.1,6.4-24.1,9.3c-8.1,3-16.1,5.7-24.2,8.2c-8,2.5-16,4.7-23.9,6.6
		c-8,1.9-15.9,3.6-23.8,5c-7.9,1.4-15.8,2.5-23.6,3.4c-7.8,0.8-15.6,1.4-23.2,1.7c-4.5,0.2-8.9,0.2-13.3,0.2
		c-4.4,0-8.8-0.2-13.1-0.4c-4.3-0.3-8.6-0.6-12.9-1.1c-4.3-0.5-8.5-1-12.6-1.7c-12.1-2-23.5-4.9-34.6-8.5
		c-11.2-3.7-22.1-8.1-32.6-13c-10.8-5-21.4-10.6-31.9-16.5c-10.7-6-21.4-12.3-32.3-18.8c-3-1.8-6.1-3.6-9.2-5.5
		c-3.1-1.9-6.3-3.7-9.5-5.6c-3.2-1.9-6.5-3.8-9.8-5.6c-3.3-1.9-6.7-3.8-10-5.6c-15.9-8.8-32-16.7-48.3-23.7
		c-16.8-7.2-33.8-13.3-51-18.5c-17.6-5.2-35.3-9.3-53.1-12.3c-18.1-3-36.3-4.8-54.5-5.3l-2.4-3.5c18.1,0.5,36.2,2.3,54.2,5.3
		c17.7,3,35.3,7.1,52.8,12.3c17.1,5.1,34,11.3,50.8,18.5c16.3,7,32.4,14.9,48.2,23.7c3.4,1.9,6.7,3.8,10,5.6
		c3.3,1.9,6.5,3.8,9.8,5.7c3.2,1.9,6.4,3.7,9.5,5.6c3.1,1.8,6.2,3.7,9.2,5.5c10.8,6.4,21.5,12.8,32.2,18.8
		c10.5,5.9,21,11.5,31.8,16.5c10.6,4.9,21.4,9.3,32.6,13c11,3.6,22.5,6.5,34.5,8.6c4.1,0.7,8.3,1.3,12.6,1.8
		c4.2,0.5,8.5,0.8,12.8,1.1c4.3,0.3,8.7,0.4,13.1,0.5c4.4,0.1,8.8,0,13.3-0.1c7.6-0.3,15.3-0.8,23.1-1.6c7.8-0.8,15.6-1.9,23.5-3.3
		c7.9-1.4,15.8-3,23.7-4.9c7.9-1.9,15.9-4.1,23.9-6.6c8-2.5,16.1-5.2,24.1-8.1c8-2.9,16-6.1,24-9.3c8-3.2,15.9-6.6,23.9-10
		c7.9-3.4,15.8-6.8,23.6-10.3c5.1-2.2,10.2-4.5,15.3-6.7c5.1-2.2,10.3-4.5,15.5-6.6c5.2-2.2,10.3-4.3,15.5-6.4
		c5.2-2.1,10.3-4.1,15.4-6.1c9.7-3.7,19-7,27.9-9.7c8.9-2.8,17.3-5,25.3-6.8c7.9-1.8,15.4-3.1,22.3-3.9c6.9-0.8,13.2-1.2,18.9-1.1
		c2.6,0,5,0.2,7.3,0.4c2.3,0.2,4.5,0.6,6.6,1c2.1,0.4,4,0.9,5.8,1.5c1.8,0.6,3.5,1.3,5.1,2.1L2162.6,91.9L2162.6,91.9z"/>
	<path class="st0" d="M2215.8,118.4c-1.5-0.8-3.2-1.4-5-2c-1.8-0.6-3.7-1.1-5.8-1.5c-2.1-0.4-4.3-0.7-6.6-0.9
		c-2.3-0.2-4.8-0.3-7.4-0.3c-5.8,0-12.3,0.5-19.3,1.4c-7.1,1-14.7,2.4-22.9,4.4c-8.2,2-17,4.4-26.2,7.4c-9.3,3-19,6.4-29.2,10.4
		c-5.3,2.1-10.7,4.2-16.1,6.5c-5.4,2.2-10.8,4.5-16.2,6.8c-5.4,2.3-10.8,4.7-16.2,7c-5.4,2.4-10.8,4.7-16.1,7.1
		c-8.2,3.6-16.4,7.2-24.8,10.8c-8.3,3.6-16.7,7.2-25,10.6c-8.4,3.4-16.8,6.8-25.2,9.9c-8.4,3.1-16.8,6.1-25.2,8.7
		c-8.3,2.6-16.6,5-24.9,7.1c-8.3,2.1-16.5,3.9-24.6,5.5c-8.2,1.6-16.3,2.8-24.3,3.8c-8.1,1-16.1,1.7-23.9,2.1
		c-4.6,0.2-9.2,0.4-13.7,0.4c-4.5,0-9,0-13.5-0.2c-4.5-0.2-8.9-0.5-13.2-0.8c-4.4-0.4-8.7-0.9-12.9-1.5c-12.4-1.8-24.1-4.5-35.3-8
		c-11.5-3.5-22.5-7.8-33.2-12.6c-11-4.9-21.7-10.4-32.4-16.2c-10.9-5.9-21.8-12.2-32.9-18.6c-3.1-1.8-6.2-3.6-9.4-5.4
		c-3.2-1.8-6.4-3.7-9.7-5.6c-3.3-1.9-6.6-3.7-10-5.6c-3.4-1.9-6.8-3.8-10.3-5.6c-16.3-8.7-32.9-16.6-49.8-23.5
		c-17.4-7.1-35.1-13.2-53-18.2c-18.4-5.1-36.9-9.1-55.6-11.9c-19.1-2.8-38.3-4.4-57.5-4.6l-2.8-4.1c19.1,0.3,38.2,1.9,57.2,4.7
		c18.6,2.8,37.1,6.8,55.4,11.9c17.8,5,35.5,11.1,52.8,18.2c16.9,6.9,33.4,14.8,49.7,23.6c3.5,1.9,6.9,3.7,10.3,5.6
		c3.4,1.9,6.7,3.7,10,5.6c3.3,1.9,6.5,3.7,9.7,5.6c3.2,1.8,6.3,3.6,9.4,5.4c11,6.4,21.9,12.7,32.8,18.6
		c10.7,5.8,21.4,11.3,32.4,16.2c10.7,4.8,21.7,9.1,33.2,12.6c11.2,3.5,22.9,6.2,35.2,8c4.2,0.6,8.5,1.1,12.9,1.5
		c4.3,0.4,8.7,0.7,13.2,0.9c4.4,0.2,8.9,0.3,13.4,0.2c4.5,0,9.1-0.2,13.7-0.4c7.8-0.4,15.8-1.1,23.8-2.1c8-1,16.1-2.2,24.3-3.8
		c8.1-1.5,16.3-3.3,24.6-5.4c8.2-2.1,16.5-4.4,24.8-7.1c8.3-2.6,16.7-5.6,25.1-8.7c8.4-3.1,16.7-6.4,25.1-9.8
		c8.3-3.4,16.7-6.9,24.9-10.5c8.3-3.6,16.5-7.2,24.6-10.8c5.3-2.3,10.7-4.7,16-7c5.4-2.3,10.8-4.7,16.2-7c5.4-2.3,10.8-4.6,16.2-6.8
		c5.4-2.2,10.7-4.4,16-6.4c10.1-3.9,19.8-7.4,29-10.3c9.2-2.9,17.9-5.4,26.1-7.3c8.2-1.9,15.8-3.4,22.9-4.4c7-1,13.5-1.4,19.3-1.4
		c2.6,0,5,0.1,7.4,0.3c2.3,0.2,4.5,0.5,6.6,0.9c2.1,0.4,4,0.9,5.8,1.5c1.8,0.6,3.5,1.3,5,2L2215.8,118.4L2215.8,118.4z"/>
	<path class="st0" d="M2273.9,147.5c-4.3-1.8-9.6-4-19.7-4.2c-48-1-113.5,28-176.7,56c-58.7,26-114.1,50.6-181.1,59.5
		c-96,12.8-147.8-16.1-213.3-52.6c-51.6-28.8-137.9-76.9-264.6-76.9l-3.2-4.7c20.3-0.1,40.5,1.2,60.5,3.8c19.6,2.5,39,6.3,58.1,11.3
		c18.6,4.8,36.9,10.8,54.9,17.8c17.4,6.8,34.5,14.5,51.1,23.2c3.5,1.8,7,3.7,10.5,5.5c3.4,1.8,6.8,3.7,10.2,5.5
		c3.3,1.8,6.6,3.7,9.9,5.5c3.2,1.8,6.4,3.6,9.5,5.3c11.2,6.3,22.2,12.4,33.3,18.3c10.8,5.7,21.7,11,32.8,15.7
		c10.9,4.6,22.1,8.7,33.7,12.1c11.4,3.3,23.3,5.8,36,7.3c4.3,0.5,8.7,1,13.2,1.3c4.4,0.3,8.9,0.5,13.5,0.6c4.5,0.1,9.1,0.1,13.8-0.1
		c4.6-0.1,9.3-0.4,14-0.7c8.1-0.6,16.3-1.4,24.6-2.6c8.3-1.2,16.6-2.6,25.1-4.3c8.4-1.7,16.9-3.7,25.5-6c8.5-2.3,17.1-4.8,25.7-7.6
		c8.7-2.8,17.4-5.9,26.2-9.3c8.7-3.3,17.5-6.8,26.2-10.4c8.7-3.6,17.4-7.3,26.1-11.1c8.7-3.8,17.3-7.6,25.8-11.4
		c5.6-2.5,11.2-4.9,16.8-7.4c5.6-2.5,11.3-4.9,16.9-7.4c5.6-2.4,11.3-4.8,16.9-7.2c5.6-2.3,11.2-4.6,16.8-6.8
		c10.5-4.2,20.6-7.8,30.2-11c9.5-3.1,18.6-5.8,27-7.9c8.4-2.1,16.3-3.7,23.5-4.8c7.2-1.1,13.7-1.7,19.6-1.8c2.6,0,5.1,0,7.4,0.2
		c2.3,0.2,4.5,0.4,6.6,0.8c2.1,0.4,4,0.8,5.8,1.4c1.8,0.5,3.4,1.2,4.9,1.9L2273.9,147.5L2273.9,147.5z"/>
	<path class="st0" d="M2338,179.5c-1.4-0.7-3-1.3-4.7-1.8c-1.7-0.5-3.6-0.9-5.7-1.2c-2-0.3-4.2-0.5-6.6-0.6c-2.3-0.1-4.8-0.1-7.5,0
		c-6,0.2-12.6,1-20,2.3c-7.4,1.3-15.5,3.1-24.2,5.4c-8.8,2.3-18.2,5.2-28.1,8.6c-10,3.4-20.6,7.3-31.6,11.8
		c-5.8,2.3-11.7,4.8-17.6,7.3c-5.9,2.5-11.9,5-17.8,7.6c-6,2.6-11.9,5.2-17.8,7.8c-5.9,2.6-11.8,5.3-17.7,7.9
		c-9,4-18.1,8.1-27.2,12.1c-9.1,4-18.3,8-27.5,11.8c-9.2,3.9-18.4,7.6-27.5,11.1c-9.2,3.5-18.3,6.9-27.4,10c-9,3.1-18,5.8-26.9,8.4
		c-8.9,2.5-17.8,4.8-26.5,6.7c-8.8,2-17.5,3.7-26,5.1c-8.6,1.4-17.1,2.5-25.4,3.3c-4.9,0.5-9.7,0.8-14.5,1.1
		c-4.8,0.3-9.5,0.4-14.2,0.5c-4.7,0-9.3,0-13.9-0.2c-4.6-0.2-9.1-0.5-13.5-0.9c-12.9-1.2-25.1-3.4-36.7-6.3
		c-11.9-3-23.2-6.8-34.2-11.2c-11.3-4.5-22.2-9.5-33.2-15c-11.2-5.6-22.4-11.5-33.7-17.6c-3.2-1.7-6.4-3.4-9.7-5.2
		c-3.3-1.8-6.7-3.5-10-5.3c-3.4-1.8-6.9-3.6-10.4-5.4c-3.5-1.8-7.1-3.6-10.7-5.4c-17-8.4-34.6-15.9-52.6-22.3
		c-18.6-6.7-37.8-12.3-57.3-16.8c-20.1-4.6-40.6-8-61.4-10.2c-21.3-2.2-42.9-3-64.6-2.4l-3.8-5.5c21.6-0.5,43.1,0.3,64.2,2.6
		c20.7,2.2,41.1,5.6,61.1,10.3c19.5,4.5,38.5,10.2,57.1,17c18,6.5,35.5,14,52.5,22.4c3.6,1.8,7.2,3.6,10.7,5.4
		c3.5,1.8,7,3.6,10.4,5.4c3.4,1.8,6.7,3.6,10,5.3c3.3,1.7,6.5,3.5,9.7,5.2c11.3,6.1,22.5,12.1,33.7,17.7
		c10.9,5.5,21.9,10.6,33.1,15.1c11,4.4,22.3,8.2,34.1,11.3c11.6,3,23.7,5.2,36.6,6.4c4.4,0.4,8.9,0.7,13.5,0.9
		c4.5,0.2,9.2,0.3,13.8,0.2c4.7,0,9.4-0.2,14.2-0.4c4.8-0.2,9.6-0.6,14.4-1.1c8.3-0.8,16.7-1.9,25.3-3.3c8.5-1.4,17.2-3,25.9-5
		c8.7-1.9,17.5-4.2,26.4-6.7c8.8-2.5,17.8-5.2,26.8-8.3c9.1-3.1,18.2-6.4,27.3-9.9c9.1-3.5,18.3-7.2,27.4-11.1
		c9.1-3.8,18.3-7.8,27.4-11.8c9.1-4,18.1-8,27.1-12c5.8-2.6,11.7-5.2,17.6-7.8c5.9-2.6,11.8-5.2,17.7-7.8c5.9-2.6,11.8-5.1,17.7-7.6
		c5.9-2.5,11.7-4.9,17.5-7.2c11-4.4,21.5-8.3,31.5-11.7c9.9-3.4,19.3-6.2,28-8.6c8.7-2.3,16.8-4.1,24.1-5.4c7.3-1.3,14-2,20-2.2
		c2.6-0.1,5.1-0.1,7.5,0c2.3,0.1,4.5,0.3,6.6,0.6c2,0.3,3.9,0.7,5.7,1.2c1.7,0.5,3.3,1.1,4.7,1.8L2338,179.5L2338,179.5z"/>
	<path class="st0" d="M1359.6,43.8c-5.5-0.2-11-0.2-16.5-0.1c-5.5,0.1-11,0.3-16.5,0.6c-5.5,0.3-11,0.7-16.6,1.3
		c-5.5,0.5-11,1.2-16.5,2c-20.7,3-40.8,7.5-60.3,13.4c-19.6,5.8-38.6,12.9-57.1,20.7c-18.5,7.8-36.4,16.4-54,25.3
		c-17.5,8.9-34.7,18.1-51.7,27.2c-12.2,6.5-24.4,13.1-36.8,19.6c-12.4,6.5-25,12.9-37.9,19c-12.9,6.2-26,12.1-39.6,17.7
		c-13.6,5.6-27.6,10.8-42.2,15.6c-14.9,4.9-30.3,9.2-46.3,13c-16.1,3.9-32.7,7.2-49.9,10c-17.3,2.9-35.1,5.2-53.3,7
		c-18.4,1.8-37.3,3.1-56.6,3.9c-15.6,0.6-31.4,0.9-47.5,0.7c-16.3-0.1-32.8-0.6-49.5-1.5c-16.9-0.9-34.1-2.2-51.4-3.9
		c-17.6-1.7-35.3-3.9-53.2-6.5c-41.3-6-83.1-14.3-124.7-24.7c-43.2-10.8-86.4-24-128.7-39.4c-44.2-16.1-87.5-34.6-129-55.3
		C80.4,87.8,39,63.7,1,37.4l-9.9,5.3c38.6,26.4,80.6,50.6,124.6,72.4c42,20.8,85.9,39.3,130.6,55.4c42.8,15.4,86.4,28.6,130.1,39.4
		c42,10.4,84.2,18.6,125.9,24.5c18.1,2.6,36,4.7,53.7,6.4c17.5,1.7,34.8,2.9,51.8,3.8c16.9,0.9,33.5,1.3,49.9,1.4
		c16.2,0.1,32.2-0.2,47.9-0.8c19.5-0.8,38.5-2.1,57.1-4c18.4-1.9,36.3-4.2,53.7-7.1c17.3-2.9,34-6.3,50.2-10.2
		c16.1-3.9,31.7-8.3,46.6-13.2c14.7-4.8,28.8-10.1,42.5-15.7c13.7-5.6,26.9-11.6,39.9-17.8c13-6.2,25.6-12.6,38.1-19.2
		c12.5-6.5,24.8-13.1,37.1-19.7c17.1-9.2,34.4-18.5,52-27.4c17.7-9,35.7-17.6,54.4-25.5c18.6-7.9,37.7-15,57.5-20.9
		c19.6-5.9,39.8-10.5,60.7-13.5c5.5-0.8,11.1-1.5,16.6-2c5.5-0.6,11.1-1,16.6-1.3c5.5-0.3,11.1-0.5,16.6-0.6
		c5.5-0.1,11.1,0,16.6,0.1L1359.6,43.8L1359.6,43.8z"/>
	<path class="st0" d="M1385.5,81.4c-5.8-0.1-11.7-0.1-17.5,0.1c-5.9,0.2-11.7,0.4-17.6,0.8c-5.9,0.4-11.7,0.9-17.6,1.6
		c-5.9,0.7-11.7,1.4-17.6,2.3c-22.1,3.4-43.5,8.5-64.4,14.8c-21,6.4-41.3,14-61.1,22.4c-19.8,8.4-39.1,17.6-57.9,27.2
		c-18.8,9.5-37.2,19.4-55.5,29.1c-13,7-26.2,14-39.5,20.9c-13.3,6.9-26.8,13.8-40.6,20.4c-13.8,6.6-27.9,13-42.5,19
		c-14.6,6-29.6,11.7-45.3,16.9c-16,5.3-32.6,10.1-49.8,14.4c-17.3,4.3-35.2,8.1-53.7,11.4c-18.6,3.3-37.8,6.1-57.5,8.4
		c-19.9,2.3-40.4,4-61.3,5.2c-16.9,1-34.1,1.6-51.6,1.8c-17.7,0.2-35.7,0.1-53.9-0.5c-18.5-0.6-37.3-1.5-56.2-2.9
		c-19.3-1.4-38.8-3.3-58.5-5.6c-45.6-5.3-91.9-13.1-138.2-23.1c-48.3-10.5-96.9-23.4-144.7-38.8c-50.2-16.1-99.8-34.9-147.6-56.1
		c-50.3-22.3-98.7-47.5-143.6-75l-12.3,6.6c45.7,27.7,94.9,52.9,146,75.3c48.5,21.3,98.8,40.1,149.7,56.1
		c48.5,15.3,97.6,28.3,146.5,38.7c46.8,10,93.6,17.6,139.7,22.9c19.9,2.3,39.6,4.1,59.1,5.5c19.2,1.4,38.1,2.3,56.8,2.8
		c18.4,0.5,36.6,0.6,54.4,0.4c17.6-0.3,35-0.9,52-1.9c21.1-1.2,41.7-3,61.8-5.4c19.9-2.3,39.2-5.2,58-8.5
		c18.6-3.3,36.7-7.2,54.1-11.5c17.3-4.3,34.1-9.2,50.1-14.5c15.8-5.2,30.9-11,45.6-17.1c14.7-6.1,28.9-12.5,42.8-19.2
		c13.9-6.7,27.5-13.5,40.9-20.5c13.4-7,26.6-14.1,39.8-21.1c18.4-9.8,36.9-19.7,55.9-29.3c19-9.6,38.4-18.9,58.4-27.4
		c20-8.5,40.4-16.2,61.6-22.6c21-6.4,42.6-11.6,64.8-15c5.9-0.9,11.8-1.7,17.7-2.4c5.9-0.7,11.8-1.2,17.7-1.6
		c5.9-0.4,11.8-0.7,17.7-0.9c5.9-0.2,11.7-0.2,17.6-0.1L1385.5,81.4L1385.5,81.4z"/>
	<path class="st0" d="M1415.2,124.7c-6.2,0-12.4,0.2-18.6,0.4c-6.2,0.3-12.5,0.7-18.7,1.2c-6.3,0.5-12.5,1.2-18.8,2
		c-6.3,0.8-12.6,1.7-18.8,2.7c-23.6,3.9-46.6,9.6-69.1,16.6c-22.6,7-44.5,15.3-65.8,24.5c-21.4,9.1-42.2,19.1-62.5,29.4
		c-20.3,10.3-40.2,20.8-59.8,31.3c-14.1,7.5-28.2,15-42.6,22.5c-14.4,7.4-28.9,14.8-43.8,21.9c-14.9,7.1-30.1,14-45.8,20.6
		c-15.7,6.6-32,12.8-48.8,18.5c-17.2,5.8-35.2,11.2-53.8,16c-18.7,4.9-38.1,9.2-58.1,13c-20.2,3.9-41.1,7.2-62.5,10.1
		c-21.7,2.9-44,5.2-66.8,6.9c-18.5,1.4-37.3,2.5-56.4,3.2c-19.4,0.7-39.2,1-59.2,0.9c-20.4-0.1-41.1-0.6-62.1-1.6
		c-21.3-1-43-2.4-64.9-4.3c-50.9-4.4-102.7-11.2-154.9-20.5c-54.7-9.7-110-22.1-164.9-37.1c-57.9-15.8-115.6-34.5-171.7-56
		c-59.4-22.7-117.1-48.6-171.4-77.4l-15.5,8.3c55.3,28.9,114.2,54.8,174.6,77.6c57.1,21.5,115.7,40.2,174.5,55.9
		c55.7,14.9,111.8,27.2,167.2,36.9c52.8,9.2,105.3,15.9,156.8,20.2c22.2,1.8,44,3.2,65.6,4.1c21.2,0.9,42.1,1.4,62.7,1.4
		c20.3,0,40.2-0.3,59.8-1.1c19.3-0.7,38.3-1.8,57-3.3c23-1.8,45.6-4.2,67.4-7.1c21.6-2.9,42.7-6.3,63-10.2
		c20.2-3.9,39.8-8.3,58.6-13.2c18.7-4.9,36.8-10.3,54.2-16.2c17-5.8,33.4-12,49.2-18.7c15.8-6.6,31.2-13.6,46.2-20.7
		c15-7.2,29.7-14.6,44.2-22.1c14.5-7.5,28.8-15.1,42.9-22.7c19.8-10.5,39.8-21.2,60.3-31.5c20.5-10.3,41.4-20.4,63-29.6
		c21.5-9.2,43.6-17.6,66.3-24.7c22.6-7.1,45.8-12.8,69.6-16.8c6.3-1.1,12.6-2,19-2.8c6.3-0.8,12.6-1.5,18.9-2
		c6.3-0.5,12.6-0.9,18.8-1.2c6.2-0.3,12.5-0.4,18.7-0.5L1415.2,124.7L1415.2,124.7z"/>
	<path class="st0" d="M1453.6,180.6c-6.7,0.2-13.3,0.5-20,0.9c-6.7,0.4-13.4,1-20.2,1.7c-6.8,0.7-13.5,1.5-20.3,2.5
		c-6.8,1-13.6,2.1-20.4,3.3c-25.6,4.7-50.6,11.2-75.1,19.1c-24.6,7.9-48.6,17.1-71.9,27.2c-23.4,10.1-46.1,21-68.4,32.2
		c-22.3,11.2-44,22.7-65.5,34.1c-15.4,8.2-30.9,16.4-46.6,24.5c-15.7,8.1-31.7,16.1-47.9,23.9c-16.3,7.8-33,15.4-50.1,22.6
		c-17.2,7.2-35,14.1-53.5,20.6c-18.9,6.6-38.6,12.6-59,18.2c-20.6,5.6-41.9,10.7-64,15.4c-22.3,4.7-45.3,8.8-69,12.5
		c-24,3.7-48.8,6.9-74.1,9.5c-20.5,2.1-41.5,3.9-62.9,5.3c-21.7,1.4-43.9,2.4-66.4,3.1c-22.9,0.6-46.3,0.9-70,0.6
		c-24.2-0.2-48.8-0.9-73.7-2c-58.1-2.7-117.8-7.9-178.3-15.7c-63.8-8.2-128.8-19.3-194-33.1c-69.2-14.7-139-32.7-207.7-53.8
		c-73.3-22.5-145.6-48.7-214.6-78.4l20.3-10.9c67.4,29.6,138.1,55.8,209.9,78.4c67.3,21.2,135.8,39.2,203.9,54.1
		c64.1,14,128.2,25.2,191,33.6c59.6,8,118.5,13.4,175.9,16.3c24.6,1.2,48.9,2,72.8,2.3c23.5,0.3,46.5,0.2,69.2-0.4
		c22.3-0.5,44.2-1.5,65.7-2.8c21.2-1.3,42-3,62.3-5c25.1-2.5,49.6-5.6,73.4-9.2c23.5-3.6,46.3-7.7,68.3-12.2
		c21.8-4.5,43-9.6,63.4-15.1c20.2-5.5,39.8-11.5,58.5-18c18.3-6.4,36-13.2,53-20.4c17-7.2,33.6-14.7,49.7-22.4
		c16.2-7.7,32-15.7,47.5-23.7c15.6-8.1,31-16.2,46.2-24.3c21.3-11.3,42.9-22.7,65-33.8c22.1-11.1,44.6-21.9,67.8-31.9
		c23.2-10,46.9-19.1,71.3-26.9c24.3-7.8,49.1-14.2,74.5-18.8c6.7-1.2,13.5-2.3,20.2-3.3c6.7-1,13.4-1.8,20.1-2.5
		c6.7-0.7,13.3-1.2,20-1.7c6.6-0.4,13.2-0.7,19.9-0.9L1453.6,180.6L1453.6,180.6z"/>
</g>
</svg>
