<?xml version="1.0" encoding="utf-8"?>
<!-- Generator: Adobe Illustrator 25.2.1, SVG Export Plug-In . SVG Version: 6.00 Build 0)  -->
<svg version="1.1" id="Layer_1" xmlns="http://www.w3.org/2000/svg" xmlns:xlink="http://www.w3.org/1999/xlink" x="0px" y="0px"
	 viewBox="0 0 595.3 245.1" style="enable-background:new 0 0 595.3 245.1;" xml:space="preserve">
<style type="text/css">
	.st0{fill:#231F20;}
	.st1{fill:#010101;}
</style>
<g>
	<path class="st0" d="M179.1,43.1c-5.7,3.1-11.3,6.3-16.6,9.5c-5.3,3.2-10.5,6.4-15.4,9.6c-4.9,3.2-9.6,6.3-14.1,9.3
		c-0.7,0.5-1.4,0.9-2,1.4c-0.7,0.5-1.3,0.9-2,1.4c-0.7,0.5-1.3,0.9-2,1.4c-0.7,0.5-1.3,0.9-2,1.4c-5.8,4-11.6,7.9-17.5,11.8
		c-5.8,3.8-11.6,7.6-17.4,11.2c-5.8,3.6-11.7,7.1-17.6,10.3c-5.9,3.3-11.9,6.3-18,9.1c-4.4,2-9,3.9-13.5,5.7
		c-4.6,1.8-9.2,3.4-13.9,4.8c-4.7,1.4-9.5,2.7-14.4,3.8c-4.1,0.9-8.2,1.7-12.5,2.4v1.4c3.9-0.6,7.8-1.4,11.5-2.2
		c4.9-1.1,9.7-2.4,14.4-3.8c4.7-1.4,9.4-3.1,14-4.8c4.6-1.8,9.1-3.7,13.6-5.7c6.1-2.8,12.1-5.9,18-9.1c6-3.3,11.8-6.8,17.7-10.4
		c5.9-3.6,11.7-7.4,17.5-11.3c5.8-3.9,11.7-7.8,17.5-11.8c0.7-0.5,1.3-0.9,2-1.4c0.7-0.5,1.3-0.9,2-1.4c0.7-0.5,1.4-0.9,2-1.4
		c0.7-0.5,1.4-0.9,2-1.4c4.5-3,9.2-6.2,14.1-9.4c5-3.2,10.1-6.4,15.5-9.7c5.4-3.2,11-6.4,16.7-9.5c5.8-3.1,11.7-6.1,17.8-9l0.4-1.3
		C190.7,37,184.8,40,179.1,43.1z"/>
	<path class="st0" d="M174.3,57.2c-5.9,3.2-11.6,6.4-17.2,9.7c-5.5,3.3-10.8,6.6-15.9,9.8c-5.1,3.2-9.9,6.4-14.5,9.5
		c-0.7,0.5-1.4,0.9-2.1,1.4c-0.7,0.5-1.4,0.9-2.1,1.4c-0.7,0.5-1.4,0.9-2.1,1.4c-0.7,0.5-1.4,0.9-2.1,1.4c-6,4-12,8.1-18,12
		c-6,3.9-11.9,7.8-17.9,11.4c-6,3.7-12,7.2-18.1,10.5c-6.1,3.3-12.2,6.4-18.5,9.3c-4.6,2.1-9.2,4-13.9,5.8
		c-4.7,1.8-9.5,3.4-14.3,4.9c-4.8,1.5-9.8,2.8-14.8,3.9c-1,0.2-1.9,0.4-2.9,0.6v1.4c0.6-0.1,1.3-0.3,1.9-0.4
		c5.1-1.1,10-2.4,14.9-3.9c4.9-1.5,9.7-3.1,14.4-4.9c4.7-1.8,9.4-3.7,14-5.8c6.3-2.9,12.5-6,18.5-9.3c6.1-3.3,12.2-6.9,18.2-10.5
		c6-3.7,12-7.5,18-11.5c6-3.9,12-8,18-12c0.7-0.5,1.4-0.9,2.1-1.4c0.7-0.5,1.4-0.9,2.1-1.4c0.7-0.5,1.4-0.9,2.1-1.4
		c0.7-0.5,1.4-0.9,2.1-1.4c4.6-3.1,9.5-6.3,14.6-9.6c5.1-3.3,10.4-6.6,15.9-9.9c5.5-3.3,11.3-6.6,17.2-9.7c6-3.2,12.1-6.3,18.4-9.2
		l0.4-1.4C186.4,50.9,180.3,54,174.3,57.2z"/>
	<path class="st0" d="M169.3,72.3c-6.1,3.2-12,6.6-17.7,9.9c-5.7,3.3-11.2,6.7-16.4,10c-5.2,3.3-10.2,6.6-15,9.7
		c-0.7,0.5-1.4,1-2.1,1.4c-0.7,0.5-1.4,1-2.1,1.4c-0.7,0.5-1.4,1-2.1,1.4c-0.7,0.5-1.4,0.9-2.1,1.4c-6.2,4.1-12.3,8.2-18.5,12.2
		c-6.1,4-12.3,7.9-18.5,11.7c-6.1,3.7-12.3,7.3-18.6,10.7c-6.2,3.4-12.6,6.5-19,9.4c-4.7,2.1-9.5,4.1-14.3,5.9
		c-4.8,1.8-9.7,3.5-14.8,4.9c-2.6,0.8-5.2,1.5-7.9,2.2v1.5c2.3-0.6,4.6-1.2,6.9-1.9c5-1.5,10-3.1,14.8-5c4.9-1.8,9.7-3.8,14.4-5.9
		c6.5-2.9,12.8-6.1,19.1-9.4c6.3-3.4,12.5-7,18.7-10.7c6.2-3.8,12.4-7.7,18.5-11.7c6.2-4,12.4-8.1,18.6-12.3c0.7-0.5,1.4-1,2.1-1.4
		c0.7-0.5,1.4-1,2.1-1.4c0.7-0.5,1.4-1,2.1-1.4c0.7-0.5,1.4-1,2.2-1.4c4.8-3.2,9.8-6.4,15-9.7c5.3-3.3,10.8-6.7,16.5-10.1
		c5.7-3.4,11.7-6.7,17.8-9.9c6.2-3.3,12.5-6.4,19-9.4l0.5-1.5l0,0C181.7,65.9,175.4,69,169.3,72.3z"/>
	<path class="st0" d="M163.9,88.5c-6.3,3.3-12.4,6.7-18.3,10.1c-5.9,3.4-11.5,6.9-16.9,10.3c-5.4,3.4-10.5,6.7-15.5,9.9
		c-0.7,0.5-1.5,1-2.2,1.5c-0.7,0.5-1.5,1-2.2,1.5c-0.7,0.5-1.5,1-2.2,1.5c-0.7,0.5-1.5,1-2.2,1.5c-6.4,4.2-12.7,8.4-19.1,12.5
		c-6.3,4.1-12.6,8-19,11.9c-6.3,3.8-12.7,7.5-19.2,10.9c-6.4,3.4-13,6.6-19.6,9.6c-4.8,2.1-9.8,4.1-14.8,6
		c-4.2,1.5-8.4,2.9-12.7,4.3v1.5c3.9-1.2,7.8-2.5,11.6-3.9c5-1.8,9.9-3.8,14.8-6c6.7-2.9,13.2-6.2,19.7-9.6
		c6.5-3.5,12.9-7.1,19.2-10.9c6.4-3.8,12.7-7.8,19.1-11.9c6.4-4.1,12.7-8.3,19.1-12.5c0.7-0.5,1.5-1,2.2-1.5c0.7-0.5,1.5-1,2.2-1.5
		c0.7-0.5,1.5-1,2.2-1.5c0.7-0.5,1.5-1,2.2-1.5c4.9-3.2,10.1-6.6,15.5-10c5.4-3.4,11.1-6.9,17-10.3c5.9-3.4,12.1-6.9,18.4-10.2
		c6.4-3.3,12.9-6.5,19.6-9.6l0.5-1.7C176.7,81.9,170.2,85.1,163.9,88.5z"/>
	<path class="st0" d="M335.6,42.3l-0.1-1.4c-4-42.4-83.5-32.5-138.8-6.8l-0.4,1.3C251.8,9.7,331.5-0.2,335.6,42.3z"/>
	<polygon class="st0" points="337.8,88.2 337.8,88.2 337.8,88.2 	"/>
	<path class="st0" d="M607.2,117.1c-0.8,0.4-1.6,0.8-2.4,1.2l0,0C605.6,117.9,606.4,117.5,607.2,117.1v-2.5
		c-1.2,0.6-2.3,1.2-3.5,1.8c-6.7,3.3-13.9,6.3-21.5,9.1c-4.8,1.8-9.7,3.5-14.9,5.1c-5.1,1.6-10.4,3.1-15.9,4.5
		c-5.5,1.4-11.1,2.8-16.9,4c-5.8,1.3-11.8,2.4-18,3.5c-2.2,0.4-4.4,0.8-6.6,1.1c-2.2,0.4-4.4,0.7-6.6,1.1c-2.2,0.4-4.4,0.7-6.6,1.1
		c-2.2,0.4-4.3,0.7-6.5,1.1c-7.7,1.2-15.4,2.5-23,3.8c-7.6,1.3-15.3,2.8-22.8,4.4c-7.5,1.6-14.9,3.4-22.2,5.4
		c-7.2,2-14.3,4.3-21.2,6.9c-1.9,0.7-3.8,1.5-5.7,2.3c-1.9,0.8-3.8,1.6-5.6,2.4c-1.8,0.8-3.7,1.7-5.5,2.6c-1.8,0.9-3.6,1.8-5.3,2.8
		c-3.3,1.8-6.5,3.8-9.6,5.8c-3.1,2-6.1,4.1-9.1,6.2c-2.9,2.1-5.8,4.3-8.7,6.4c-2.8,2.1-5.6,4.3-8.3,6.4c-3.7,2.9-7.5,5.8-11.3,8.7
		c-3.8,2.8-7.6,5.6-11.6,8.2c-3.9,2.6-8,5-12.2,7.3c-4.2,2.2-8.5,4.2-13.1,5.9c-0.2,0.1-0.4,0.1-2.2,0.8c-1.9,0.6-4.4,1.4-7.5,2.2
		c-3,0.7-6.6,1.4-10.3,1.7c-3.8,0.3-7.8,0.3-11.8-0.2c-4-0.5-8.1-1.7-11.9-3.6c-3.1-1.5-5.7-3.4-7.9-5.6c-2.2-2.1-3.9-4.5-5.1-7.1
		c-1.3-2.5-2.1-5.2-2.5-7.9c-0.4-2.4-0.4-4.8-0.2-7.2c0.2-1.1,0.5-2.1,0.8-3.1c0.6-1.8,1.4-3.6,2.3-5.3c0.5,1.9,1.1,3.8,2,5.6
		c1.2,2.5,2.9,4.8,5,7c2.1,2.1,4.6,4,7.6,5.5c3.7,1.9,7.7,3,11.6,3.5c3.9,0.5,7.8,0.5,11.4,0.2c3.7-0.3,7.1-1,10-1.7
		c3-0.7,5.5-1.5,7.3-2.1c0.2-0.1,0.4-0.1,2.1-0.8c4.4-1.7,8.6-3.6,12.7-5.8c4.1-2.2,8-4.6,11.8-7.2c3.8-2.6,7.6-5.3,11.2-8.1
		c3.7-2.8,7.3-5.7,11-8.6c2.6-2.1,5.3-4.2,8.1-6.3c2.7-2.1,5.5-4.2,8.4-6.3c2.9-2.1,5.8-4.1,8.8-6.1c3-2,6.1-3.9,9.3-5.7
		c1.7-0.9,3.4-1.9,5.1-2.8c1.7-0.9,3.5-1.7,5.3-2.6c1.8-0.8,3.6-1.6,5.4-2.4c1.8-0.8,3.7-1.5,5.5-2.2c6.6-2.6,13.5-4.8,20.4-6.8
		c7-2,14.2-3.7,21.4-5.3c7.3-1.6,14.6-3,22-4.3c7.4-1.3,14.9-2.5,22.3-3.8c2.1-0.3,4.2-0.7,6.3-1c2.1-0.3,4.2-0.7,6.3-1.1
		c2.1-0.4,4.2-0.7,6.4-1.1c2.1-0.4,4.2-0.7,6.3-1.1c6-1.1,11.7-2.2,17.4-3.5c5.6-1.2,11.1-2.6,16.3-4c5.3-1.4,10.4-2.9,15.3-4.5
		c5-1.6,9.7-3.2,14.3-5c7.3-2.8,14.2-5.8,20.7-9c4.7-2.3,9.1-4.7,13.3-7.3v-2.4c-4.5,2.8-9.3,5.4-14.4,7.9
		c-6.5,3.2-13.3,6.2-20.6,8.9c-4.6,1.7-9.3,3.4-14.3,5c-4.9,1.6-10,3-15.3,4.4c-5.2,1.4-10.7,2.7-16.3,3.9
		c-5.6,1.2-11.3,2.4-17.3,3.5c-2.1,0.4-4.2,0.8-6.3,1.1c-2.1,0.4-4.2,0.7-6.3,1.1c-2.1,0.4-4.2,0.7-6.3,1.1c-2.1,0.3-4.2,0.7-6.2,1
		c-7.4,1.2-14.8,2.4-22.2,3.8c-7.4,1.3-14.7,2.7-21.9,4.3c-7.2,1.6-14.4,3.3-21.4,5.3c-7,2-13.8,4.2-20.4,6.8
		c-1.9,0.7-3.7,1.5-5.5,2.2c-1.8,0.8-3.6,1.6-5.4,2.4c-1.8,0.8-3.5,1.7-5.3,2.6c-1.7,0.9-3.4,1.8-5.1,2.7c-3.2,1.8-6.3,3.7-9.3,5.7
		c-3,2-5.9,4-8.8,6.1c-2.8,2.1-5.6,4.2-8.4,6.3c-2.7,2.1-5.4,4.2-8,6.3c-3.6,2.9-7.2,5.7-10.9,8.5c-3.7,2.8-7.4,5.5-11.2,8.1
		c-3.8,2.6-7.7,5-11.8,7.2c-4,2.2-8.3,4.1-12.7,5.8c-0.2,0.1-0.3,0.1-2.1,0.8c-1.8,0.6-4.3,1.4-7.2,2.1c-2.9,0.7-6.4,1.3-10,1.7
		c-3.6,0.3-7.5,0.3-11.4-0.2c-3.9-0.5-7.8-1.6-11.5-3.5c-3-1.5-5.5-3.4-7.6-5.5c-2.1-2.1-3.7-4.5-4.9-6.9c-0.7-1.5-1.3-3-1.7-4.6
		c0.3-0.5,0.6-1,0.9-1.5c1.5-2.3,3.2-4.6,5.3-6.8c7.7,10.8,24.2,16.2,46.5,9c39.2-12.6,63.9-48.3,101.4-63.7
		c54.8-22.4,115.5-20.1,170.6-41.5c2.5-1,5.8-2.3,8.2-3.3c14-6.2,25.2-12.4,35.1-19.7v-2.4c-2.2,1.7-4.5,3.3-6.9,4.9
		c-5.4,3.6-11.2,7-17.5,10.1c-6.2,3.1-12.8,6.1-19.8,8.8c-4.4,1.7-9,3.3-13.7,4.9c-4.7,1.5-9.6,3-14.7,4.4
		c-5.1,1.4-10.3,2.7-15.7,3.9c-5.4,1.2-10.9,2.3-16.6,3.4c-2,0.4-4.1,0.7-6.1,1.1c-2,0.4-4.1,0.7-6.1,1.1c-2,0.4-4.1,0.7-6.1,1
		c-2,0.3-4,0.7-6,1c-7.1,1.2-14.3,2.4-21.4,3.7c-7.1,1.3-14.2,2.7-21.2,4.2c-7,1.5-13.8,3.3-20.6,5.2c-6.7,1.9-13.3,4.1-19.6,6.7
		c-1.8,0.7-3.6,1.4-5.3,2.2c-1.8,0.8-3.5,1.5-5.2,2.4c-1.7,0.8-3.4,1.7-5.1,2.5c-1.7,0.9-3.3,1.8-4.9,2.7c-3.1,1.8-6,3.6-9,5.6
		c-2.9,1.9-5.7,3.9-8.5,6c-2.7,2-5.4,4.1-8.1,6.2c-2.6,2.1-5.2,4.2-7.8,6.2c-3.5,2.8-7,5.6-10.5,8.4c-3.5,2.7-7.1,5.4-10.8,7.9
		c-3.7,2.5-7.5,4.9-11.4,7c-3.9,2.1-8,4.1-12.3,5.7c-0.2,0.1-0.3,0.1-2,0.8c-1.7,0.6-4.1,1.4-7,2.1c-2.9,0.7-6.1,1.3-9.7,1.7
		c-3.5,0.3-7.3,0.3-11-0.2c-3.8-0.5-7.6-1.6-11.2-3.4c-2.9-1.5-5.4-3.3-7.4-5.4c-0.7-0.7-1.3-1.4-1.9-2.2c2.3-2.4,5.1-4.8,8.1-7.1
		c0.7-0.5,1.5-1.1,2.2-1.6c0.2,0.1,0.4,0.2,0.6,0.3c3.5,1.8,7.2,2.8,10.8,3.4c3.7,0.5,7.3,0.5,10.7,0.2c3.4-0.3,6.6-0.9,9.4-1.6
		c2.8-0.7,5.1-1.5,6.8-2.1c0.2-0.1,0.3-0.1,2-0.7c4.2-1.6,8.1-3.5,11.9-5.7c3.8-2.1,7.5-4.5,11.1-6.9c3.6-2.5,7.1-5.1,10.5-7.8
		c3.5-2.7,6.9-5.5,10.2-8.3c2.5-2,5-4.1,7.5-6.1c2.6-2.1,5.2-4.1,7.8-6.1c2.7-2,5.4-4,8.2-5.9c2.8-1.9,5.7-3.7,8.7-5.5
		c1.6-0.9,3.2-1.8,4.8-2.7c1.6-0.9,3.3-1.7,4.9-2.5c1.7-0.8,3.3-1.6,5-2.3c1.7-0.7,3.4-1.5,5.2-2.2c6.2-2.5,12.5-4.6,19-6.5
		c6.5-1.9,13.2-3.6,19.9-5.1c6.8-1.5,13.6-2.9,20.5-4.2c6.9-1.3,13.8-2.5,20.7-3.6c1.9-0.3,3.9-0.7,5.8-1c2-0.3,3.9-0.7,5.9-1
		c2-0.3,3.9-0.7,5.9-1.1c2-0.4,3.9-0.7,5.9-1.1c5.5-1,10.9-2.2,16.1-3.4c5.2-1.2,10.3-2.5,15.2-3.8c4.9-1.3,9.6-2.8,14.2-4.3
		c4.6-1.5,9-3.1,13.3-4.8c6.8-2.7,13.1-5.5,19.1-8.6c6-3.1,11.6-6.4,16.8-9.9c5.2-3.6,10.1-7.3,14.6-11.4c0.5-0.4,0.9-0.9,1.4-1.3
		v-2.4c-0.8,0.8-1.6,1.5-2.4,2.3c-4.5,4-9.3,7.8-14.5,11.3c-5.2,3.5-10.8,6.8-16.8,9.9c-5.9,3.1-12.3,5.9-19,8.6
		c-4.2,1.7-8.6,3.3-13.2,4.8c-4.6,1.5-9.3,2.9-14.1,4.3c-4.9,1.3-9.9,2.6-15.1,3.8c-5.2,1.2-10.5,2.3-16.1,3.3
		c-1.9,0.4-3.9,0.7-5.9,1.1c-2,0.4-3.9,0.7-5.9,1.1c-2,0.3-3.9,0.7-5.9,1c-1.9,0.3-3.9,0.7-5.8,1c-6.9,1.2-13.8,2.4-20.6,3.6
		c-6.9,1.3-13.7,2.6-20.4,4.1c-6.7,1.5-13.4,3.2-19.9,5.1c-6.5,1.9-12.8,4.1-19,6.5c-1.7,0.7-3.4,1.4-5.1,2.2
		c-1.7,0.7-3.4,1.5-5,2.3c-1.7,0.8-3.3,1.6-4.9,2.5c-1.6,0.9-3.2,1.7-4.8,2.7c-3,1.7-5.8,3.6-8.6,5.5c-2.8,1.9-5.5,3.9-8.2,5.9
		c-2.7,2-5.2,4-7.8,6.1c-2.5,2-5,4.1-7.5,6.1c-3.4,2.8-6.8,5.5-10.2,8.3c-3.4,2.7-6.9,5.3-10.5,7.8c-3.6,2.5-7.2,4.8-11,6.9
		c-3.8,2.1-7.7,4-11.9,5.6c-0.2,0.1-0.3,0.1-2,0.7c-1.7,0.6-4,1.4-6.8,2.1c-2.8,0.7-6,1.3-9.4,1.6c-3.4,0.3-7,0.3-10.7-0.2
		c-3.4-0.5-6.8-1.4-10.1-3c2.2-1.5,4.5-2.9,7-4.3c1.6-0.9,3.2-1.8,4.9-2.7c1.7-0.9,3.3-1.7,5-2.6c1.4-0.7,2.9-1.4,4.3-2.1
		c4.5-0.3,9.2-1.3,14.1-3c36.8-12.6,59.7-46.6,95-61.5c50.9-21.5,107.7-19.5,158.9-40c2.3-0.9,5.4-2.2,7.6-3.2
		c23.4-10.7,38.7-21.8,52.4-38.1v-1l-0.6-0.8c-2.2,2.7-7.3,8.9-15.8,16.1C577.2,45.5,562.2,53,552,57.4
		c-51.3,21.8-108.6,20.4-160.3,40.7c-35.8,14.1-59.2,47.4-94.9,61.7c-2.5,1-4.7,1.6-7,2.3c-2.1,0.6-4.2,1.1-6.2,1.4
		c0.5-0.2,1-0.5,1.6-0.7c3.1-1.5,6.3-3,9.4-4.5c3.1-1.6,6.3-3.2,9.3-4.9c3.1-1.7,6.1-3.5,9-5.4c2.9-1.9,5.7-4,8.3-6.2
		c4.1-3.5,7.7-7.7,10.6-12.2c2.9-4.6,5-9.5,6.1-14.5c0.7-3.1,1-6.2,0.8-9.3c0,0.1,0,0.1,0,0.2l-0.1-1.8c-0.1-1.7-0.3-3.5-0.7-5.1
		c-0.3-1.4-0.7-2.7-1.3-4.1c0.3-2.2,0.5-4.4,0.4-6.5l0,0l-0.1-1.7c0.1,2.5-0.1,5.1-0.6,7.6c0-0.1-0.1-0.2-0.1-0.3
		c-0.7-1.6-1.6-3.2-2.7-4.7c-0.2-0.3-0.4-0.6-0.7-0.9c1-2.4,1.9-4.8,2.5-7.3c0.2-0.7,0.3-1.5,0.4-2.2c0.6,1.4,1,2.8,1.4,4.3
		c0.4,1.7,0.6,3.3,0.7,5l-0.1-1.7c-0.1-1.7-0.3-3.4-0.7-5c-0.3-1.3-0.7-2.5-1.1-3.7c0.3-2,0.4-3.9,0.3-5.9l-0.1-1.6
		c0.1,2.3-0.1,4.6-0.4,6.9c-0.1-0.2-0.2-0.4-0.2-0.6c-0.7-1.6-1.5-3.1-2.6-4.6c-0.1-0.1-0.1-0.2-0.2-0.3c0.8-2,1.5-4.1,2-6.2
		c0.2-0.7,0.3-1.4,0.4-2.1c1,2.5,1.7,5.3,2,8.3l-0.1-1.6c-0.1-1.7-0.3-3.3-0.7-4.9c-0.3-1.1-0.6-2.3-1-3.4c0.2-1.8,0.3-3.5,0.2-5.3
		l-0.1-1.5c0.1,2.1,0,4.2-0.4,6.3c-0.1-0.3-0.2-0.6-0.3-0.8c-0.6-1.4-1.4-2.9-2.3-4.2c0.7-1.7,1.2-3.5,1.6-5.2c0.2-1,0.4-2,0.5-3
		c0.4,1.2,0.8,2.4,1.1,3.6c0.4,1.6,0.6,3.2,0.6,4.8l-0.1-1.5c-0.1-1.6-0.3-3.2-0.6-4.8c-0.2-1-0.5-2.1-0.9-3.1
		c0.2-1.6,0.2-3.2,0.2-4.8l-0.1-1.4c0.1,1.9,0,3.8-0.3,5.7c-0.1-0.4-0.3-0.7-0.4-1c-0.6-1.5-1.4-3-2.4-4.4c-1-1.4-2.1-2.7-3.4-4
		c-1.9-1.8-4-3.4-6.5-4.8c-2.5-1.4-5.2-2.6-8.3-3.6c-3.1-1-6.4-1.7-10.1-2.3c-3.7-0.5-7.7-0.9-12-1c-7.3-0.2-14.6,0-22,0.7
		c-7.4,0.7-14.8,1.8-22.3,3.3c-7.5,1.5-15,3.5-22.6,6c-7.6,2.4-15.2,5.3-23,8.5c-0.7,0.3-1.5,0.6-2.2,1c-0.7,0.3-1.5,0.6-2.2,1
		c-0.7,0.3-1.5,0.7-2.2,1c-0.7,0.3-1.5,0.7-2.2,1l-0.4,1.4c0.7-0.3,1.5-0.7,2.2-1c0.7-0.3,1.5-0.7,2.2-1c0.7-0.3,1.5-0.7,2.2-1
		c0.7-0.3,1.5-0.6,2.2-1c7.8-3.3,15.4-6.1,23-8.6c7.6-2.4,15.2-4.4,22.7-6c7.5-1.6,15-2.7,22.4-3.3c7.4-0.7,14.8-0.9,22.1-0.7
		c4.3,0.1,8.4,0.5,12.1,1c3.7,0.5,7.1,1.3,10.2,2.3c3.1,1,5.8,2.2,8.3,3.6c2.5,1.4,4.6,3,6.5,4.9c1.3,1.3,2.4,2.6,3.4,4
		c1,1.4,1.8,2.9,2.4,4.4c0.1,0.2,0.2,0.4,0.2,0.6c-0.1,0.7-0.2,1.4-0.4,2.1c-0.5,2-1.1,4.1-1.9,6.1c-0.9-1.3-2-2.6-3.3-3.8
		c-1.9-1.9-4.2-3.5-6.7-5c-2.5-1.4-5.4-2.7-8.6-3.7c-3.2-1-6.7-1.8-10.5-2.3c-3.8-0.6-8-0.9-12.5-1c-7.6-0.2-15.2,0-22.8,0.7
		c-7.7,0.7-15.4,1.8-23.1,3.4c-7.8,1.6-15.6,3.6-23.5,6.1c-7.9,2.5-15.8,5.4-23.8,8.7c-0.8,0.3-1.5,0.7-2.3,1
		c-0.8,0.3-1.5,0.7-2.3,1c-0.8,0.3-1.5,0.7-2.3,1c-0.8,0.3-1.5,0.7-2.3,1l-0.5,1.5c51.7-23.5,123.3-34.4,143.8-7.3
		c-0.2,0.4-0.3,0.8-0.5,1.2c-1.2,2.5-2.7,5-4.3,7.3c-1.3-1-2.8-2-4.3-2.9c-2.6-1.5-5.6-2.7-8.9-3.8c-3.3-1-6.9-1.8-10.9-2.4
		c-4-0.6-8.3-0.9-12.9-1.1c-7.8-0.2-15.7,0-23.7,0.7c-7.9,0.7-15.9,1.8-24,3.5c-8,1.6-16.1,3.7-24.3,6.2c-8.1,2.5-16.3,5.5-24.6,8.9
		c-0.8,0.3-1.6,0.7-2.4,1c-0.8,0.3-1.6,0.7-2.4,1c-0.8,0.3-1.6,0.7-2.4,1c-0.8,0.3-1.6,0.7-2.4,1.1l-0.5,1.7
		c0.8-0.4,1.6-0.7,2.4-1.1c0.8-0.3,1.6-0.7,2.4-1c0.8-0.3,1.6-0.7,2.4-1c0.8-0.3,1.6-0.7,2.4-1c8.3-3.4,16.6-6.4,24.7-8.9
		c8.2-2.5,16.3-4.6,24.4-6.2c8.1-1.6,16.1-2.8,24.1-3.5c8-0.7,15.9-0.9,23.8-0.7c4.7,0.1,9,0.5,13,1.1c4,0.6,7.6,1.4,10.9,2.4
		c3.3,1,6.3,2.3,8.9,3.8c1.3,0.7,2.4,1.5,3.5,2.3c-1.8,2.3-3.8,4.5-5.9,6.4c-1.4,1.2-2.8,2.4-4.3,3.6c-0.8-0.3-1.6-0.5-2.4-0.8
		c-3.4-1.1-7.2-1.9-11.3-2.5c-4.1-0.6-8.6-1-13.4-1.1c-8.2-0.3-16.4,0-24.6,0.7c-8.3,0.7-16.6,1.9-24.9,3.5
		c-8.4,1.6-16.8,3.8-25.3,6.4c-8.4,2.6-17,5.6-25.6,9.1c-0.8,0.3-1.7,0.7-2.5,1c-0.8,0.3-1.6,0.7-2.5,1c-0.8,0.4-1.6,0.7-2.5,1.1
		c-0.8,0.4-1.6,0.7-2.4,1.1l-0.5,1.8c0,0,0,0,0,0c-0.7,0.3-1.3,0.6-2,0.9c0.7-0.3,1.3-0.6,2-0.9l0.5-1.8c-6.9,3.1-13.7,6.4-20.3,9.8
		c-6.5,3.4-12.9,6.9-19,10.4c-6.1,3.5-11.9,7-17.5,10.5c-5.6,3.4-10.9,6.8-16,10.1c-0.8,0.5-1.5,1-2.3,1.5c-0.8,0.5-1.5,1-2.3,1.5
		c-0.8,0.5-1.5,1-2.3,1.5c-0.8,0.5-1.5,1-2.3,1.5c-6.6,4.3-13.1,8.5-19.7,12.7c-6.5,4.1-13,8.2-19.6,12.1
		c-6.5,3.9-13.1,7.6-19.8,11.1c-6.6,3.5-13.3,6.7-20.2,9.7c-5,2.2-10.1,4.2-15.2,6.1c-0.6,0.2-1.3,0.5-2,0.7v1.6
		c0.3-0.1,0.6-0.2,0.8-0.3c1.1-0.4,2.1-0.8,3.2-1.2c-1.1,0.4-2.1,0.8-3.2,1.2c-0.3,0.1-0.6,0.2-0.8,0.3v0.7c0.4-0.2,0.9-0.3,1.3-0.4
		c5.2-1.9,10.3-3.9,15.3-6.1c6.9-3,13.6-6.3,20.3-9.8c6.7-3.5,13.3-7.2,19.9-11.1c6.6-3.9,13.2-8,19.7-12.1
		c6.6-4.2,13.2-8.5,19.8-12.7c0.8-0.5,1.5-1,2.3-1.5c0.8-0.5,1.5-1,2.3-1.5c0.8-0.5,1.5-1,2.3-1.5c0.8-0.5,1.5-1,2.3-1.5
		c5.4-3.5,10.9-7,16.6-10.5c5.7-3.5,11.6-7.1,17.6-10.5c6.1-3.5,12.3-6.9,18.7-10.2c6.4-3.3,13.1-6.5,19.9-9.5
		c8.2-3.7,16.7-7,25.4-10c8.8-3,17.7-5.7,27-7.8c9.3-2.1,18.7-3.8,28.4-4.8c9.7-1,19.6-1.5,29.6-1.1c4.8,0.1,9.2,0.5,13.3,1.1
		c4.1,0.6,7.8,1.4,11.2,2.4c0.1,0,0.2,0.1,0.3,0.1c-0.2,0.1-0.3,0.2-0.5,0.4c-2.5,1.8-5.1,3.4-7.8,5c-2.6,1.6-5.4,3.1-8.1,4.5
		c-2.7,1.4-5.4,2.8-8.1,4.2c-1.5,0.8-3,1.5-4.5,2.3c-1.5,0.8-3,1.5-4.5,2.3c-1.5,0.8-2.9,1.6-4.4,2.4c-1.4,0.8-2.9,1.6-4.3,2.5
		c-3.5,2.1-6.6,4.3-9.4,6.5c-2.8,2.2-5.2,4.5-7.4,6.8c-2.1,2.3-3.9,4.7-5.3,7.1c-1.4,2.4-2.6,4.8-3.3,7.3c-0.1,0.3-0.2,0.7-0.3,1
		c-0.1,0.3-0.2,0.7-0.2,1c-0.1,0.3-0.1,0.7-0.2,1c-0.1,0.3-0.1,0.7-0.2,1l-0.2,1.6c0-0.3,0.1-0.7,0.2-1c0.1-0.3,0.1-0.7,0.2-1
		s0.2-0.7,0.2-1c0.1-0.3,0.2-0.7,0.3-1c0.8-2.5,1.9-4.9,3.3-7.3c1.5-2.4,3.2-4.8,5.4-7.1c2.1-2.3,4.6-4.6,7.4-6.8
		c2.8-2.2,5.9-4.4,9.4-6.5c1.4-0.9,2.8-1.7,4.3-2.5c1.5-0.8,2.9-1.6,4.4-2.4c1.5-0.8,3-1.6,4.5-2.3c1.5-0.8,3-1.5,4.5-2.3
		c2.7-1.4,5.4-2.8,8.2-4.2c2.7-1.4,5.4-2.9,8.1-4.5c2.7-1.6,5.3-3.2,7.8-5c0.6-0.4,1.3-0.9,1.9-1.4c2.7,0.9,5.2,2,7.4,3.2
		c0.8,0.5,1.6,0.9,2.4,1.4c-1.4,1.6-2.8,3-4.3,4.4c-2.3,2.1-4.8,4-7.4,5.8c-2.6,1.8-5.3,3.5-8,5.1c-2.7,1.6-5.5,3.1-8.3,4.6
		c-2.8,1.5-5.6,2.9-8.4,4.3c-1.5,0.8-3.1,1.5-4.6,2.3c-1.5,0.8-3.1,1.6-4.6,2.4c-1.5,0.8-3,1.6-4.5,2.4c-1.5,0.8-3,1.7-4.4,2.5
		c-3.6,2.2-6.8,4.4-9.7,6.6c-2.9,2.3-5.4,4.6-7.6,7c-2.2,2.4-4,4.8-5.5,7.2c-0.5,0.8-0.9,1.6-1.3,2.4c-0.2-2.1-0.3-4.3-0.1-6.7
		l-0.2,1.6c-0.3,2.7-0.3,4.7-0.2,6.1c-0.7,1.4-1.2,2.8-1.7,4.2c-0.1,0.3-0.2,0.7-0.3,1c-0.1,0.3-0.2,0.7-0.3,1
		c-0.1,0.3-0.1,0.7-0.2,1c-0.1,0.3-0.1,0.7-0.2,1l-0.2,1.7c0-0.4,0.1-0.7,0.2-1c0.1-0.3,0.1-0.7,0.2-1s0.2-0.7,0.3-1
		c0.1-0.3,0.2-0.7,0.3-1c0.5-1.6,1.2-3.2,2-4.8c0,0.3,0.1,0.5,0.1,0.7c0.4,2.7,1.2,5.3,2.3,7.5c-1.1,1.4-2.2,2.9-3.1,4.3
		c-0.5,0.8-0.9,1.6-1.3,2.4c-0.4-2.5-0.4-5.1,0-7.5l-0.2,1.7c-0.3,2.1-0.3,4.3-0.1,6.5c-0.7,1.5-1.4,3-1.9,4.5
		c-0.1,0.3-0.2,0.7-0.3,1c-0.1,0.3-0.2,0.7-0.3,1c-0.1,0.3-0.2,0.7-0.2,1.1c-0.1,0.4-0.1,0.7-0.2,1.1l-0.3,1.8
		c0.1-0.4,0.1-0.7,0.2-1.1c0.1-0.4,0.1-0.7,0.2-1.1c0.1-0.3,0.2-0.7,0.3-1c0.1-0.3,0.2-0.7,0.3-1c0.6-1.8,1.3-3.5,2.2-5.3
		c0,0,0,0,0,0c0.4,2.6,1.1,5.1,2.3,7.5c0.2,0.4,0.4,0.8,0.6,1.2c-1.4,1.7-2.7,3.4-3.8,5.2c-0.4,0.7-0.8,1.3-1.2,2
		c0-0.1-0.1-0.3-0.1-0.4c-0.4-2.6-0.4-5.2,0-7.7l-0.2,1.8c-0.2,1.3-0.3,3.1-0.2,4.4c0,0.9,0.1,1.8,0.2,2.7c-0.8,1.6-1.5,3.3-2.1,4.9
		c-0.1,0.3-0.2,0.7-0.3,1c-0.1,0.3-0.2,0.7-0.3,1.1c-0.1,0.4-0.2,0.7-0.2,1.1c-0.1,0.4-0.1,0.7-0.2,1.1l-0.3,1.9
		c0.1-0.4,0.1-0.7,0.2-1.1c0.1-0.4,0.1-0.7,0.2-1.1c0.1-0.4,0.2-0.7,0.3-1.1c0.1-0.3,0.2-0.7,0.3-1c0.6-1.9,1.5-3.9,2.5-5.8
		c0.6,3.3,1.7,6.5,3.4,9.3c-1.8,2-3.4,4.1-4.7,6.1c-0.3,0.5-0.7,1.1-1,1.6c-0.1-0.3-0.1-0.6-0.2-0.9c-0.4-2.7-0.4-5.3-0.1-7.9
		l-0.3,1.9c-0.4,2.5-0.3,5.2,0,7.8c-0.9,1.8-1.7,3.6-2.3,5.4c-0.1,0.3-0.2,0.7-0.3,1.1c-0.1,0.4-0.2,0.7-0.3,1.1
		c-0.1,0.4-0.2,0.7-0.2,1.1c-0.1,0.4-0.1,0.7-0.2,1.1l-0.3,2c0-0.2,0.1-0.4,0.1-0.6c-0.3,1.7-0.4,3.5-0.3,5.4c0.1,3.1,0.7,6.3,2,9.3
		c1.2,3,3,5.9,5.4,8.5c2.4,2.6,5.4,4.8,9,6.6c4,1.9,8.1,3.1,12.2,3.6c4.1,0.6,8.2,0.6,12,0.2c3.8-0.3,7.4-1,10.5-1.7
		c3.1-0.7,5.7-1.5,7.6-2.2c0.2-0.1,0.4-0.1,0.5-0.2c0.2-0.1,0.4-0.1,0.5-0.2c0.2-0.1,0.4-0.1,0.5-0.2c0.2-0.1,0.4-0.1,0.5-0.2
		c4.6-1.7,9-3.7,13.2-5.9c4.2-2.2,8.3-4.7,12.3-7.3c4-2.6,7.9-5.4,11.7-8.2c3.8-2.9,7.6-5.8,11.4-8.7c2.7-2.1,5.5-4.3,8.3-6.4
		c2.8-2.2,5.7-4.3,8.7-6.4c3-2.1,6-4.2,9.1-6.2c3.1-2,6.3-3.9,9.6-5.7c1.7-1,3.5-1.9,5.3-2.8c1.8-0.9,3.6-1.8,5.4-2.6
		c1.8-0.8,3.7-1.6,5.6-2.4c1.9-0.8,3.8-1.5,5.7-2.3c6.9-2.6,13.9-4.9,21.2-6.9c7.3-2,14.7-3.8,22.2-5.4c7.5-1.6,15.2-3,22.8-4.3
		c7.7-1.3,15.4-2.6,23.1-3.8c2.2-0.3,4.3-0.7,6.5-1c2.2-0.4,4.4-0.7,6.6-1.1c2.2-0.4,4.4-0.7,6.6-1.1c2.2-0.4,4.4-0.8,6.6-1.1
		c6.2-1.1,12.2-2.3,18.1-3.5c5.9-1.3,11.5-2.6,17-4c5.5-1.4,10.8-2.9,16-4.5c5.2-1.6,10.2-3.3,15-5.1c7.7-2.8,14.9-5.9,21.7-9.2
		c0.7-0.3,1.4-0.7,2-1V117.1z M138.4,118.1c-6.1,3.5-12,7-17.6,10.5c-0.2,0.2-0.5,0.3-0.7,0.5c0.2-0.2,0.5-0.3,0.7-0.5
		C126.4,125.1,132.3,121.6,138.4,118.1c0.8-0.5,1.7-0.9,2.5-1.4C140,117.2,139.2,117.6,138.4,118.1z M157.4,107.7
		c-4.4,2.3-8.7,4.6-12.8,6.9C148.8,112.3,153,110,157.4,107.7c1.6-0.8,3.3-1.7,5-2.5C160.7,106,159.1,106.9,157.4,107.7z
		 M269.6,167.8c-1.7,0.9-3.3,1.8-4.9,2.7c-3.2,1.8-6.2,3.7-8.9,5.7c-2.2-1.3-4-2.8-5.6-4.4c-1.1-1.2-2.1-2.4-2.9-3.7
		c0.2-0.2,0.3-0.4,0.5-0.6c2.3-2.5,5-4.9,8.1-7.2c0,0,0,0,0.1,0c4.8,3.3,10.8,5.2,17.6,5.5C272.3,166.4,270.9,167.1,269.6,167.8z
		 M336.1,97.6c0.3,0.9,0.6,1.8,0.9,2.7c0.4,1.5,0.6,3.1,0.8,4.7c0.1,2.9-0.3,5.9-1,8.8c-0.8,3.2-1.9,6.3-3.5,9.4
		c-1.5,3-3.4,5.9-5.5,8.6c-2.1,2.7-4.5,5.2-7.2,7.4c-2.6,2.2-5.4,4.3-8.2,6.2c-2.9,1.9-5.9,3.7-8.9,5.4c-3,1.7-6.1,3.3-9.3,4.9
		c-3.1,1.5-6.2,3-9.3,4.5c-1.7,0.8-3.4,1.6-5.1,2.5c-1,0.5-2,1-3,1.5c-7.3,0.2-14.2-1.4-19.6-4.8c2.8-2.1,5.9-4.1,9.2-6
		c1.5-0.9,3.1-1.8,4.7-2.6c1.6-0.9,3.2-1.7,4.9-2.5c1.6-0.8,3.3-1.7,4.9-2.5c1.7-0.8,3.3-1.6,5-2.4c3-1.5,6-2.9,9-4.4
		c3-1.5,6-3.1,9-4.8c3-1.7,5.8-3.4,8.6-5.3c2.8-1.9,5.5-3.9,8-6.1c2.5-2.2,4.9-4.7,6.9-7.3c2.1-2.7,3.9-5.5,5.3-8.5
		c1.5-3,2.6-6.1,3.4-9.2C336.1,97.7,336.1,97.6,336.1,97.6z M335.8,96.8c-0.7,2.9-1.8,5.7-3.1,8.4c-1.5,3-3.3,5.8-5.3,8.5
		c-2.1,2.6-4.4,5.1-6.9,7.3c-2.5,2.2-5.2,4.2-7.9,6.1c-2.8,1.9-5.6,3.6-8.6,5.3c-2.9,1.7-5.9,3.2-8.9,4.8c-3,1.5-6,3-9,4.4
		c-1.6,0.8-3.3,1.6-4.9,2.4c-1.6,0.8-3.3,1.6-4.9,2.5c-1.6,0.8-3.3,1.7-4.9,2.5c-1.6,0.9-3.2,1.7-4.7,2.6c-3.8,2.2-7.3,4.5-10.4,6.9
		c-0.1,0.1-0.2,0.1-0.2,0.2c-2.9-2-5.3-4.6-7-7.7c0.4-0.5,0.8-0.9,1.3-1.4c2.3-2.4,4.9-4.8,7.9-7.1c3-2.3,6.3-4.6,10-6.8
		c1.5-0.9,3-1.8,4.6-2.6c1.5-0.8,3.1-1.7,4.7-2.5c1.6-0.8,3.2-1.6,4.8-2.4c1.6-0.8,3.2-1.6,4.8-2.4c2.9-1.4,5.8-2.9,8.7-4.4
		c2.9-1.5,5.8-3,8.7-4.7c2.8-1.6,5.6-3.4,8.3-5.2c2.7-1.9,5.3-3.8,7.7-6c2.4-2.2,4.7-4.6,6.7-7.2c1.9-2.5,3.6-5.2,5-8
		C333.6,92.3,334.9,94.5,335.8,96.8z M333,73.7c1,1.5,1.9,3,2.6,4.5c-0.1,0.4-0.1,0.8-0.2,1.2c-0.6,2.8-1.6,5.6-2.9,8.2
		c-0.8-1-1.6-1.9-2.6-2.8c-1-0.9-2-1.8-3.1-2.6c1.9-2.5,3.5-5.2,4.9-8c0.3-0.5,0.5-1,0.7-1.6C332.5,73.1,332.7,73.4,333,73.7z
		 M331,59.7c0.3-0.7,0.6-1.3,0.9-2c1.2,1.6,2.1,3.4,2.9,5.2c-0.1,0.4-0.1,0.8-0.2,1.2c-0.5,2.4-1.4,4.8-2.4,7.1
		c-0.9-1.2-1.9-2.3-3-3.3c-0.6-0.6-1.3-1.2-2-1.7C328.7,64.1,330,61.9,331,59.7z M322.6,79.7c-1.7-1-3.6-1.8-5.6-2.6
		c1-0.8,2.1-1.7,3.1-2.6c2.3-2.1,4.4-4.4,6.2-6.9c0.1-0.2,0.2-0.3,0.3-0.5c1,0.7,1.9,1.5,2.7,2.3c0.9,0.9,1.7,1.8,2.5,2.7
		c-0.1,0.2-0.2,0.4-0.3,0.7c-1.4,2.8-3,5.5-5,8.1c-0.2,0.3-0.4,0.6-0.7,0.8C324.8,81,323.7,80.3,322.6,79.7z M245.8,141.5
		c0.3-0.6,0.6-1.1,1-1.7c1.5-2.5,3.3-4.9,5.5-7.2c2.2-2.4,4.7-4.7,7.6-7c2.9-2.3,6.1-4.5,9.7-6.7c1.4-0.9,2.9-1.7,4.4-2.6
		c1.5-0.8,3-1.7,4.6-2.5c1.5-0.8,3.1-1.6,4.6-2.4c1.5-0.8,3.1-1.6,4.6-2.3c2.8-1.4,5.6-2.8,8.4-4.3c2.8-1.5,5.6-3,8.4-4.6
		c2.8-1.6,5.4-3.3,8-5.1c2.6-1.8,5.1-3.8,7.4-5.8c1.8-1.6,3.6-3.5,5.2-5.4c1.4,1,2.7,2,3.9,3.1c0.8,0.8,1.5,1.6,2.2,2.4
		c-1.3,2.5-2.8,4.8-4.5,7.1c-2,2.6-4.2,5-6.7,7.1c-2.4,2.1-5,4.1-7.7,5.9c-2.7,1.8-5.4,3.6-8.3,5.2c-2.8,1.6-5.7,3.2-8.6,4.7
		c-2.9,1.5-5.8,2.9-8.7,4.4c-1.6,0.8-3.2,1.6-4.8,2.4c-1.6,0.8-3.2,1.6-4.8,2.4c-1.6,0.8-3.1,1.6-4.7,2.5c-1.5,0.8-3.1,1.7-4.6,2.6
		c-3.7,2.2-7,4.5-10,6.8c-3,2.3-5.6,4.7-7.8,7.1c-0.7,0.7-1.3,1.5-2,2.2C247.1,147.5,246.3,144.7,245.8,141.5z M245.6,165
		c-1-2.1-1.7-4.3-2.1-6.6c0.3-0.5,0.6-1.1,0.9-1.6c1.1-1.8,2.3-3.5,3.8-5.2c1.7,3.1,3.9,5.7,6.7,7.8c-2.5,2-4.8,4.1-6.8,6.2
		c-0.5,0.5-0.9,1-1.3,1.5C246.3,166.4,246,165.7,245.6,165z M243.3,182.4c-1-2-1.6-4.1-2.1-6.2c0.2-0.4,0.5-0.8,0.7-1.2
		c1.3-2.1,2.8-4.1,4.6-6.1c1,1.6,2.1,3.1,3.4,4.5c1.3,1.4,2.8,2.6,4.5,3.7c-0.2,0.1-0.4,0.3-0.5,0.4c-3.2,2.4-6,4.8-8.4,7.3
		c-0.2,0.2-0.4,0.4-0.5,0.6C244.4,184.4,243.8,183.4,243.3,182.4z M242.2,228.9c-0.2-0.2-0.4-0.4-0.5-0.6c0.4,0.5,0.9,1,1.4,1.5
		C242.8,229.5,242.5,229.2,242.2,228.9z M249,234.3c0.7,0.4,1.3,0.8,2.1,1.1C250.3,235.1,249.7,234.7,249,234.3z"/>
	<path class="st0" d="M6.4,194.4c1.1-0.4,2.2-0.9,3.4-1.3C8.6,193.6,7.5,194,6.4,194.4z"/>
	<path class="st0" d="M235.4,214.8c-0.1-0.6-0.2-1.2-0.2-1.8C235.3,213.6,235.3,214.2,235.4,214.8z"/>
	<path class="st0" d="M235.8,216.7c-0.1-0.6-0.3-1.2-0.4-1.8C235.5,215.5,235.7,216.1,235.8,216.7z"/>
	<path class="st0" d="M235.1,208.9c0,0.6,0,1.2,0,1.7C235.1,210.1,235.1,209.5,235.1,208.9z"/>
	<path class="st0" d="M337.3,98.3c0.2,0.5,0.3,1,0.5,1.6C337.6,99.3,337.5,98.8,337.3,98.3z"/>
	<path class="st0" d="M336.7,96.7c0.2,0.5,0.4,1,0.6,1.6C337.1,97.7,336.9,97.2,336.7,96.7z"/>
	<path class="st0" d="M336.7,116.1c-0.1,0.5-0.3,1-0.4,1.6C336.5,117.1,336.6,116.6,336.7,116.1z"/>
	<path class="st0" d="M336.1,118.3c-0.2,0.7-0.5,1.4-0.7,2.1C335.7,119.7,335.9,119,336.1,118.3z"/>
	<path class="st0" d="M335.4,120.4c-0.3,0.7-0.6,1.4-0.9,2.1C334.8,121.8,335.1,121.1,335.4,120.4z"/>
	<path class="st0" d="M334.3,123.2c-0.2,0.5-0.5,1-0.7,1.5C333.8,124.2,334,123.7,334.3,123.2z"/>
	<path class="st0" d="M327.7,133.8c-0.5,0.6-1,1.2-1.5,1.8C326.7,135,327.2,134.4,327.7,133.8z"/>
	<path class="st0" d="M325.9,136c-0.4,0.5-0.9,0.9-1.3,1.4C325.1,136.9,325.5,136.4,325.9,136z"/>
	<path class="st0" d="M320.6,141.2c0.6-0.5,1.2-1,1.8-1.6C321.8,140.1,321.2,140.7,320.6,141.2z"/>
	<path class="st0" d="M322.9,139.1c0.4-0.4,0.8-0.8,1.2-1.2C323.7,138.3,323.3,138.7,322.9,139.1z"/>
	<path class="st0" d="M331,129.2c0,0.1-0.1,0.1-0.1,0.2c0.4-0.7,0.8-1.3,1.2-2C331.8,128,331.4,128.6,331,129.2z"/>
	<path class="st0" d="M328.1,133.4c0.4-0.5,0.7-0.9,1.1-1.4C328.8,132.4,328.4,132.9,328.1,133.4z"/>
	<path class="st0" d="M329.6,131.3c0.3-0.5,0.7-1,1-1.5C330.3,130.4,329.9,130.8,329.6,131.3z"/>
	<path class="st0" d="M333.2,125.3c-0.3,0.6-0.6,1.1-0.9,1.6C332.6,126.4,332.9,125.9,333.2,125.3z"/>
	<path class="st0" d="M336.9,115.4c0.1-0.6,0.3-1.2,0.4-1.8c-0.1,0.5-0.2,0.9-0.3,1.4C337,115.1,337,115.2,336.9,115.4z"/>
	<path class="st0" d="M337.8,108.8c0,0.5-0.1,1.1-0.1,1.6C337.8,109.9,337.8,109.4,337.8,108.8z"/>
	<path class="st0" d="M337.7,111c-0.1,0.7-0.2,1.4-0.3,2.2C337.5,112.5,337.6,111.7,337.7,111z"/>
	<path class="st0" d="M337.8,108.1c0-0.5,0-1.1,0-1.6C337.9,107,337.9,107.6,337.8,108.1z"/>
	<path class="st0" d="M338.6,105.3c0-0.4-0.1-0.9-0.1-1.3C338.6,104.4,338.6,104.9,338.6,105.3z"/>
	<path class="st0" d="M338,100.8c0.1,0.3,0.1,0.6,0.2,0.9c-0.1-0.5-0.2-0.9-0.3-1.4C337.9,100.5,337.9,100.6,338,100.8z"/>
	<path class="st0" d="M338.5,103.6c-0.1-0.5-0.2-1.1-0.3-1.6C338.3,102.5,338.4,103,338.5,103.6z"/>
	<path class="st0" d="M336.5,96.3c0-0.1-0.1-0.2-0.1-0.2c0,0,0,0,0,0C336.5,96.1,336.5,96.2,336.5,96.3z"/>
	<path class="st0" d="M336.1,95.4c-0.1-0.1-0.1-0.3-0.2-0.4C336,95.1,336.1,95.2,336.1,95.4C336.1,95.4,336.1,95.4,336.1,95.4z"/>
	<path class="st0" d="M333.6,91.1c0,0.1,0.1,0.1,0.1,0.2c-0.3-0.5-0.7-1-1.1-1.4C333,90.3,333.3,90.7,333.6,91.1z"/>
	<path class="st0" d="M335.8,94.7c-0.3-0.5-0.5-1-0.8-1.5C335.3,93.7,335.6,94.2,335.8,94.7z"/>
	<path class="st0" d="M334.8,92.8c-0.2-0.4-0.5-0.8-0.7-1.2C334.3,92,334.5,92.4,334.8,92.8z"/>
	<path class="st0" d="M332.5,89.6c0,0-0.1-0.1-0.1-0.1c0,0,0,0,0,0C332.4,89.5,332.5,89.6,332.5,89.6z"/>
	<path class="st0" d="M331.9,88.8c-0.1-0.1-0.2-0.3-0.3-0.4C331.6,88.6,331.7,88.7,331.9,88.8C331.9,88.8,331.9,88.8,331.9,88.8z"/>
	<path class="st0" d="M331.2,88.1c-0.4-0.5-0.9-0.9-1.3-1.3C330.3,87.2,330.8,87.6,331.2,88.1z"/>
	<path class="st0" d="M182.2,96c0.2-0.1,0.3-0.1,0.5-0.2c0.4-0.2,0.9-0.4,1.3-0.6c-0.4,0.2-0.9,0.4-1.3,0.6
		C182.5,95.9,182.4,95.9,182.2,96z"/>
	<path class="st0" d="M235.6,202.3c-0.1,0.4-0.2,0.7-0.3,1.1c0,0,0,0,0,0C235.4,203,235.5,202.7,235.6,202.3z"/>
	<path class="st0" d="M235.2,203.8c-0.1,0.2-0.1,0.5-0.2,0.7c0,0,0,0,0,0C235,204.2,235.1,204,235.2,203.8z"/>
	<path class="st0" d="M235.3,206.9c-0.1,0.6-0.1,1.2-0.2,1.8C235.2,208,235.3,207.4,235.3,206.9z"/>
	<path class="st0" d="M234.8,205.6c0-0.2,0.1-0.4,0.1-0.6C234.8,205.2,234.8,205.4,234.8,205.6C234.8,205.6,234.8,205.6,234.8,205.6
		z"/>
	<path class="st0" d="M235.1,211c0,0.6,0,1.2,0.1,1.8c0-0.4-0.1-0.9-0.1-1.3C235.1,211.3,235.1,211.1,235.1,211z"/>
	<path class="st0" d="M235.9,217c0.1,0.6,0.3,1.2,0.5,1.7C236.2,218.1,236,217.6,235.9,217z"/>
	<path class="st0" d="M236.5,219c0.2,0.6,0.4,1.2,0.6,1.7c0-0.1,0-0.1-0.1-0.2C236.8,220.1,236.6,219.6,236.5,219z"/>
	<path class="st0" d="M238.9,224.5c-0.3-0.6-0.7-1.1-0.9-1.7C238.3,223.3,238.6,223.9,238.9,224.5z"/>
	<path class="st0" d="M238,222.7c-0.3-0.6-0.6-1.2-0.8-1.7C237.4,221.6,237.7,222.2,238,222.7z"/>
	<path class="st0" d="M239.1,224.7c0.3,0.5,0.7,1.1,1,1.6C239.8,225.8,239.4,225.3,239.1,224.7z"/>
	<path class="st0" d="M240.3,226.6c0.4,0.5,0.8,1,1.2,1.5C241.1,227.6,240.7,227.1,240.3,226.6z"/>
	<path class="st0" d="M244.9,231.5c0.5,0.4,1.1,0.9,1.6,1.3C246,232.3,245.5,231.9,244.9,231.5z"/>
	<path class="st0" d="M246.9,233c0.6,0.4,1.2,0.8,1.8,1.2C248.1,233.8,247.5,233.4,246.9,233z"/>
	<path class="st0" d="M294.4,234.8c-0.2,0.1-0.4,0.1-0.5,0.2c-0.2,0.1-0.4,0.1-0.5,0.2c-0.1,0-0.3,0.1-0.4,0.1
		c0.2-0.1,0.6-0.2,2-0.7C294.8,234.6,294.6,234.7,294.4,234.8z"/>
	<path class="st0" d="M601.9,119.7c-0.8,0.4-1.6,0.8-2.4,1.1C600.3,120.4,601.1,120,601.9,119.7z"/>
</g>
<g>
	<g>
		<path class="st1" d="M510.7,106.7c1.3,2.5-0.6,6.1-4.4,8.1c-3.7,2-7.9,1.6-9.2-0.9c-1.3-2.5,0.6-6.1,4.4-8.1
			C505.3,103.8,509.4,104.2,510.7,106.7z"/>
	</g>
	<g>
		<rect x="509.7" y="73.3" class="st1" width="1.4" height="35.3"/>
	</g>
</g>
<g>
	<g>
		<g>
			<path class="st1" d="M171,63.2c-1.7-3.1-6.9-3.7-11.6-1.1c-4.7,2.5-7.2,7.1-5.5,10.3c1.7,3.1,6.9,3.7,11.6,1.1
				C170.2,71,172.6,66.4,171,63.2z M164.5,71.7c-3.7,2-8.4,3-9.7,0.6c-1.3-2.4,2.2-5.9,5.8-7.9c3.7-2,7.8-2.6,9.1-0.2
				C171,66.7,168.1,69.7,164.5,71.7z"/>
		</g>
	</g>
	<g>
		<path class="st1" d="M169.7,20.9v42.3c0,0,0,0,0.1,0c0.7,0.3,1,1.3,1,2.3h0.6V20.9H169.7z"/>
	</g>
</g>
<g>
	<path class="st1" d="M263.9,193.4c-1.4-2.5-5.5-2.8-9.2-0.8c-2.9,1.6-4.7,4.1-4.7,6.4h0l0.5,35.3l1.4,0l-0.4-32.3
		c1.8,1.4,5.2,1.3,8.2-0.4C263.3,199.5,265.2,195.8,263.9,193.4z"/>
</g>
<g>
	<path class="st1" d="M300.1,74.7c-1.8-1-2.8-2-3.4-2.8c-0.5-0.6-0.9-1.3-1.1-2.1h-0.7V102c-1.8-1.4-5.1-1.4-8.2,0.2
		c-3.7,2-5.7,5.6-4.4,8.1c1.3,2.5,5.4,2.9,9.2,0.9c2.9-1.5,4.7-4.1,4.8-6.3h0V75c1.6,2.1,5.6,3.2,7,5.5c1.4,2.4,0.5,6.1,0.5,6.1
		C306.9,79.1,303.5,76.6,300.1,74.7z"/>
</g>
<g>
	<path class="st1" d="M471.3,56.4c-0.9-0.5-1.6-1-2.3-1.5c-0.5-0.4-0.9-0.7-1.3-1.2c0,0-0.1-0.1-0.1-0.1v0c-0.2-0.3-0.4-0.6-0.5-0.9
		c-0.4-0.8-0.6-1.7-0.7-2.6h-0.5V91c-2.3-1.8-6.5-1.8-10.4,0.3c-4.7,2.5-7.2,7.1-5.5,10.3c1.7,3.1,6.9,3.7,11.6,1.1
		c3.7-2,6-5.1,6-7.9h0V58c2.4,2,6.3,3.4,7.7,5.8c1.8,3.1,0.7,7.7,0.7,7.7C480,62,475.7,58.9,471.3,56.4z M460.7,100.9
		c-3.7,2-8.4,3-9.7,0.6c-1.3-2.4,2.2-5.9,5.8-7.9c3.7-2,7.8-2.6,9.1-0.2C467.2,95.9,464.3,98.9,460.7,100.9z"/>
</g>
<g>
	<path class="st1" d="M330.1,93.2c2.5-6.8-0.8-9.2-4.1-11c-1.8-1-2.8-2-3.4-2.8c-0.5-0.6-0.9-1.3-1.1-2.1h-0.7v32.3
		c-1.8-1.4-5.1-1.4-8.2,0.2c-3.7,2-5.7,5.6-4.4,8.1c1.3,2.5,5.4,2.9,9.2,0.9c2.9-1.5,4.7-4.1,4.8-6.3h0V90.1c1.6,2.1,5.6,3.2,7,5.5
		c1.4,2.4,0.5,6.1,0.5,6.1C331.4,97.6,331.2,95,330.1,93.2z M329.9,93c-0.9-1.4-2.4-2.4-3.9-3.2c-2.3-1.3-3.3-2.5-3.8-3.4v-3.9
		c1.6,2.1,5.6,3.2,7,5.5C330.1,89.6,330.1,91.7,329.9,93z"/>
</g>
<g>
	<path class="st1" d="M284.3,131.2C284.4,131.2,284.4,131.1,284.3,131.2c1.3-3.6,1-5.9,0-7.6c2.5-6.8-0.8-9.2-4.1-11
		c-1.8-1-2.8-2-3.4-2.8c-0.5-0.6-0.9-1.3-1.1-2.1h-0.7v14.1v2.5v0.5v0.9v14.2c-1.8-1.4-5.1-1.4-8.2,0.2c-3.7,2-5.7,5.6-4.4,8.1
		c1.3,2.5,5.4,2.9,9.2,0.9c2.9-1.5,4.7-4.1,4.8-6.3h0v-14.1v-0.6c1.6,2.1,5.6,3.2,7,5.5c1.4,2.4,0.5,6.1,0.5,6.1
		C285.7,135.6,285.5,133,284.3,131.2z M276.5,112.9c1.6,2.1,5.6,3.2,7,5.5c0.9,1.6,0.9,3.7,0.7,5c-0.9-1.4-2.4-2.4-3.9-3.2
		c-2.3-1.3-3.3-2.5-3.8-3.4V112.9z M284.2,130.9C284.2,130.9,284.2,130.9,284.2,130.9C284.2,130.9,284.2,130.9,284.2,130.9
		c-1-1.3-2.4-2.3-3.9-3.1c-2.3-1.3-3.3-2.5-3.8-3.4v-0.7v-3.2c1.6,2.1,5.6,3.2,7,5.5C284.4,127.5,284.4,129.6,284.2,130.9z"/>
</g>
<g>
	<path class="st1" d="M588.1,99.9c2.8-8.2-1.3-11.1-5.4-13.4c-0.9-0.5-1.6-1-2.3-1.5c-0.5-0.4-0.9-0.7-1.3-1.2c0,0-0.1-0.1-0.1-0.1
		v0c-0.2-0.3-0.4-0.6-0.5-0.9c-0.4-0.8-0.6-1.7-0.7-2.6h-0.5v40.8c-2.3-1.8-6.5-1.8-10.4,0.3c-4.7,2.5-7.2,7.1-5.5,10.3
		c1.7,3.1,6.9,3.7,11.6,1.1c3.7-2,6-5.1,6-7.9h0v-20c2.2,2,6.1,3.3,7.6,5.8c1.7,2.9,0.6,7.1,0.6,7.1c1.7-4.2,1.7-7.1,0.8-9.2
		C589.4,104.6,589.2,101.9,588.1,99.9z M572.1,130.9c-3.7,2-8.4,3-9.7,0.6c-1.3-2.4,2.2-5.9,5.8-7.9c3.7-2,7.8-2.6,9.1-0.2
		C578.6,125.9,575.7,129,572.1,130.9z M579.1,88c2.4,2,6.2,3.4,7.7,5.8c1,1.7,1.1,3.9,1,5.5c-1.2-1.8-3.1-3.1-5-4.2
		c-1.7-1-2.9-1.9-3.7-2.8V88z M587.8,108.1c0-0.1-0.1-0.2-0.1-0.2c0,0,0-0.1,0-0.1c-0.1-0.1-0.1-0.2-0.2-0.3c0,0,0,0.1,0,0.1
		c-1.1-1.6-2.8-2.8-4.6-3.7c-2-1.1-3.1-2.2-3.8-3.1v-4c2.4,2,6.2,3.4,7.7,5.8C587.8,104.3,587.9,106.4,587.8,108.1z"/>
</g>
<g>
	<path class="st1" d="M53.9,147.7c-3.9-2.1-8-2.6-12.1-1.5c-1.5-8.8-2.8-17-3.8-23.3c6.7-6,11.4-10.3,14.2-21.3
		c3.7-14.9-9.8-24-9.8-24L42,77.9c-0.6,0.4-14.3,9.6-7.5,39.4c0.1,0.3,0.1,0.5,0.2,0.8c-2.7,2.9-5.8,5.8-9.2,8.8
		c-16.3,14-22.5,30-16.7,42.9c4.4,9.9,15.3,15.4,27.1,13.8c0.2,0,4.6-0.2,9.9-1.7c1.7,11.6,2.7,19.7,2.8,19.9
		c0,0.1,2.2,11.5-8.6,15.7c-6,2.3-12,1.5-16.4-1.7c-4.8-3.4-4.1-12-3.9-10.4c0.8,4.8,5.4,8.1,10.2,7.3c4.8-0.8,8.1-5.4,7.3-10.2
		c-0.7-4.3-4.4-7.4-8.6-7.4c-4.8-0.3-10,2.6-10.8,8.8c-0.7,5.2,1.1,9.9,5,13c3.6,2.9,8.4,3.9,13.4,3.1c1.5-0.2,2.9-0.6,4.4-1.2
		c2.7-1,4.6-2.5,6-4.1c0,0,0,0,0,0c6.4-6.3,4.7-14,4.7-14s-1.4-8.2-3.3-19.5c0,0,0,0,0.1,0c8.2-2.8,13.4-7.8,14.9-14.3
		C64.4,159.5,60.8,151.5,53.9,147.7z M36.4,112.4c-1.2-8.3,0-13.8,0.4-15.3c2.8-7.8,7.4-12.4,8.7-13.5c1.1,2.1,2.1,4.9,2.1,8.3
		c0.1,7.2-3.5,15.2-10.8,23.7C36.6,114.3,36.5,113.2,36.4,112.4z M45.4,180.1c-1.6,0.7-3.2,1.2-4.9,1.6c-2.8,0.5-4.8,0.6-4.9,0.6
		c-5.7,0.3-11.1,0.4-15.7-3.4c-3.5-2.9-6.1-7.5-7.3-12c0.1,0.1,0.1,0.1,0.1,0.1c-4-14.2,6.5-25.6,17.5-36.8c2.1-2.1,4-3.9,5.9-5.6
		c1.4,6.8,2.8,14.4,4.1,22.1c-2.6,1-5.2,2.7-7.5,5.1c-0.1,0.1-9,9-0.5,18.2c0,0,3,2.7,7.7,1.7c0,0-7.3-2-6.9-11
		c0.2-4,3.8-6.9,8.2-7.8C42.8,162.6,44.2,172.1,45.4,180.1z M47.3,179.2c-1.3-8-2.9-17.3-4.4-26.5c5.1-0.4,10.8,2,13.6,8.3
		C60.1,169.2,54.7,175.6,47.3,179.2z"/>
</g>
<g>
	<g>
		<path class="st1" d="M202.6,31.5c-1.8-1-2.8-2-3.4-2.8c-0.5-0.6-0.9-1.3-1.1-2.1h-0.7v32.3c-1.8-1.4-5.1-1.4-8.2,0.2
			c-3.7,2-5.7,5.6-4.4,8.1c1.3,2.5,5.4,2.9,9.2,0.9c2.9-1.5,4.7-4.1,4.8-6.3h0v-30c1.6,2.1,5.6,3.2,7,5.5c1.4,2.4,0.5,6.1,0.5,6.1
			C209.4,35.9,206,33.5,202.6,31.5z"/>
	</g>
	<g>
		<rect x="179.3" y="63.2" class="st1" width="24.3" height="1.5"/>
	</g>
</g>
<g>
	<path class="st1" d="M488.4,123.2L488.4,123.2L488.4,123.2l-71.8,0v3.9h0v4.4h0v2.3h0v21.6c-1.8-1.4-5.1-1.4-8.2,0.2
		c-3.7,2-5.7,5.6-4.3,8.1c1.3,2.5,5.4,2.9,9.1,0.9c2.9-1.5,4.7-4,4.7-6.2h0v-24.5h22.1v21.6c-1.8-1.4-5.1-1.4-8.1,0.2
		c-3.7,2-5.7,5.6-4.3,8.1c1.3,2.5,5.4,2.9,9.1,0.9c2.9-1.5,4.7-4,4.7-6.2h0v-24.5h22.1v21.6c-1.8-1.4-5.1-1.4-8.2,0.2
		c-3.7,2-5.7,5.6-4.3,8.1c1.3,2.5,5.4,2.9,9.1,0.9c2.9-1.5,4.7-4,4.7-6.2h0v-24.5H487v21.6c-1.8-1.4-5.1-1.4-8.1,0.2
		c-3.7,2-5.7,5.6-4.3,8.1c1.3,2.5,5.4,2.9,9.1,0.9c2.9-1.5,4.7-4,4.7-6.2h0V123.2z M417.9,131.5v-4.4h22.1v4.4H417.9z M441.4,131.5
		v-4.4h22.1v4.4H441.4z M464.9,131.5v-4.4H487v4.4H464.9z"/>
</g>
<g>
	<path class="st1" d="M338.8,173.2L338.8,173.2L338.8,173.2l-48.4,0v3.9h0v4.4h0v2h0v21.8c-1.8-1.4-5.1-1.4-8.1,0.2
		c-3.7,2-5.7,5.6-4.3,8.1c1.3,2.5,5.4,2.9,9.1,0.9c2.9-1.5,4.7-4,4.7-6.2h0v-24.8H314v21.8c-1.8-1.4-5.1-1.4-8.1,0.2
		c-3.7,2-5.7,5.6-4.3,8.1c1.3,2.5,5.4,2.9,9.1,0.9c2.9-1.5,4.7-4,4.7-6.2h0v-24.8h22.1v21.8c-1.8-1.4-5.1-1.4-8.1,0.2
		c-3.7,2-5.7,5.6-4.3,8.1c1.3,2.5,5.4,2.9,9.1,0.9c2.9-1.5,4.7-4,4.7-6.2h0V173.2z M291.8,181.4V177H314v4.4H291.8z M315.3,181.4
		V177h22.1v4.4H315.3z"/>
</g>
<g>
	<path class="st1" d="M382.7,116.7L382.7,116.7L382.7,116.7l-24.9,0v3.9h0v4.3h0v2h0v21.9c-1.8-1.4-5.1-1.4-8.1,0.2
		c-3.7,2-5.7,5.6-4.3,8.1c1.3,2.5,5.4,2.9,9.1,0.9c2.9-1.5,4.7-4,4.7-6.2h0v-24.9h22.1v21.9c-1.8-1.4-5.1-1.4-8.1,0.2
		c-3.7,2-5.7,5.6-4.3,8.1c1.3,2.5,5.4,2.9,9.1,0.9c2.9-1.5,4.7-4,4.7-6.2h0V116.7z M359.2,124.8v-4.3h22.1v4.3H359.2z"/>
</g>
<g>
	<path class="st1" d="M149,79.5L149,79.5L149,79.5l-24.9,8.2v5.4l0,0v4.8h0v2.7l0,0v18.8c-1.8-1.4-5.1-1.4-8.2,0.2
		c-3.7,2-5.7,5.6-4.3,8.1c1.3,2.5,5.4,2.9,9.1,0.9c2.9-1.5,4.7-4,4.7-6.2h0v-22.2l22.1-7.3v18.8c-1.8-1.4-5.1-1.4-8.1,0.2
		c-3.7,2-5.7,5.6-4.3,8.1c1.3,2.5,5.4,2.9,9.1,0.9c2.9-1.5,4.7-4,4.7-6.2h0V79.5z M125.5,97.5v-4.8l22.1-7.3v4.8L125.5,97.5z"/>
</g>
<g>
	<path class="st1" d="M423,71.5L423,71.5L423,71.5l-24.9,8.2v5.4l0,0v4.8h0v2.7l0,0v18.8c-1.8-1.4-5.1-1.4-8.2,0.2
		c-3.7,2-5.7,5.6-4.3,8.1c1.3,2.5,5.4,2.9,9.1,0.9c2.9-1.5,4.7-4,4.7-6.2h0V92.1l22.1-7.3v18.8c-1.8-1.4-5.1-1.4-8.1,0.2
		c-3.7,2-5.7,5.6-4.3,8.1c1.3,2.5,5.4,2.9,9.1,0.9c2.9-1.5,4.7-4,4.7-6.2h0V71.5z M399.5,89.5v-4.8l22.1-7.3v4.8L399.5,89.5z"/>
</g>
<g>
	<path class="st1" d="M110.2,96.3c-1.3-2.5-5.4-2.9-9.1-0.9c-2.9,1.5-4.7,4-4.7,6.2h0v23.1l-22.1,7.3v-19.7c1.8,1.4,5.1,1.4,8.1-0.2
		c3.7-2,5.7-5.6,4.3-8.1c-1.3-2.5-5.4-2.9-9.1-0.9c-2.9,1.5-4.7,4-4.7,6.2h0v35l0,0v0l24.8-8.2v-5.4l0,0V127h0v-2.7l0,0v-19.7
		c1.8,1.4,5.1,1.4,8.2-0.2C109.6,102.4,111.5,98.8,110.2,96.3z M96.3,131.3l-22.1,7.3v-3.9l22.1-7.3V131.3z"/>
</g>
<g>
	<path class="st1" d="M566.7,50.5c-1.3-2.5-5.4-2.9-9.1-0.9c-2.9,1.5-4.7,4-4.7,6.2h0V79l-22.1,7.3V66.6c1.8,1.4,5.1,1.4,8.1-0.2
		c3.7-2,5.7-5.6,4.3-8.1c-1.3-2.5-5.4-2.9-9.1-0.9c-2.9,1.5-4.7,4-4.7,6.2h0v35l0,0v0l24.8-8.2v-5.4l0,0v-3.9h0v-2.7l0,0V58.8
		c1.8,1.4,5.1,1.4,8.2-0.2C566.1,56.6,568,53,566.7,50.5z M552.8,85.5l-22.1,7.3V89l22.1-7.3V85.5z"/>
</g>
<g>
	<path class="st1" d="M322.1,8c-1.3-2.5-5.4-2.9-9.1-0.9c-2.9,1.5-4.7,4-4.7,6.2h0v24.8h-22.1V16.3c1.8,1.4,5.1,1.4,8.2-0.2
		c3.7-2,5.7-5.6,4.3-8.1c-1.3-2.5-5.4-2.9-9.1-0.9c-2.9,1.5-4.7,4-4.7,6.2h0v35h0v0h24.9v-5.2h0v-3h0v-2h0V16.3
		c1.8,1.4,5.1,1.4,8.1-0.2C321.4,14.1,323.4,10.5,322.1,8z M308.2,43.2h-22.1v-3h22.1V43.2z"/>
</g>
<g>
	<path class="st1" d="M268.9,40.6v-5.9l0-2.9L246.7,39v0l0,0.1l-24.8,8.2v5.4l0,0V56l0,0v2.7l0,0v20.2c-1.8-1.4-5.1-1.4-8.1,0.2
		c-3.7,2-5.7,5.6-4.3,8.1c1.3,2.5,5.4,2.9,9.1,0.9c2.9-1.5,4.7-4,4.7-6.2h0V58.2l22.1-7.4V71c-1.8-1.4-5.1-1.4-8.1,0.2
		c-3.7,2-5.7,5.6-4.3,8.1c1.3,2.5,5.4,2.9,9.1,0.9c2.9-1.5,4.7-4,4.7-6.2h0V50.4l20.7-6.9v21c-1.8-1.4-5.1-1.4-8.1,0.2
		c-3.7,2-5.7,5.6-4.3,8.1c1.3,2.5,5.4,2.9,9.1,0.9c2.9-1.5,4.7-4,4.7-6.2h0V41.9V40.6L268.9,40.6z M223.3,55.5v-3.4l22.1-7.4v3.6
		L223.3,55.5z M246.7,47.8v-3.6l20.7-6.9V41L246.7,47.8z"/>
</g>
</svg>
