<?xml version="1.0" encoding="utf-8"?>
<!-- Generator: Adobe Illustrator 25.2.1, SVG Export Plug-In . SVG Version: 6.00 Build 0)  -->
<svg version="1.1" id="Layer_1" xmlns="http://www.w3.org/2000/svg" xmlns:xlink="http://www.w3.org/1999/xlink" x="0px" y="0px"
	 viewBox="0 0 976.6 333" style="enable-background:new 0 0 976.6 333;" xml:space="preserve">
<path d="M38.6,12.1c-3.8,4.1-6,14-6.8,30.9l-0.7,13.3L18.6,45.2C7.2,35.1,3.9,32.6,4.8,34.9C5,35.4,11,41,18.2,47.5l13.2,11.6
	l0.7,13.6l0.8,13.6l-3.1,3.1l-3,3l-10.3-8.6C10.9,79,5.8,75.1,5.2,75.1C4,75.2,7.9,78.9,18.6,88.2l6.4,5.6l-6.3,6.9
	c-3.5,3.8-7.5,8.6-8.9,10.6c-1.3,2.1-3.1,3.8-3.9,3.8c-0.9,0-1.3,0.6-1,1.4c0.3,0.8-0.5,3.6-1.7,6.3c-5,10.4-6.1,15.3-6.1,26.8
	c0,10,0.3,11.6,2.9,17.2c3.3,7.2,10.7,14.7,17.7,18.1c6,2.9,18.4,5.5,23.1,4.9c5.6-0.7,6.5,1,7.9,14.4c1.2,11.5,0.6,22.3-1.2,23.4
	c-0.5,0.3-3.3-1.3-6.3-3.5l-5.4-4.1l0.5-5.2c0.5-4.7,0.2-5.6-2.2-8.6c-2.7-3.1-3.1-3.2-8.4-2.9c-3.1,0.2-6.3,0.7-7.2,1.1
	c-1,0.5-3.2-0.6-6.7-3.3c-2.9-2.3-5.7-4-6.3-3.8s1.4,2.3,4.5,4.7c5.7,4.4,6.4,5.5,4.5,6.7c-2.2,1.3-4.9,9-4.9,14.2
	c0,6,2.3,11.2,6.7,15.4c3.7,3.6,7.3,4.8,13.8,4.8c7,0,10.1-1.3,15.1-6.1l4.1-4.1l20.8,15.6l20.7,15.6l-3.9,1.6
	c-2.1,0.9-6.9,2-10.8,2.3l-7,0.7l5.5,0.8c5.4,0.7,13.2-0.4,17-2.4c1.4-0.8,4.4,0.8,14.2,7.3c6.8,4.5,15.5,9.7,19.3,11.6l6.9,3.4
	l-3.6,1.8c-4.8,2.5-9.6,8.1-10.4,12.4c-2.7,14.7,16.3,24.8,31.6,16.7c6.3-3.2,8.9-7.4,9.7-15.7c0.6-5.7,0.6-5.7,3.5-5.1
	c10.5,2.1,26.3,2.8,37.8,1.7c33.9-3.2,61.6-13.8,99.5-38.1c52.9-33.8,98.4-52.6,148-61c12.6-2.1,50.4-7,54.2-7h2.3v28.2l-0.1,28.3
	l-1.9-2.7c-1.1-1.4-5.8-5.8-10.5-9.8c-4.7-3.9-9.2-8.4-10-10c-1.9-3.7-1.9-10.3,0-14c2-3.9,0.4-3.8-2.9,0c-5.6,6.7-4.3,15.7,3.3,23
	c2.6,2.5,6.6,6,8.9,7.8c5.2,4.1,9.9,10.8,12.2,17.5c1.5,4.4,2.3,5.3,4.6,5.5l2.7,0.4l-0.7-37c-0.5-24.7-0.4-37.2,0.3-37.6
	c0.5-0.4,8.1-1.6,16.8-2.7c20.1-2.5,40.5-6.2,55.6-10c9.9-2.5,39.4-11.3,45-13.5c1.5-0.6,1.7,0.7,1.7,13.5
	c0,16.4-1.9,14.9,15.5,12.6c6.1-0.8,19-2.4,28.8-3.6l17.7-2.2v-22.3v-22.3l7.8-2.9c36.2-13.9,82.6-17.8,124-10.3l9.7,1.7l0.3,31.7
	c0.2,30.9,0.3,31.7,2.2,31.7c1.9,0,2-0.7,2-29v-29l2.3,1.4c3.7,2.4,8.9,2.9,13.6,1.3c5.2-1.9,6.6-1.5,31.5,8
	c39.5,15,96.2,34,97.5,32.8c1-1.1-1.8-2.3-14.4-6c-18.7-5.5-44.2-14.3-74-25.5c-14.3-5.4-27.9-10.3-30.1-10.9l-4.1-1.1l1.9-4
	c1.7-3.4,1.8-4.5,0.8-7.5c-0.6-1.9-2.3-4.4-3.7-5.5c-1.4-1.1-2.1-2-1.6-2c1.5,0,18.8,6.6,42.8,16.2c11.6,4.7,25.2,10,30.3,11.8
	l9.2,3.4v4.4c0,4.6,2.1,8.6,5.4,10.4c6.6,3.6,15,2.7,20.1-2.2l3-2.8l7.3,2.3c4.5,1.4,7.2,1.9,6.9,1.2c-0.2-0.7-3.4-2-7-3.1l-6.7-1.9
	V151v-7.8l5.3,1.9c2.8,1,6,2.1,7.1,2.6c1.3,0.5,1.7,0.3,1.4-0.6c-0.2-0.8-3.3-2.3-6.9-3.5l-6.4-2.2l-0.3-7.6
	c-0.2-4.2-0.1-7.7,0.1-7.7c0.3,0,3.5,1.1,7.2,2.5c3.9,1.5,6.5,2.1,6.3,1.4c-0.2-0.6-3.4-2.3-7.1-3.6l-6.7-2.5v-7.5
	c0-8.5-0.6-8.2,8.8-4.4c3.4,1.3,5.2,1.7,5,0.9c-0.2-0.6-3.4-2.3-7.1-3.7l-6.7-2.6v-7.2c0-8-0.6-10.3-2.6-10.3
	c-1.1,0-1.4,1.8-1.4,7.9v7.9l-5.5-2.1l-5.5-2.2V81.3c0-10.5-0.3-19.2-0.7-19.2c-0.8,0-28.9,3.5-37,4.6l-4.3,0.5v7
	c0,3.8-0.4,6.9-0.9,6.9s-10.2-4.4-21.7-9.9c-24.2-11.5-39.1-17.5-56-22.7c-10.2-3.2-12.4-4.2-13.8-6.5c-0.9-1.6-4.2-4.7-7.3-7.1
	c-7.2-5.5-10.8-10.1-13.8-17.4c-1.7-4.2-3-6-4.4-6.2c-2-0.3-2.1,0.1-2.1,13.8v14.2l-2.2-0.5c-1.3-0.4-9.2-1.1-17.6-1.7
	c-26.7-1.9-52.6,1.1-79.8,9.1c-7.7,2.2-20,5.8-27.4,8c-7.4,2.2-23.3,6.4-35.4,9.4l-21.9,5.5l-3.2-2c-6.8-4.2-14.7-14.6-17-22.3
	c-1-3.4-1.7-4.3-3.9-4.5l-2.6-0.3v16.9v17l-7.7,1.1c-13.3,1.8-37.2,3.1-80.3,4.1c-42.4,1-61.9,2.4-79.3,5.8l-9.7,1.9l-4.4-4.7
	c-4.6-4.9-7.5-9.8-9.5-16.3c-1-2.9-1.8-3.7-3.7-3.7h-2.4v15V92l-10.2,3.2c-12.1,3.7-30.1,10.7-44.5,17.3l-10.1,4.7l-6-1.7
	c-4-1.1-7.5-1.4-10.4-1c-9,1.4-16.8,9.1-16.8,16.8c0,3.4-0.3,3.6-6.9,6.7c-6.4,2.9-19,8.1-19.8,8.1c-0.2,0-0.1-2.1,0.2-4.8
	c2.1-16.3-22.8-25.1-35.6-12.6c-4.7,4.6-5.9,8.4-5.9,18.6v7.7l-4.7,0.7c-7.1,1-26.6-0.3-38-2.6c-14.8-3-33.3-9.7-33.3-12
	c0-0.6-0.9-1-2-1c-1.2,0-3.9-0.9-6-2c-3.9-2-4-2.1-4-7.5c0-5.2-0.1-5.5-2.5-5.5c-2.2,0-2.5,0.4-2.5,3.5c0,1.9-0.4,3.5-0.9,3.5
	c-1.9,0-17.9-12.3-39.1-30C72.4,91.9,61.4,82.7,60,81.5l-2.4-2l2.9-6.5c5.2-11.5,6.4-23.8,3.5-37.7C59.7,14.4,47.1,3,38.6,12.1z
	 M49.9,23.2c3.4,6.8,4.5,18.7,2.8,29.6c-1.2,7.6-4.7,16.3-6.6,16.3c-0.6,0-2.8-1.8-5-4l-3.8-3.9L38,48.9c1.1-20.9,3.8-32.3,7.4-31.6
	C46.3,17.5,48.4,20.1,49.9,23.2z M812.3,42.7c-0.1,0.1-3.2-0.5-6.9-1.3c-6-1.3-6.8-1.8-7.7-4.5c-0.6-1.7-1.1-4.4-1.1-6
	c0-2.9,0.2-2.8,8,4.3C808.9,39.2,812.4,42.6,812.3,42.7z M775.1,39.1c18.2,1.5,16.5,0.4,16.5,11.8v9.8l-6.7-0.7
	c-11.4-1.3-36.1-1-49.8,0.6c-16,1.9-31.9,5.7-54,13c-27.5,9.1-66.1,20.2-67,19.3c-0.2-0.2,0.1-2.2,0.8-4.5c1.3-5-0.1-10.8-3.7-15
	l-2.3-2.7l22.6-5.7c22.9-5.7,27.7-7.1,54.6-15.3C718.9,39.8,745.4,36.6,775.1,39.1z M816.5,47.8c1.2,2.6,1.4,6.3,0.5,8.7
	c-0.5,1.3-1.4,1-5.1-1.7c-4-2.8-11.3-10.5-11.3-11.9c0-0.3,3.3,0.2,7.4,1C814.1,45.1,815.6,45.8,816.5,47.8z M841.1,53.2
	c16.7,5.6,29,10.8,52.8,22.3l17.7,8.5v8.1c0,4.4-0.2,8-0.5,8c-0.3,0-5.1-2.1-10.7-4.6c-27.4-12.3-36.4-16-50.3-20.9
	c-8.2-2.9-18.1-6-22-6.9c-6.2-1.6-7.2-2.1-8.5-5c-1.4-3-1.4-3.5,0.1-6.2c1-1.6,1.8-4.4,1.8-6.2C821.6,46.4,820.9,46.3,841.1,53.2z
	 M809.9,59.6c2.6,2.1,4.6,4,4.4,4.2c-0.2,0.2-3.6-0.2-7.5-0.9c-7-1.2-7.2-1.3-8.7-5c-0.8-2.1-1.5-5.3-1.5-7v-3.2l4.3,4
	C803.2,54,807.2,57.5,809.9,59.6z M598.6,70.7c0,0.1-1.9,0.5-4.2,0.9c-2.4,0.3-5.1,0.9-6,1.1c-1.6,0.5-1.8-0.3-1.8-6.9v-7.4l6,6
	C595.9,67.7,598.6,70.5,598.6,70.7z M785.5,61.7l6.1,0.7v9.9c0,9.2-0.2,9.9-1.7,9.3c-7.8-3.4-10.6-3.8-15.7-2.6
	c-2.8,0.7-12.7,1.9-22,2.7c-26.6,2.2-41.2,5.6-74.4,17.3l-17.2,6l-3.2-1.9c-4.3-2.6-10.5-3.4-15.6-2.1c-5.1,1.4-11,6.8-11.8,10.9
	c-0.6,2.8-1.1,3.1-9.8,5.6c-8.1,2.3-23.4,6.2-30.8,8l-2.8,0.6v-12.4v-12.3l10.8-2.3c15.4-3.2,50.4-12.9,74.2-20.6
	c34.4-11,47.7-14.4,67.5-16.7C744.6,61.1,779.2,61.1,785.5,61.7z M809.2,65.2c6.4,1.1,8.4,2.8,8.4,7c0,5.9-0.8,6.2-6.4,1.8
	c-5.3-4.2-10.4-9.9-8.9-9.9C802.8,64.1,805.9,64.6,809.2,65.2z M43.3,69.4l2.2,2l-3,3.8c-1.7,2.2-3.4,3.9-3.8,3.9
	c-0.5,0-0.9-3.2-1-7.2C37.5,64.1,37.3,64.1,43.3,69.4z M806.6,76.6c3.8,3.1,7.4,6.3,7.9,7.3c0.9,1.7,0.5,1.7-8.4,0.3
	c-10.6-1.6-10.3-1.3-9.7-10.9c0.4-5.9,0.5-6.2,1.9-4.3C799.1,70.2,802.8,73.6,806.6,76.6z M843.3,74.2c13.6,4.4,27.4,10.1,58.6,24
	l9.7,4.4v6.1v6.2l-4.1-1.4c-2.3-0.8-5.5-1.2-7.2-0.9c-2.5,0.5-6.4-0.7-18.2-5.8C866,99.9,844.4,92.5,830.4,89
	c-8.3-2-8.8-2.3-10.6-5.9c-1.8-3.6-1.8-3.8,0-7.1c1-1.9,1.8-4.4,1.8-5.7c0-2.1,0.3-2.3,3.3-1.7C826.6,69,834.9,71.5,843.3,74.2z
	 M950.6,84.1v15l-2.2-0.9c-1.3-0.5-4-1.6-6-2.5c-2.1-0.9-3.8-1.3-3.8-1c0,0.4-0.8,0-1.7-0.9c-1-0.8-6.3-3.5-11.8-5.9l-10-4.4v-5.3
	v-5.3l6-0.4c3.3-0.3,10.1-1.1,15-1.8c5-0.8,10.2-1.4,11.8-1.5l2.7-0.1V84.1z M602.7,73.2c1.1,0.5,3.3,2.8,4.9,5.1
	c2.3,3.1,3,5.2,3,8.8c0,2.5-0.6,5.3-1.2,6.2c-1.1,1.4-17.8,5.8-21.8,5.8c-0.7,0-1-4.2-0.8-12.2l0.3-12.2l6-1.2
	c3.3-0.6,6.4-1.2,6.8-1.3C600.4,72.2,601.6,72.6,602.7,73.2z M580.8,87.3c0.2,6.2,0.2,11.8,0,12.4c-0.7,2.6-35.1,5.8-83.7,7.9
	c-19.8,0.8-37.5,1.8-39.2,2.1l-3.3,0.6v-9.7V91l-2.6,0.3l-2.7,0.3l0.2,9.2l0.2,9.2l-3.3,0.5c-1.8,0.3-8.5,1.2-14.8,2.1
	s-12.5,1.9-13.8,2.2c-2.1,0.5-2.2,0.3-1.2-2.2c2.7-7.1,0-15.9-6.6-21.3c-4.3-3.6-5.1-3.2,10.1-5.6c17.7-2.9,29.6-3.7,80.9-5.2
	c28.7-0.8,57.3-2.1,63.6-2.8c6.3-0.7,12.5-1.4,13.7-1.5C580.3,76.1,580.4,76.6,580.8,87.3z M395.7,88.2c-0.3,0.4-1.8,0.9-3.2,1.3
	c-2.9,0.6-3.9-1-3.9-6.9v-3l3.8,4C394.5,85.8,396,87.9,395.7,88.2z M72.4,94.4c21,17.9,36.1,29.9,44.9,35.9c5.8,3.8,7.3,5.4,7.3,7.3
	c0,2.4-0.3,2.5-6.4,2.5h-6.5l-0.3-5.3c-0.3-4.5-0.6-5.2-2.5-5.5c-2.3-0.3-2.9,0.8-2.5,4.8c0.1,0.8-0.1,2.5-0.3,3.7
	c-0.5,2.1-1.1,2.3-6.5,2.3c-5.7,0-6,0.1-6,2.5c0,2.4,0.3,2.5,6,2.5h6l0.1,3.2c0,1.8,0.2,4.5,0.4,6c0.2,1.6,0,2.8-0.5,2.8
	c-1,0-9.4-6.6-30-23.6c-32-26.3-36-29.8-36-31.2c0-0.8,2.1-3.9,4.8-6.7c2.6-2.9,6.3-7.3,8.2-9.9c1.9-2.5,3.6-4.6,3.8-4.6
	S63.8,87.1,72.4,94.4z M762.6,86.3c-2.5,4.2-2.5,9.4,0,13.5l1.9,3.2l-4.2,0.5c-2.3,0.3-7.3,0.8-11.2,1.2c-3.8,0.3-11.3,1.4-16.6,2.3
	l-9.5,1.8l-1.7-4.8c-2.1-5.9-6.1-8.9-13.7-10.5l-5.5-1.1l11-2.6c16.1-3.9,32.4-6.2,44.7-6.5l6.8-0.2L762.6,86.3z M807.9,86.2
	c4,0.7,7.8,1.6,8.5,2.2c1.6,1.3,1.5,5-0.2,9.2c-1.4,3.3-1.4,3.4,0.5,2.2c2.1-1.3,4.9-6.5,4.9-9.1c0-2.2,1-2.1,13.6,1.4
	c16.6,4.7,34.7,11.3,54.7,19.9l4.9,2.1l-2.1,2.6c-5.3,6.8,0.2,15.4,9.9,15.4c5.4,0,9.4-2.2,11-6c0.7-1.6,1.5-3,1.9-3
	c0.3,0,6,2.2,12.6,4.8c6.6,2.7,17.5,6.8,24.2,9.3c11.5,4.1,12.3,4.6,12.3,7.1v2.6l-3.2-1.6c-5.8-2.9-17.7-1-19,3
	c-0.5,1.4-5.2-0.3-46.8-16.7c-40.7-16.1-61.4-22.3-85-25.5c-4.7-0.7-9.4-1.3-10.5-1.5c-1.1-0.2-3.5-0.4-5.3-0.4l-3.3-0.1l2.3-3
	c1.6-2.2,2.3-4.9,2.6-9.5C796.9,84.1,796.3,84.4,807.9,86.2z M934.6,94.2l15.5,6.7l0.3,4.7c0.3,4.3,0.1,4.7-1.5,4
	c-3-1.4-11-1.7-13.1-0.6c-1.7,0.9-3.8,0.3-11.6-3l-9.6-4.1v-8.5V85l2.3,1.2C918.1,86.9,926.1,90.5,934.6,94.2z M405.4,95.7
	c4.4,3.9,6.5,6.6,7.2,9.3c0.9,3.4,0.4,10.1-0.7,10.1c-0.2,0-2-1.2-3.9-2.6c-1.9-1.5-3.4-2.4-3.4-2c0,0.3-2.2-1.8-5-4.9
	c-5.9-6.5-9.7-13.3-7.8-13.9c0.7-0.3,2-0.7,2.8-0.9C398,89.6,399.5,90.3,405.4,95.7z M383.4,108.7l-0.3,14.6l-13,4.8
	c-23.9,8.7-49.1,20.4-70,32.4c-4.4,2.5-8.3,4.6-8.7,4.6c-0.5,0-0.8-4.9-0.8-10.9v-11l4.7,2.7c8.9,4.9,21.3,2.8,27.7-4.8
	c1.4-1.7,2.9-4.3,3.2-5.6c1.1-4.2-0.2-10.1-3-13.7l-2.6-3.4l11.2-5.1c6.2-2.8,14.2-6.3,17.8-7.7c6.6-2.8,31.9-11.5,33.3-11.5
	C383.3,94.1,383.5,100.7,383.4,108.7z M692.4,97.4c-3.8,3.1-5.8,8.6-5.8,16.1v6.5l-10.2,3.9c-14.1,5.4-39.7,14.2-41.4,14.2
	c-1.1,0-1.4-1.6-1.4-6.5v-6.5l4.2,2.1c2.8,1.4,5.9,2.1,9.6,2c10.5-0.1,17.8-6.6,16.9-15.1c-0.2-2.5-0.8-5.2-1.1-6.1
	c-0.6-1.3,1.5-2.4,11.4-5.8c6.7-2.3,13.6-4.9,15.3-5.6C694.5,94.5,695.5,94.9,692.4,97.4z M403.6,117.5c0,0.3-8.6,2.7-9.2,2.5
	c-0.2,0-1.5,0.4-3,1l-2.8,1.1v-9.8v-9.7l7.5,7.2C400.2,113.8,403.6,117.2,403.6,117.5z M580.6,103.3c0.4,2,1.1,18.8,0.9,18.8
	s-2.6-1.1-5.3-2.5c-11.3-5.7-25.1-1.5-29.7,9.1l-1.9,4.1l-8.2,0.7c-4.6,0.4-20.9,1.6-36.3,2.6c-15.4,1.1-32,2.2-36.8,2.6l-8.8,0.7
	l0.3-13.9l0.3-13.9l10.5-0.6c5.8-0.4,22.9-1.2,38-1.8c26.8-1.1,56.8-3.4,66.6-5C575.2,103.3,580.6,102.9,580.6,103.3z M960.4,105.1
	l4.2,1.9v7.6c0,4.1-0.1,7.5-0.2,7.5c-0.2,0-2.5-0.9-5.3-1.9l-5-1.9l-0.3-7.6C953.5,102.1,953.6,102,960.4,105.1z M923.1,107.6
	c4.4,1.9,8,3.8,7.9,4.2c0,0.5-0.4,2.1-0.8,3.7c-2.2,7.3,6.6,14,15.2,11.7c2.5-0.7,5-2.3,6.4-4.2l2.4-3l5.2,2.2l5.2,2.2v7.3
	c0,4.5-0.4,7.4-1.1,7.4c-1,0-25.9-9.2-40.6-15.2l-8.3-3.3v-8.2c0-4.6,0.1-8.3,0.3-8.3C915,104.1,918.7,105.7,923.1,107.6z
	 M35.1,111.9c0.4,3.1,0.9,6.4,1.1,7.3c0.3,1-0.8,2.1-3,3.1c-1.8,0.9-4.9,3-6.8,4.7l-3.5,3l-2.8-2.9c-2.2-2.3-2.6-3.3-1.7-4.2
	c1.5-1.5,1.6-3.1,0-2.2c-0.7,0.5-0.8,0.3-0.4-0.5c0.5-0.7,1.1-1,1.4-0.6c0.9,0.9,14.2-12.7,13.5-13.8c-0.3-0.6-0.1-0.7,0.5-0.3
	C34,105.8,34.8,108.7,35.1,111.9z M770.2,106.7c2.9,1.2,5.2,1.4,9.9,0.9c16-2.1,31.8-0.5,56.9,5.7l13,3.2l-4.8,1.2
	c-5.9,1.5-10.4,5.6-11.2,10.1c-0.5,2.4-1.1,3.3-2.1,2.9c-0.7-0.3-7.8-1.5-15.6-2.8c-18.9-2.9-51.4-3.1-69.2-0.4
	c-14.6,2.2-31.5,6.3-45.2,11l-10.3,3.5v-10.8c0-5.9,0.3-11,0.6-11.3c0.3-0.4,2.2,0.1,4.2,0.9c2.4,1,5.7,1.4,9.9,1.1
	c7-0.4,10.5-2.4,13.8-7.6c2.4-3.7,4.7-4.5,20.5-6.6C762,104.8,765.3,104.7,770.2,106.7z M48.6,113.5c3.9,3.2,6.9,6,6.8,6.1
	c-0.2,0.1-3.6,0-7.5-0.3l-7.3-0.4v-4.3c0-2.4-0.3-5.1-0.7-6.1C38.9,105.9,40.8,107,48.6,113.5z M449.6,126v14l-4.7,0.6
	c-17.6,2.5-46,8.7-54.5,12c-1.7,0.7-1.8-0.4-1.8-13.9c0-16.7-0.9-15.3,10.9-18.1l7.4-1.8l2.4,2.9c3.3,4.2,4.5,9.1,3.2,13.9
	c-0.6,2.2-1.6,4.6-2.1,5.2c-1.8,2.3,0.8,1.4,2.9-1c4.8-5.2,5.7-12.5,2.4-18.9l-1.8-3.7l7.1-1.2c7.7-1.3,24-3.6,26.9-3.8
	C449.4,112.1,449.6,113.4,449.6,126z M629.4,128.8l-0.3,11.8l-16,4.7c-21.1,6.3-42.7,11.2-60.4,13.8c-13.3,1.9-14.7,2-18.3,0.5
	c-6.9-2.7-16.7-1.7-22.8,2.5c-1.9,1.3-8,2.3-25,3.9c-12.4,1.2-24.6,2.5-27.2,2.8l-4.8,0.6v-14v-14l6.8-0.6
	c3.7-0.4,23.4-1.8,43.7-3.2c20.4-1.4,37.5-2.7,38.2-3c0.7-0.2,1.7,1.2,2.4,3.3c2.8,8.8,11.5,13.8,22.3,13c11.4-1,17.4-6.5,18.3-16.8
	c0.6-5.9,0.6-6,4.2-6.9c2-0.5,11-2.9,20.1-5.4c9.1-2.4,17.1-4.5,17.8-4.6C629.4,117.1,629.6,119.8,629.4,128.8z M685.9,144.2
	c-0.9,0.9-24.5,10.2-40.5,15.9c-7.8,2.9-10.8,3.5-11.1,2.6c-0.3-0.7-0.4-5.9-0.3-11.5l0.1-10.3l18-6.3c9.9-3.4,21.6-7.6,26-9.2
	l8-3.1l0.3,10.6C686.5,138.7,686.3,143.8,685.9,144.2z M19.9,136.7c-4.5,10-2.2,22.7,5,26.6c2.1,1.1,2.1,1.1,0.3-1.6
	c-1.8-2.9-2.4-9.7-1-13.8c0.4-1.3,1.8-4,3.1-6.1c2.6-4.1,3.1-4.1,9,1.1c3.1,2.7,3.3,3.3,6.3,21.1c3.1,18.4,3.2,21.1,0.8,21.1
	c-0.7,0-6.9-4.6-13.8-10.2c-6.9-5.5-15.1-12.1-18.2-14.6c-4.9-3.8-5.8-5-5.8-7.8c0-4.6,3.5-15,7-21.2l3.1-5.2l3.4,2.5l3.3,2.6
	L19.9,136.7z M383.6,135.2v9.1L380,142c-5.5-3.4-15.9-3.8-21.9-0.9c-9.3,4.5-13.1,14.2-8.5,21.8c1.1,1.8,2,3.6,2,4.1
	s-2.1,1.6-4.6,2.6c-4.5,1.7-27.7,13.3-34.4,17.2c-1.9,1.1-7.5,4.4-12.3,7.2c-4.9,2.8-9,5.1-9.3,5.1c-0.2,0-0.4-6.9-0.4-15.4v-15.4
	l5.3-3.3c7.3-4.5,37.6-20,47.7-24.5c12-5.3,36.2-14.3,38.3-14.4C383.4,126.1,383.6,127.2,383.6,135.2z M53.2,134.2
	c8.1,3.9,14.3,13.4,15.1,22.8c0.7,9.7-0.1,9.6-13.1-0.9c-8-6.5-11.6-10-11.6-11.4c0-1.2-0.3-4.5-0.6-7.4l-0.7-5.2h3.3
	C47.5,132.1,50.9,133,53.2,134.2z M38.4,139.1l-0.3,3l-3-2.5l-3-2.5l2.5-1.9c2.1-1.7,2.6-1.8,3.3-0.5
	C38.4,135.5,38.6,137.5,38.4,139.1z M88.4,146.3l12.7,10.3l-3.5,0.5c-2.7,0.4-3.6,1-3.8,2.7c-0.3,2,0.1,2.2,6,2.5l6.3,0.3l-0.1,7.2
	l-0.1,7.3h2.9c2.8,0,2.8-0.1,2.8-6c0-3.3,0.2-6,0.5-6c0.2,0,3.6,2.1,7.5,4.6c14,9,33.9,17.3,50,20.9c10.1,2.3,27.2,3.5,38.4,2.8
	l10.1-0.6l0.3,16.6l0.4,16.6l-4.9,0.7c-8.2,1.4-32.1,0.8-41.7-0.9c-9.7-1.8-10.7-2.6-12.7-9.5c-0.9-3.4-1.6-4.2-3.5-4.2
	c-2.2,0-2.4,0.4-2.4,4.5c0,2.5-0.2,4.5-0.5,4.5c-1.6,0-17.4-6.9-24.5-10.7c-11-5.9-21-12.8-39.3-27.1c-11.2-8.7-14.6-11.9-14.1-13.1
	c5-11.5,5.5-20.5,1.6-29.4c-1.2-2.6-1.9-4.7-1.6-4.7C75.4,136.1,81.4,140.7,88.4,146.3z M285.6,153v15.8l-10,4.6
	c-12.3,5.8-29.9,11.9-40.5,14.2c-4.4,0.9-8.8,1.9-9.7,2.2c-1.7,0.4-1.8-0.9-1.8-16.6v-17.1l10.8,0.3c11.2,0.2,14.6-0.7,19.7-5.4
	c1.1-1,6.1-3.3,11.1-5.3c5.1-1.9,11.4-4.6,14-6c2.7-1.4,5.2-2.5,5.7-2.6C285.3,137.1,285.6,144.2,285.6,153z M132.6,139.7
	c0,0.2-0.7,0.4-1.5,0.4s-1.5-0.4-1.5-1c0-0.5,0.7-0.7,1.5-0.4C131.9,139.1,132.6,139.5,132.6,139.7z M449.6,156
	c0,15.7-0.3,16.2-7.7,13.5c-8-2.8-18.1-0.7-24.3,5c-1.4,1.3-5,2.9-8,3.6c-7.7,1.8-29.1,9.2-42.3,14.6c-21.8,8.9-53.4,25.6-74.3,39.3
	c-5.8,3.8-33.8,17.7-41.4,20.5c-16.9,6.3-34.8,10.1-53.2,11.2l-11.4,0.7l0.4-6.1c0.6-8-2.2-12.9-11-19.5
	c-5.9-4.5-12.5-11.4-11.6-12.2c0.1-0.2,3.7,0.4,7.8,1.2c5.4,1,12.8,1.3,26.8,1.1l19.2-0.3v3.2c0,2.2,0.5,3.3,1.4,3.3
	c2.3,0,66-8.1,68.4-8.7c2.1-0.5,2.2-0.9,2.2-12.7v-12.1l14.3-8.3c7.8-4.6,21.9-12.1,31.3-16.7l17.1-8.4l4.9,2.5
	c9.6,5,23.2,1.7,28.4-6.9c1.1-1.8,2-4.4,2-5.9c0-2.4,0.7-2.9,6.3-4.7c8.6-2.9,25.2-6.6,37.7-8.6c5.8-0.9,11.2-1.8,12-1.9
	C449.8,141.6,449.6,141.1,449.6,156z M629.6,154.1V166l-15.7,5c-20,6.3-31.8,9.6-41.3,11.6c-10.3,2.2-29.1,5.5-31.4,5.5
	c-1.9,0-1.9-0.1,0.2-2.3c1.1-1.2,2.8-3.9,3.7-6c1.8-4.5,0.8-10.7-2.4-14.1c-1.2-1.2-2.1-2.5-2.1-2.8c0-0.3,2.8-0.8,6.3-1.2
	c19.1-2.1,45.6-8,71.2-16c6.1-1.8,11.1-3.4,11.3-3.5C629.5,142.1,629.6,147.5,629.6,154.1z M167.2,153.2c14.1,3.5,30.4,5.3,41.6,4.5
	l8.7-0.6l0.3,16.6c0.3,14.1,0.1,16.8-1.2,17.3c-0.8,0.3-8.9,0.6-18,0.5c-22.9-0.1-39.6-3.9-60.2-13.6l-8.8-4.1v-5.9v-5.8h6
	c5.7,0,6-0.1,6-2.5c0-2.4-0.3-2.5-6-2.5h-6v-6v-5.9l6.3-0.3c5-0.2,7.5,0.3,13.1,2.6C152.8,149,161,151.6,167.2,153.2z M124.6,151.1
	v6h-6.5h-6.5v-6v-6h6.5h6.5V151.1z M687.2,163.1l-0.2,7.5l-25.9,3.6c-14.3,2-26.3,3.2-26.6,2.8c-1.1-1.8-0.2-10.3,1.2-11.1
	c0.8-0.4,11.8-4.6,24.4-9.4c12.7-4.7,23.7-9,24.5-9.5c1.2-0.6,1.6,0.1,2.1,3.9C687.1,153.5,687.3,159,687.2,163.1z M960.8,149.4
	c1.8,1.2,4.4,6.4,3.6,7.2c-0.7,0.8-18.7-5.8-18.2-6.6C947.8,147.3,956.9,147,960.8,149.4z M57.1,160.1c5,4,9.1,7.6,9.3,7.9
	c0.6,1.6-6.2,9.4-10.5,12.1c-4.1,2.7-7.3,3.8-7.3,2.6c0-0.2-0.9-7.1-2-15.2c-2.5-18.6-2.5-18.1-0.2-16.2
	C47.3,152.1,52.2,156.1,57.1,160.1z M226.6,153.7c0,0.2-0.7,0.4-1.5,0.4s-1.5-0.4-1.5-1c0-0.5,0.7-0.7,1.5-0.4
	C225.9,153.1,226.6,153.5,226.6,153.7z M954.3,155.7c4.6,1.6,8.3,3.4,8.3,3.9c0,1.6-3.5,3.4-7.7,4.1c-5.6,0.9-10.7-2.8-11.1-8
	c-0.3-2.9,0-3.7,1-3.4C945.5,152.6,949.8,154.1,954.3,155.7z M38.1,184.4c0.7,0.6-0.9,0.8-4.3,0.4c-6.9-0.8-15.7-4.9-20.5-9.5
	c-3.4-3.3-7.7-12.1-7.7-15.8C5.6,158.3,32.6,179,38.1,184.4z M124.4,166.3c0.2,2.1,0.1,3.8-0.2,3.8c-1.2,0-10.6-6.4-10.6-7.2
	c0-0.5,2.4-0.8,5.3-0.6l5.2,0.3L124.4,166.3z M506.1,169.1c-1.1,2-1.5,5.9-1.5,13.5c0,7.7-0.3,10.5-1.2,10.5
	c-4.7,0-50.9,6.1-57.8,7.6c-2.2,0.5-2,0.2,1-1.8c6.5-4.4,8-7.9,8-18.3v-9.3l10-1.2c12.9-1.6,34.5-3.7,39.3-3.9l3.8-0.1L506.1,169.1z
	 M285.6,186.9v15.8l-12.7,6.1c-16.3,7.7-29.5,12.2-40.5,13.7l-8.8,1.2v-15.8c0-17.9-1.2-15.6,9.5-17.8c13.4-2.9,36.2-11,46.5-16.5
	c2.5-1.3,4.8-2.4,5.3-2.5C285.3,171.1,285.6,178.2,285.6,186.9z M91.2,187.1c8.2,6.3,18.4,13.9,22.9,16.8c8.2,5.5,29,16,35.8,18.2
	l3.7,1.2v17.4c0,9.6-0.2,17.4-0.4,17.4c-3.1,0-27-10.6-33.3-14.7l-2.3-1.5l2.2-1.8c1.9-1.5,2.1-2.2,1.3-4.6
	c-1.7-4.8-8.5-4.1-8.5,0.7c0,4-3.2,1.4-4.4-3.4c-2.1-8.7-12.3-16.5-20.3-15.5c-3.4,0.5-4.6-0.1-11.8-5.5
	c-16.3-12.4-26.5-20.8-26.5-22c0-0.7,2.1-2,4.8-2.9c5.9-2.1,13.5-7.1,16.5-10.8C73.5,172.8,71.4,171.6,91.2,187.1z M687.4,177.8
	c-0.3,1.5-2.6,2.1-13.3,3.5c-7.2,1-16.6,2.2-21,2.8c-18.1,2.5-18.5,2.5-18.5,0.3c0-1.8,0.9-2.1,6.3-2.7c6.7-0.7,16-2,30.2-4.1
	C684.4,175.7,687.8,175.7,687.4,177.8z M413.8,183.1c-0.5,5.4,0.3,8.2,3.4,12c3.2,3.7,7.1,5.9,12.7,6.9l4.2,0.8l-6,1.2
	c-34.9,7.6-83.3,28.5-120,52c-43.7,27.9-69,38.6-100.6,42.7c-14.1,1.8-29.4,1.5-41.6-0.7l-6.3-1.1v-17.5v-17.5l2.3,0.6
	c1.2,0.3,6.1,1.1,11,1.8c8.6,1.2,10,2,7.5,4.7c-1.1,1.1-1,1.2,0.2,0.6c0.8-0.4,2.3-1.5,3.3-2.4c1.1-0.9,3.3-1.4,6-1.2
	c6.1,0.3,24.8-1.7,35.2-3.9c20.8-4.3,48.1-15.8,68.9-28.9c23.2-14.6,57.2-32.3,77.6-40.3c12.2-4.7,38.8-13.7,41-13.8
	C413.8,179.1,414.1,180,413.8,183.1z M513.9,189c3.7,1.9,3.4,3.1-0.8,3.1c-3.1,0-3.5-0.3-3.5-2.6c0-1.4,0.3-2.4,0.8-2.2
	C510.8,187.5,512.3,188.3,513.9,189z M66.8,207l14.7,11.3l-3.1,2.6c-3,2.6-5.8,7.7-5.8,10.7c0,2.7,4.6,6.5,8,6.5
	c6.5,0,9.3-7.7,4.5-12.6c-3-3-3.1-3.4-0.6-3.4c2.7,0,18.1,11.9,19.2,14.7c1.3,3.4,1.1,6.2-0.6,11.9c-1.6,5.4-7.7,13.4-10.3,13.4
	c-0.8,0-10.9-7-22.3-15.6c-20.2-15.2-20.7-15.7-19.7-18.3c1.1-3,1.3-19.3,0.2-27.7c-0.4-3.3-0.3-5.5,0.2-5.3S58.7,200.7,66.8,207z
	 M285.6,210.4v5.3l-16.2,2.1c-9,1.2-16.4,2-16.5,1.9c-0.2-0.2,3.9-1.9,9-4c5-2,12.1-5.2,15.7-7.1c3.6-1.9,6.8-3.4,7.3-3.5
	C285.3,205.1,285.6,207.5,285.6,210.4z M30.2,222.2c3.7-1.3,3.7-1.3,11.1,4.3l5.2,3.9l-1.9,2.7c-5.4,7.6-19.4,8-24.4,0.8
	c-1.8-2.5-2.1-8-0.6-10.8c0.9-1.6,1.4-1.7,4.2-0.8C26.1,223.1,27.7,223.1,30.2,222.2z M96.9,225.3c1.5,1.1,3.2,2.9,3.8,4
	c0.7,1.3-0.7,0.6-4.5-2.2c-3.1-2.3-5.6-4.4-5.6-4.6C90.6,221.8,94.1,223.4,96.9,225.3z M177.3,247.2c4.3,4,6.7,9.2,6.1,13.1
	c-0.3,2.2-0.7,2.3-7.1,2.1c-3.7,0-9-0.6-11.7-1.3c-4.1-1-5-1.6-5-3.3c0-1.2-0.2-8-0.4-15l-0.3-12.8l7.1,6.7
	C169.9,240.3,175,245,177.3,247.2z M130.1,250.8c4.4,2.2,11.5,5.2,15.8,6.8l7.7,2.8v16.7v16.7l-4-1.9c-2.2-1.1-6.6-2.3-9.8-2.7
	c-7.9-0.9-28.4-11.9-41.2-22l-2.5-2l3.9-3.2c4.4-3.7,8.3-11.3,9.2-18l0.6-4.6l6.2,3.7C119.4,245.2,125.8,248.6,130.1,250.8z"/>
<path d="M113.8,248.3c-0.7,0.7-1.2,2.1-1.2,3.3c0,4.7,6.2,6.3,8.1,2.1C122.9,249,117.4,244.7,113.8,248.3z"/>
</svg>
